<svg version="1.1" id="odtwarzacz" xmlns="http://www.w3.org/2000/svg" xmlns:xlink="http://www.w3.org/1999/xlink" x="0px" y="0px"
	 width="113.391px" height="113.391px" viewBox="0 0 113.391 113.391" enable-background="new 0 0 113.391 113.391"
	 xml:space="preserve">
<path id="L1" d="M64.965,0.676c-2.705-0.398-5.456-0.678-8.271-0.678C25.438-0.002,0,25.431,0,56.694
	c0,31.262,25.434,56.695,56.693,56.695c2.815,0,5.566-0.277,8.271-0.672c27.344-4.03,48.421-27.574,48.421-56.023
	C113.386,28.252,92.313,4.698,64.965,0.676z M36.013,85.014V28.373l56.692,28.318L36.013,85.014z M83.289,17.386
	C70.785,7.988,57.056,8.734,57.056,8.734s17.319-3.274,31.202,9.022c16.689,14.781,12.405,29.044,12.405,29.044
	S102.524,31.853,83.289,17.386z"/>
</svg>
