<?xml version="1.0" encoding="utf-8"?>
<!-- Generator: Adobe Illustrator 15.0.0, SVG Export Plug-In . SVG Version: 6.00 Build 0)  -->
<!DOCTYPE svg PUBLIC "-//W3C//DTD SVG 1.1//EN" "http://www.w3.org/Graphics/SVG/1.1/DTD/svg11.dtd">
<svg version="1.1" id="AUTO_PRZEWRACANIE" xmlns="http://www.w3.org/2000/svg" xmlns:xlink="http://www.w3.org/1999/xlink" x="0px"
	 y="0px" width="113.391px" height="113.391px" viewBox="0 0 113.391 113.391" enable-background="new 0 0 113.391 113.391"
	 xml:space="preserve">
<path id="L1" d="M17.976,51.221c0,0-4.133-6.834-1.088-12.219c2.881-5.094,9.208-4.729,9.208-4.729h56.339l-0.058,19.393
	l23.636-26.856L82.437,0v19.345h-56.63c-9.063,0.336-15.938,1.523-22.405,12.3C-5.3,46.147,5.42,65.928,5.42,65.928L17.976,51.221z
	 M95.403,62.169c0,0,4.135,6.834,1.09,12.218c-2.884,5.095-9.208,4.73-9.208,4.73H30.943L31,59.724L7.365,86.582l23.576,26.809
	V94.047h56.629c9.064-0.337,15.94-1.523,22.405-12.3c8.701-14.502-2.018-34.284-2.018-34.284L95.403,62.169z"/>
</svg>
