<?xml version="1.0" encoding="utf-8"?>
<!-- Generator: Adobe Illustrator 15.0.0, SVG Export Plug-In . SVG Version: 6.00 Build 0)  -->
<!DOCTYPE svg PUBLIC "-//W3C//DTD SVG 1.1//EN" "http://www.w3.org/Graphics/SVG/1.1/DTD/svg11.dtd">
<svg version="1.1" id="PANEL_STARTOWY" xmlns="http://www.w3.org/2000/svg" xmlns:xlink="http://www.w3.org/1999/xlink" x="0px"
	 y="0px" width="113.39px" height="113.39px" viewBox="0 0 113.39 113.39" enable-background="new 0 0 113.39 113.39"
	 xml:space="preserve">
<path id="f1" d="M20.509,6.25c-3.15-0.015-3.775,1.3-3.775,1.3v55.665c3.357-2.596,7.549,0,7.549,0V7.629
	C24.283,7.629,24.033,6.267,20.509,6.25z"/>
<path id="f2" d="M20.466,0.106c-2.374,0-3.143,0.986-3.143,0.986v4.372c0.448-0.716,5.292-0.869,6.302,0V1.149
	C23.077,0.606,22.055,0.106,20.466,0.106z"/>
<path id="f3" d="M20.465,64.147c-2.374,0-3.142,0.668-3.142,0.668v47.931c0,0,0.066,0.618,2.929,0.643
	c2.864,0.026,3.375-0.643,3.375-0.643V64.864C23.077,64.502,22.054,64.147,20.465,64.147z"/>
<path id="f4" d="M113.247,14.53C87.179,1.362,39.887,3.668,26.51,6.958v56.104c15.859-3.442,86.737,1.086,86.737,1.086
	L86.868,33.014L113.247,14.53z M33.75,56c1.134,3.551,10.652,3.018,11.583,3.417c0,0-9.154,0.224-11.504,0.482
	c-0.697,0.078-0.605-0.047-3.498,0.351l-0.19-51.735C34.343,6.118,48.5,6.25,48.5,6.25c-4.914,0.134-14.512,2.938-15.167,5.833
	C31.731,19.181,32.761,52.909,33.75,56z"/>
</svg>
