<?xml version="1.0" encoding="iso-8859-1"?>
<!-- Generator: Adobe Illustrator 16.0.4, SVG Export Plug-In . SVG Version: 6.00 Build 0)  -->
<!DOCTYPE svg PUBLIC "-//W3C//DTD SVG 1.1//EN" "http://www.w3.org/Graphics/SVG/1.1/DTD/svg11.dtd">
<svg version="1.1" id="Capa_1" xmlns="http://www.w3.org/2000/svg" xmlns:xlink="http://www.w3.org/1999/xlink" x="0px" y="0px"
	 width="300.754px" height="300px" viewBox="0 0 14.754 15" style="enable-background:new 0 0 14.754 15;" xml:space="preserve">
<path style="fill:#010002;" d="M0.771,13.781c0,0.58,1.652,1.05,3.691,1.05s3.693-0.47,3.693-1.05l0.77-9.711H0L0.771,13.781z
	 M6.801,5.401C6.809,5.244,6.926,5.107,7.1,5.129C7.256,5.136,7.379,5.27,7.371,5.426l-0.34,7.972
	C7.023,13.55,6.898,13.67,6.746,13.67c-0.006,0-0.008,0-0.014,0c-0.156-0.007-0.279-0.14-0.271-0.297L6.801,5.401z M4.178,5.414
	c0-0.157,0.129-0.285,0.285-0.285c0.158,0,0.285,0.128,0.285,0.285v7.971c0,0.157-0.127,0.285-0.285,0.285
	c-0.156,0-0.285-0.128-0.285-0.285V5.414z M1.828,5.124C1.975,5.107,2.117,5.24,2.125,5.397l0.342,7.971
	c0.006,0.157-0.115,0.291-0.273,0.298c-0.004,0-0.008,0-0.012,0c-0.152,0-0.279-0.121-0.285-0.273L1.555,5.422
	C1.549,5.265,1.672,5.131,1.828,5.124z M8.828,1.938C8.744,1.444,8.033,0.368,5.602,0.771L5.141,0.849
	c-0.045-0.268-0.189-0.502-0.41-0.66C4.508,0.03,4.244-0.029,3.973,0.013C3.42,0.104,3.045,0.628,3.135,1.182L2.688,1.257
	C0.254,1.661-0.07,2.91,0.012,3.402L8.828,1.938z M3.775,0.756c0.07-0.097,0.172-0.16,0.291-0.18
	c0.244-0.041,0.471,0.125,0.51,0.366L3.699,1.088C3.68,0.97,3.707,0.853,3.775,0.756z M12.502,10.471
	c0.051,0.063,0.082,0.122,0.098,0.17c0.047,0.138-0.008,0.236-0.162,0.287l-0.43,0.143l-0.285-0.327
	c-0.055-0.162,0.016-0.316,0.211-0.466L12.502,10.471z M10.482,9.311l0.568,0.193c0.051,0.064,0.082,0.121,0.098,0.17
	c0.045,0.139-0.006,0.235-0.162,0.288l-0.428,0.143l-0.285-0.328C10.217,9.614,10.289,9.459,10.482,9.311z M11.529,9.756
	l-0.021-0.674c0.086-0.074,0.162-0.123,0.236-0.147c0.141-0.047,0.27-0.037,0.396,0.024c0.125,0.062,0.203,0.144,0.236,0.24
	c0.041,0.122-0.023,0.28-0.195,0.475L11.529,9.756z M14.273,11.021c-0.041,0.016-0.195,0.08-0.467,0.198l-0.24,0.013l-0.139-0.131
	c-0.082-0.084-0.133-0.156-0.156-0.222c-0.08-0.244-0.104-0.489-0.068-0.732c0.035-0.244,0.127-0.391,0.275-0.439
	c0.104,0.04,0.207,0.077,0.311,0.113c0.213,0.066,0.332,0.094,0.355,0.086l-0.004-0.014c0.131-0.043,0.227,0.034,0.293,0.229
	c0.059,0.172,0.07,0.349,0.037,0.533S14.369,10.964,14.273,11.021z M14.754,12.607l-0.477,0.158
	c-0.201-0.03-0.354-0.093-0.457-0.186l0.143-0.511l0.549-0.186L14.754,12.607z M11.146,12.343l-0.477,0.159
	c-0.201-0.029-0.352-0.093-0.457-0.186l0.143-0.511l0.551-0.185L11.146,12.343z M12.811,12.994c0.168,0.19,0.338,0.536,0.506,1.038
	c0.021,0.062,0.018,0.127-0.008,0.195c-0.025,0.069-0.068,0.138-0.125,0.205c-0.057,0.066-0.127,0.129-0.209,0.184
	c-0.084,0.054-0.17,0.095-0.26,0.125L11.943,15c-0.031-0.073-0.176-0.216-0.436-0.43c-0.246-0.22-0.373-0.335-0.377-0.349
	c-0.059-0.177-0.023-0.419,0.107-0.726c0.135-0.322,0.293-0.57,0.484-0.741l0.062-0.019C12.191,12.6,12.533,12.686,12.811,12.994z
	 M9.768,4.209C9.736,4.177,9.408,3.907,9.373,3.885C9.141,3.739,8.824,3.79,8.555,3.735c-0.264-0.053-0.51-0.177-0.764-0.238
	C7.504,3.43,7.146,3.408,6.842,3.435C6.443,3.47,6.107,3.662,5.689,3.652C6.008,3.487,6.217,3.1,6.557,2.976
	c0.342-0.125,0.842-0.383,1.158-0.552c0.514-0.271,1.5,0.051,1.469-0.041c0,0,0.852,0.576,1.08,0.712l0.898,0.836
	c0.117,0.093-0.152,1.412-0.152,1.412l-0.598,0.419L10.264,5.17L9.904,4.925C9.857,4.925,9.869,4.317,9.768,4.209z M10.312,7.887
	c0,0-0.404,0.028-0.877-0.444V6.441h0.877C10.312,6.441,10.846,7.353,10.312,7.887z M12.256,7.351l-0.232-1.575l0.975,0.646
	l0.713,0.651c0,0,0.154,0.836,0.154,1.177h-0.807C13.059,8.249,12.256,8.074,12.256,7.351z"/>
</svg>
