<?xml version="1.0" encoding="utf-8"?>
<!-- Generator: Adobe Illustrator 15.0.0, SVG Export Plug-In . SVG Version: 6.00 Build 0)  -->
<!DOCTYPE svg PUBLIC "-//W3C//DTD SVG 1.1//EN" "http://www.w3.org/Graphics/SVG/1.1/DTD/svg11.dtd">
<svg
   xmlns:dc="http://purl.org/dc/elements/1.1/"
   xmlns:cc="http://creativecommons.org/ns#"
   xmlns:rdf="http://www.w3.org/1999/02/22-rdf-syntax-ns#"
   xmlns:svg="http://www.w3.org/2000/svg"
   xmlns="http://www.w3.org/2000/svg"
   xmlns:sodipodi="http://sodipodi.sourceforge.net/DTD/sodipodi-0.dtd"
   xmlns:inkscape="http://www.inkscape.org/namespaces/inkscape"
   width="300px"
   height="300px"
   viewBox="0 0 64 64.000001"
   id="BUDZIK"
   enable-background="new 0 0 113.39 113.39" 
   version="1.1"
   inkscape:version="0.91 r13725">
  <g
     inkscape:label="Layer 1"
     inkscape:groupmode="layer"
     id="layer1"
     transform="translate(0.11390799,-988.65533)">
    <g
       id="g5110"
       transform="translate(-0.04980094,0.04979248)">
      <path
         inkscape:connector-curvature="0"
         id="path3368"
         d="M 54.380599,1021.8466 A 22.266358,22.266358 0 0 1 32.114237,1044.1128 22.266358,22.266358 0 0 1 9.8478789,1021.8466 22.266358,22.266358 0 0 1 32.114237,999.58011 22.266358,22.266358 0 0 1 54.380599,1021.8466 Z"
         style="fill:none;fill-opacity:1;stroke-width:1.80775201;stroke-dasharray:none;stroke-opacity:1" />
         />
      <circle
         r="0.61138254"
         cy="1021.8464"
         cx="12.142659"
         id="path4213-6"
         />
      <circle
         r="0.61138254"
         cy="1021.8464"
         cx="52.085808"
         id="path4213-6-5"
         />
      <circle
         r="0.61138254"
         cy="1001.8749"
         cx="32.114235"
         id="path4213-6-7"
         />
      <circle
         r="0.61138254"
         cy="1041.818"
         cx="32.114235"
         id="path4213-6-3"
         />
      <circle
         transform="matrix(0.86602538,-0.50000004,0.50000004,0.86602538,0,0)"
         r="0.6113826"
         cy="901.00208"
         cx="-503.0831"
         id="path4213-6-6"
         />
      <circle
         transform="matrix(0.86602538,-0.50000004,0.50000004,0.86602538,0,0)"
         r="0.6113826"
         cy="901.00208"
         cx="-463.13995"
         id="path4213-6-5-1"
         />
      <circle
         transform="matrix(0.86602538,-0.50000004,0.50000004,0.86602538,0,0)"
         r="0.6113826"
         cy="881.03052"
         cx="-483.11154"
         id="path4213-6-7-8"
         />
      <circle
         transform="matrix(0.86602538,-0.50000004,0.50000004,0.86602538,0,0)"
         r="0.6113826"
         cy="920.97369"
         cx="-483.11154"
         id="path4213-6-3-7"
         />
      <circle
         transform="matrix(0.5,-0.8660254,0.8660254,0.5,0,0)"
         r="0.61138254"
         cy="538.73499"
         cx="-888.85944"
         id="path4213-6-6-2"
         />
      <circle
         transform="matrix(0.5,-0.8660254,0.8660254,0.5,0,0)"
         r="0.61138254"
         cy="538.73499"
         cx="-848.91632"
         id="path4213-6-5-1-0"
         />
      <circle
         transform="matrix(0.5,-0.8660254,0.8660254,0.5,0,0)"
         r="0.61138254"
         cy="518.76343"
         cx="-868.88788"
         id="path4213-6-7-8-2"
         />
      <circle
         transform="matrix(0.5,-0.8660254,0.8660254,0.5,0,0)"
         r="0.61138254"
         cy="558.7066"
         cx="-868.88788"
         id="path4213-6-3-7-3"
         />
      <path
         transform="matrix(0.51105945,-0.85954537,0.85954537,0.51105945,0,0)"
         sodipodi:open="true"
         d="m -837.07747,549.73969 a 25.64537,25.64537 0 0 1 -7.51135,18.13401"
         sodipodi:end="0.78539816"
         sodipodi:start="0"
         sodipodi:ry="25.64537"
         sodipodi:rx="25.64537"
         sodipodi:cy="549.73969"
         sodipodi:cx="-862.72284"
         sodipodi:type="arc"
         id="path3368-7"
         />
      <path
         transform="matrix(0.51105945,-0.85954537,0.85954537,0.51105945,0,0)"
         sodipodi:open="true"
         d="m -833.7812,549.5108 a 28.863028,28.863028 0 0 1 -8.77688,20.7273"
         sodipodi:end="0.80110613"
         sodipodi:start="0"
         sodipodi:ry="28.863028"
         sodipodi:rx="28.863028"
         sodipodi:cy="549.5108"
         sodipodi:cx="-862.64423"
         sodipodi:type="arc"
         id="path3368-5"
         />
      <path
         d="M 4.3123838,1014.8319 A 28.86303,28.86303 0 0 1 18.334358,997.22389"
         id="path3368-5-2"
         inkscape:connector-curvature="0" />
      <path
         d="M 7.5943832,1015.3987 A 25.64537,25.64537 0 0 1 19.700751,999.94871"
         id="path3368-7-8"
         inkscape:connector-curvature="0" />
      <g
         transform="matrix(0.99993635,0.0112823,-0.0112823,0.99993635,11.53302,-0.29907235)"
         inkscape:transform-center-y="-6.6405676"
         inkscape:transform-center-x="-2.0500505"
         id="g5106">
        <rect
           id="rect4170-32"
           width="0.33193436"
           height="18.920261"
           x="-745.62885"
           y="-699.83484"
           transform="matrix(-0.70710675,-0.70710681,0.70710681,-0.70710675,0,0)" />
        <rect
           id="rect4170-3-0"
           width="0.49628595"
           height="10.796434"
           x="-869.20972"
           y="528.02509"
           transform="matrix(0.5,-0.8660254,0.8660254,0.5,0,0)" />
      </g>
    </g>
  </g>
</svg>
