<?xml version="1.0" encoding="iso-8859-1"?>
<!-- Generator: Adobe Illustrator 17.0.2, SVG Export Plug-In . SVG Version: 6.00 Build 0)  -->
<!DOCTYPE svg PUBLIC "-//W3C//DTD SVG 1.1//EN" "http://www.w3.org/Graphics/SVG/1.1/DTD/svg11.dtd">
<svg version="1.1" id="Capa_1" xmlns="http://www.w3.org/2000/svg" xmlns:xlink="http://www.w3.org/1999/xlink" x="0px" y="0px"
	 width="64px" height="64px" viewBox="0 0 64 64" style="enable-background:new 0 0 64 64;" xml:space="preserve">
<g>
	<path d="M41.629,35.152c-0.874-0.664-3.144-1.094-2.586-2.335c0.718-1.597,1.087-3.367,1.424-5.075
		c0.534-2.708,0.65-12.72-4.882-9.955c-1.533,0.766-3.392,0.468-4.842,1.685c-2.334,1.958-2.978,4.645-3.069,7.611
		c-0.092,2.997,2.843,7.607,0.207,9.296c-3.743,2.399-6.741,5.636-7.44,10.128c-0.064,0.416,0.567,0.378,0.817,0.352
		c0.189-0.02,0.379-0.041,0.568-0.061c0.314-0.035-0.087,0.545-0.894,1.299c-1.019,0.95-2.038,1.901-3.057,2.852
		c-0.808,0.753-0.918,1.512-0.224,1.565c0.694,0.053,1.919-0.511,2.734-1.257c0.983-0.901,1.964-1.805,2.946-2.708
		c0.813-0.747,1.438-1.516,1.392-1.717c-0.045-0.201,0.805-0.472,1.901-0.607c6.159-0.761,12.285-1.49,18.528-0.76
		c0.02,0.002,0.044,0.001,0.067,0.001c0.545,0.053,1.421-0.224,1.496-0.625C47.484,40.716,44.732,37.508,41.629,35.152z
		 M43.319,44.235c-0.863-0.05-1.549-0.079-1.531-0.098c0.018-0.018-0.328-0.034-0.771-0.028c-0.268,0.003-0.535,0.008-0.802,0.015
		c-3.752,0.039-7.449,0.388-11.197,0.858c-2.046,0.258-7.148,2.135-6.029-1.419c0.026-0.084,0.056-0.167,0.087-0.249
		c0.052-0.137,0.26-0.399,0.462-0.588c0.203-0.188,0.365-0.365,0.36-0.393c-0.004-0.027-0.16,0.102-0.348,0.291
		c-0.188,0.188-0.007-0.5,0.632-1.4c1.769-2.495,4.762-4.349,7.19-5.786c0.109-0.065,0.489-0.311,0.378-0.502
		c-1.617-2.79-2.219-5.917-2.12-9.124c0.056-1.812,0.597-3.546,1.586-5.06c1.54-2.357,2.807-1.111,4.347-1.881
		c5.244-2.621,2.278,12.966,1.045,15.261c-0.07,0.13,0.082,0.272,0.187,0.307c3.483,1.16,7.157,4.191,7.95,7.921
		C44.974,43.441,44.183,44.285,43.319,44.235z"/>
	<path d="M49.558,21.508c-2.498,2.317-4.994,4.635-7.492,6.955c-0.81,0.752-1.471,1.379-1.479,1.402
		c-0.007,0.023,0.083,0.542,0.248,1.148c0.165,0.606,0.989,0.479,1.799-0.273c2.452-2.275,4.903-4.549,7.351-6.824
		c0.808-0.752,1.443-1.911,1.33-2.578C51.203,20.67,50.368,20.756,49.558,21.508z"/>
	<path d="M44.818,18.355c-0.085,0.027-0.577,0.479-1.099,1.008c-0.523,0.53-0.453,0.51,0.155-0.045
		C44.481,18.762,44.903,18.328,44.818,18.355z"/>
	<path d="M17.067,37.553c0.187-0.204,0.375-0.408,0.562-0.613c0.31-0.339-0.083,0.008-0.878,0.775
		c-0.578,0.558-1.132,1.092-1.629,1.571c-0.795,0.767-1.437,1.436-1.426,1.495c0.01,0.06,0.651-0.523,1.434-1.302
		C15.773,38.837,16.417,38.194,17.067,37.553z"/>
	<path d="M21.333,30.985c0.787-0.775,1.403-1.96,1.379-2.645c-0.024-0.685-0.661-0.598-1.43,0.194
		c-2.212,2.28-4.422,4.562-6.631,6.842c-0.769,0.793-1.351,1.869-1.292,2.401c0.059,0.532,0.747,0.334,1.533-0.441
		C17.039,35.218,19.186,33.102,21.333,30.985z"/>
	<path d="M42.799,24.727c0.563-0.528,1.124-1.054,1.682-1.577c0.806-0.755,1.335-1.185,2.154-1.926
		c0.453-0.411,1.039-0.946,1.743-1.591c0.814-0.747,1.273-1.533,0.989-1.7c-0.284-0.166-0.705-0.088-0.904,0.098
		c-0.117,0.109-0.235,0.22-0.36,0.337c-3.644,3.595-2.985,2.833-5.195,4.969c-0.794,0.768-1.452,1.702-1.49,2.077
		C41.38,25.791,41.993,25.482,42.799,24.727z"/>
	<path d="M50.463,28.869c0.233-0.23,0.433-0.46,0.442-0.514c0.01-0.055-0.621,0.526-1.411,1.298
		c-1.604,1.568-3.198,3.125-4.781,4.672c-0.79,0.771-1.392,1.43-1.345,1.47c0.047,0.041,0.736-0.544,1.538-1.304
		c1.509-1.431,2.983-2.829,4.42-4.194c0.801-0.761,1.474-1.48,1.505-1.607c0.031-0.126-0.135-0.044-0.368,0.183
		C50.229,29.101,50.229,29.099,50.463,28.869z"/>
	<path d="M45.394,54.74c-0.218,0.229-0.356,0.415-0.31,0.415c0.046,0.001,0.263-0.18,0.486-0.404
		c0.222-0.225,0.362-0.411,0.311-0.417C45.83,54.329,45.612,54.511,45.394,54.74z"/>
	<path d="M55.054,37.713c-0.061,0.062-0.096-0.784-0.08-1.889c0.078-5.352,0.108-10.724-0.071-16.057
		c-0.134-1.959,0.7-5.894-1.639-6.914c-3.496-1.524-7.758-1.221-11.485-1.666c-3.9-0.465-7.682-0.699-11.432-0.753
		c-1.104-0.016-1.932-0.081-1.847-0.166c0.084-0.085-0.153-0.16-0.532-0.166c-0.378-0.006-0.759,0.068-0.85,0.159
		c-0.09,0.09-1.059,0.175-2.163,0.209c-0.207,0.006-0.414,0.013-0.622,0.021c-1.104,0.039-1.918,0.006-1.818-0.094
		c0.099-0.1-0.318-0.15-0.93-0.092c-0.612,0.058-1.18,0.175-1.267,0.259c-0.086,0.083-0.182,0.152-0.213,0.154
		c-0.032,0.002,0.012-0.063,0.098-0.146c0.086-0.083,0.129-0.146,0.096-0.143c-0.033,0.003-0.126,0.071-0.209,0.152
		c-0.083,0.081-1.043,0.208-2.145,0.299c-2.167,0.178-4.353,0.402-6.576,0.676c-0.317,0.039-1.029,0.228-1.108,0.621
		c-0.896,4.482-0.238,9.657-0.179,14.219c0.09,6.905,0.615,13.771,1.915,20.558c0.429,2.236,0.32,6.14,3.1,6.51
		c5.997,0.8,12.083,1.283,18.113,1.792c4.508,0.38,9.137,1.324,13.678,0.84c1.917-0.205,5.331-0.208,6.593-2.047
		c0.765-1.115,0.702-3.579,0.884-4.822c0.295-2.005,0.413-4.034,0.475-6.063c0.033-1.104,0.199-2.164,0.388-2.366
		c0.188-0.201,0.35-0.878,0.355-1.512c0.006-0.633-0.086-1.268-0.203-1.416C55.263,37.72,55.115,37.652,55.054,37.713z M53,37.784
		c-0.01,1.104-0.65,2.634-1.431,3.414c-0.521,0.521-1.043,1.043-1.566,1.566c-0.78,0.781-0.621,1.371,0.356,1.354
		c0.977-0.017,1.947-0.189,2.164-0.422c0.217-0.232,0.36,0.474,0.289,1.576c-0.131,2.013-0.34,4.017-0.635,6.025
		c-0.141,0.961-0.412,1.686-0.79,2.234c-0.627,0.909-1.938,1.177-2.416,1.126c-0.477-0.05-0.999,0.042-1.163,0.208
		c-0.164,0.166-0.131,0.295,0.074,0.279c0.205-0.016-0.521,0.057-1.625,0.049c-0.676-0.006-1.386-0.027-2.119-0.033
		c-6.628-0.056-13.544-1.127-20.122-1.899c-2.569-0.302-5.137-0.582-7.716-0.775c-2.108-0.159-2.458-6.514-2.724-7.896
		C12.28,37.826,12.079,30.866,11.99,24c-0.04-3.12-0.012-6.24-0.002-9.359c0.002-0.618-0.006-1.069,0.004-1.4
		c0.025-0.773,0.716-0.906,0.7-0.827s-0.028,0.624-0.03,1.217c-0.002,0.593,0.639,0.448,1.43-0.322
		c0.023-0.023,0.047-0.046,0.07-0.068c0.791-0.771,2.179-1.534,3.103-1.681c0.554-0.087,1.113-0.166,1.681-0.226
		c0.067-0.007,0.135-0.012,0.203-0.016c0.112-0.008-0.436,0.61-1.226,1.382c-1.254,1.226-2.529,2.472-3.838,3.749
		c-0.791,0.771-1.433,1.41-1.433,1.426s0.641-0.596,1.432-1.366c1.399-1.363,2.766-2.693,3.932-3.824
		c0.793-0.769,1.463-1.393,1.496-1.395c0.033-0.003-0.585,0.618-1.379,1.386c-1.094,1.057-2.46,2.378-4.044,3.912
		c-0.793,0.768-1.438,1.935-1.438,2.607c0,0.671,0.628,0.576,1.401-0.212c2.128-2.169,4.245-4.316,6.352-6.449
		c0.776-0.786,2.3-1.473,3.405-1.496c6.177-0.129,12.399,0.606,18.496,1.333c2.41,0.288,4.828,0.394,7.239,0.658
		c4.331,0.475,3.235,4.455,3.427,7.255C53.166,26.107,53.057,31.953,53,37.784z"/>
	<path d="M14.443,32.731c2.367-2.437,4.645-4.779,6.792-6.981c0.771-0.791,1.387-2.15,1.378-3.038
		c-0.008-0.887-0.648-0.978-1.436-0.203c-2.284,2.248-4.585,4.515-6.91,6.809c-0.787,0.776-1.39,2.177-1.331,3.128
		C12.996,33.396,13.674,33.523,14.443,32.731z"/>
	<path d="M47.575,37.426c-0.819,0.741-1.392,1.475-1.284,1.64c0.108,0.164,0.816-0.337,1.589-1.126
		c0.683-0.697,1.366-1.395,2.048-2.092c0.773-0.79,1.338-1.464,1.264-1.504c-0.074-0.039-0.798,0.53-1.617,1.271
		C48.901,36.225,48.234,36.829,47.575,37.426z"/>
	<path d="M31.865,52.922c-0.577-0.063-1.327,0.149-1.658,0.487c-0.331,0.339,0.164-0.037-0.001,0.114
		c-0.166,0.152,0.155,0.324,0.714,0.387c0.56,0.062,1.232-0.111,1.501-0.381C32.69,53.26,32.442,52.985,31.865,52.922z"/>
	<path d="M25.386,49.773c-0.012-0.058-0.68,0.504-1.491,1.254c-0.191,0.177-0.381,0.353-0.572,0.529
		c-0.81,0.75-1.312,1.376-1.121,1.398c0.192,0.021,0.976-0.599,1.752-1.385c0.032-0.032,0.063-0.064,0.095-0.097
		c0.776-0.786,1.396-1.463,1.383-1.51c-0.007-0.027-0.014-0.056-0.022-0.086C25.401,49.844,25.394,49.809,25.386,49.773z"/>
	<path d="M20.092,18.727c0.418-0.424,0.837-0.845,1.257-1.266c0.696-0.698,1.259-1.576,1.259-1.958
		c0.001-0.383-0.629-0.057-1.407,0.728c-2.373,2.395-4.742,4.791-7.11,7.187c-0.776,0.786-1.403,1.65-1.401,1.932
		c0.003,0.282,0.654-0.107,1.452-0.872C16.127,22.577,18.107,20.662,20.092,18.727z"/>
	<path d="M42.376,54.069c-0.553-0.05-1.097-0.107-1.637-0.168c-0.903-0.102-1.829,0.008-2.067,0.245
		c-0.238,0.236,0.408,0.524,1.443,0.634c1.035,0.109,2.057-0.01,2.281-0.249c0.224-0.239,0.309-0.439,0.191-0.447
		C42.516,54.078,42.444,54.072,42.376,54.069z"/>
	<path d="M23.125,37.745c0.094-0.098,0.123-0.621,0.066-1.167c-0.057-0.547-0.73-0.358-1.513,0.42
		c-2.047,2.036-4.044,4.023-5.989,5.956c-0.783,0.779-1.336,1.869-1.223,2.435c0.112,0.565,0.29,0.949,0.388,0.857
		c0.06-0.057,0.119-0.112,0.179-0.17c2.646-2.734,5.289-5.467,7.921-8.155C23.012,37.861,23.068,37.804,23.125,37.745z"/>
	<path d="M55.384,44.213c-0.038,0.039-0.04,0.072-0.005,0.076c0.035,0.005,0.065-0.028,0.068-0.071
		C55.45,44.175,55.422,44.173,55.384,44.213z"/>
</g>
</svg>
