<svg version="1.1" id="dodaj_x5F_do_x5F_playlisty" xmlns="http://www.w3.org/2000/svg" xmlns:xlink="http://www.w3.org/1999/xlink"
	 x="0px" y="0px" width="113.391px" height="113.391px" viewBox="0 0 113.391 113.391" enable-background="new 0 0 113.391 113.391"
	 xml:space="preserve">
<path id="L1" d="M88.362,50.463c-1.399-0.206-2.821-0.35-4.276-0.35c-16.156,0-29.305,13.146-29.305,29.305
	c0,16.159,13.147,29.306,29.305,29.306c1.455,0,2.877-0.144,4.276-0.348c14.133-2.083,25.028-14.253,25.028-28.958
	C113.39,64.717,102.497,52.542,88.362,50.463z M102.8,82.383H87.216v15.563h-6.427V82.383H65.203l0.001-6.427h15.585V60.349
	l6.427,0.002v15.604H102.8V82.383z M52.996,72.345H24.151v-0.084V60.614v-0.087h34.263C55.853,63.998,53.984,68.006,52.996,72.345z
	 M88.723,22.232H24.068V10.5h64.655V22.232z M11.945,35.361L11.945,35.361l0.001,11.733H0V35.361H11.945z M11.945,60.447
	L11.945,60.447l0.001,11.731H0V60.447H11.945z M88.723,47.094H24.068V35.361h64.655V47.094z M0,10.5h11.946v11.733h-0.001H0V10.5z"
	/>
</svg>
