<?xml version="1.0" encoding="UTF-8" standalone="no"?>
<!-- Created with Inkscape (http://www.inkscape.org/) -->

<svg
   xmlns:dc="http://purl.org/dc/elements/1.1/"
   xmlns:cc="http://creativecommons.org/ns#"
   xmlns:rdf="http://www.w3.org/1999/02/22-rdf-syntax-ns#"
   xmlns:svg="http://www.w3.org/2000/svg"
   xmlns="http://www.w3.org/2000/svg"
   xmlns:sodipodi="http://sodipodi.sourceforge.net/DTD/sodipodi-0.dtd"
   xmlns:inkscape="http://www.inkscape.org/namespaces/inkscape"
   width="153"
   height="35"
   viewBox="0 0 153 35.000001"
   id="svg3336"
   version="1.1"
   inkscape:version="0.91 r13725"
   sodipodi:docname="domenanapis.svg">
  <defs
     id="defs3338" />
  <sodipodi:namedview
     id="base"
     pagecolor="#ffffff"
     bordercolor="#666666"
     borderopacity="1.0"
     inkscape:pageopacity="0.0"
     inkscape:pageshadow="2"
     inkscape:zoom="7.4183007"
     inkscape:cx="76.5"
     inkscape:cy="6.7158595"
     inkscape:document-units="px"
     inkscape:current-layer="layer1"
     showgrid="false"
     inkscape:snap-page="true"
     units="px"
     inkscape:window-width="1301"
     inkscape:window-height="744"
     inkscape:window-x="65"
     inkscape:window-y="24"
     inkscape:window-maximized="1" />
  <metadata
     id="metadata3341">
    <rdf:RDF>
      <cc:Work
         rdf:about="">
        <dc:format>image/svg+xml</dc:format>
        <dc:type
           rdf:resource="http://purl.org/dc/dcmitype/StillImage" />
        <dc:title />
      </cc:Work>
    </rdf:RDF>
  </metadata>
  <g
     inkscape:label="Layer 1"
     inkscape:groupmode="layer"
     id="layer1"
     transform="translate(0,-1017.3621)">
    <g
       id="g3442"
       transform="translate(120.82429,1019.1075)"
       style="fill:#4d4d4d">
      <g
         id="g3444"
         style="fill:#4d4d4d">
        <path
           d="M 6.501,6.249 C 6.941,6.584 7.393,6.903 7.862,7.188 7.623,7.764 7.411,8.372 7.221,9 L 9.148,9 C 9.258,8.678 9.363,8.351 9.488,8.045 10.381,8.454 11.312,8.766 12.267,9 l 7.471,0 C 20.705,8.765 21.65,8.446 22.55,8.028 22.675,8.338 22.779,8.672 22.893,9 l 1.891,0 C 24.595,8.371 24.384,7.765 24.143,7.188 24.614,6.903 25.067,6.584 25.503,6.249 26.343,7.067 27.075,7.992 27.682,9 L 30.37,9 C 27.766,3.682 22.313,0 16.002,0 9.689,0 4.238,3.682 1.635,9 L 4.321,9 C 4.929,7.992 5.661,7.065 6.501,6.249 Z M 24.109,5.073 C 23.863,5.249 23.616,5.422 23.359,5.582 23.04,4.995 22.693,4.438 22.318,3.936 c 0.632,0.33 1.226,0.715 1.791,1.137 z m -2.315,1.349 c -0.808,0.371 -1.64,0.67 -2.496,0.88 -0.239,-1.728 -0.584,-3.396 -1.075,-4.672 1.382,0.699 2.606,2.025 3.571,3.792 z M 15.82,2.379 c 0.061,-10e-4 0.12,-0.008 0.182,-0.008 0.062,0 0.121,0.007 0.182,0.008 0.438,0.717 0.965,2.507 1.354,5.229 -0.509,0.06 -1.021,0.098 -1.535,0.098 -0.517,0 -1.028,-0.038 -1.535,-0.098 0.387,-2.722 0.914,-4.512 1.352,-5.229 z M 13.771,2.658 C 13.286,3.93 12.944,5.585 12.706,7.303 11.863,7.097 11.045,6.803 10.253,6.443 11.214,4.692 12.421,3.366 13.771,2.658 Z M 9.684,3.936 C 9.31,4.438 8.965,4.996 8.642,5.582 8.386,5.423 8.139,5.25 7.893,5.074 8.459,4.651 9.052,4.266 9.684,3.936 Z"
           id="path3446"
           inkscape:connector-curvature="0"
           style="fill:#4d4d4d" />
        <path
           d="m 25.503,25.752 c -0.438,-0.336 -0.894,-0.654 -1.36,-0.941 0.237,-0.574 0.45,-1.182 0.641,-1.811 l -1.891,0 c -0.109,0.328 -0.216,0.66 -0.341,0.971 C 21.651,23.553 20.704,23.237 19.739,23 l -7.47,0 C 11.314,23.234 10.384,23.547 9.491,23.955 9.364,23.648 9.26,23.32 9.149,23 l -1.926,0 c 0.189,0.629 0.401,1.236 0.64,1.812 C 7.393,25.097 6.942,25.416 6.502,25.75 5.663,24.934 4.931,24.008 4.325,23 l -2.687,0 c 2.603,5.316 8.054,9 14.366,9 6.312,0 11.764,-3.684 14.367,-9 l -2.688,0 c -0.608,1.008 -1.34,1.934 -2.18,2.752 z M 7.893,26.928 C 8.139,26.752 8.387,26.578 8.642,26.42 8.965,27.006 9.31,27.563 9.684,28.065 9.052,27.734 8.459,27.35 7.893,26.928 Z m 2.358,-1.369 c 0.792,-0.356 1.61,-0.653 2.453,-0.858 0.238,1.719 0.58,3.368 1.065,4.645 -1.348,-0.711 -2.555,-2.039 -3.518,-3.787 z m 5.933,4.062 c -0.061,0.002 -0.12,0.008 -0.182,0.008 -0.062,0 -0.121,-0.006 -0.182,-0.008 -0.438,-0.717 -0.966,-2.508 -1.354,-5.229 0.507,-0.06 1.019,-0.099 1.535,-0.099 0.517,0 1.028,0.039 1.536,0.099 -0.391,2.721 -0.915,4.512 -1.353,5.229 z m 2.039,-0.252 c 0.491,-1.275 0.836,-2.943 1.075,-4.672 0.856,0.211 1.688,0.51 2.496,0.881 -0.965,1.768 -2.189,3.094 -3.571,3.791 z m 4.095,-1.305 c 0.375,-0.504 0.722,-1.062 1.041,-1.646 0.257,0.16 0.504,0.334 0.75,0.51 -0.565,0.422 -1.159,0.806 -1.791,1.136 z"
           id="path3448"
           inkscape:connector-curvature="0"
           style="fill:#4d4d4d" />
        <path
           d="m 4.795,19.18 0.637,-2.236 c 0.169,-0.596 0.299,-1.183 0.416,-1.977 l 0.026,0 c 0.13,0.78 0.247,1.354 0.403,1.977 l 0.598,2.236 1.859,0 1.95,-6.355 -1.936,0 -0.546,2.521 c -0.143,0.729 -0.273,1.443 -0.364,2.171 l -0.026,0 C 7.682,16.788 7.513,16.076 7.344,15.359 l -0.637,-2.534 -1.56,0 -0.676,2.612 C 4.315,16.06 4.133,16.79 4.003,17.517 l -0.026,0 C 3.873,16.788 3.743,16.086 3.613,15.423 l -0.507,-2.601 -2.016,0 1.846,6.357 1.859,0 0,0.001 z"
           id="path3450"
           inkscape:connector-curvature="0"
           style="fill:#4d4d4d" />
        <path
           d="m 18.314,15.344 c -0.145,0.729 -0.272,1.443 -0.362,2.172 l -0.027,0 c -0.129,-0.729 -0.299,-1.442 -0.467,-2.159 l -0.64,-2.534 -1.56,0 -0.676,2.612 c -0.156,0.624 -0.338,1.353 -0.468,2.081 l -0.026,0 c -0.104,-0.729 -0.234,-1.432 -0.364,-2.095 l -0.507,-2.601 -2.015,0 1.846,6.357 1.859,0 0.637,-2.235 c 0.169,-0.599 0.299,-1.184 0.416,-1.978 l 0.026,0 c 0.13,0.78 0.248,1.354 0.404,1.978 l 0.598,2.235 1.859,0 1.947,-6.357 -1.938,0 -0.542,2.524 z"
           id="path3452"
           inkscape:connector-curvature="0"
           style="fill:#4d4d4d" />
        <path
           d="m 28.43,15.344 c -0.144,0.729 -0.273,1.443 -0.363,2.172 l -0.025,0 c -0.129,-0.729 -0.3,-1.442 -0.469,-2.159 l -0.637,-2.534 -1.562,0 -0.677,2.612 c -0.155,0.624 -0.338,1.353 -0.469,2.081 l -0.024,0 C 24.1,16.787 23.971,16.084 23.841,15.421 l -0.508,-2.601 -2.017,0 1.849,6.357 1.856,0 0.64,-2.235 c 0.168,-0.599 0.299,-1.184 0.416,-1.978 l 0.024,0 c 0.129,0.78 0.246,1.354 0.402,1.978 l 0.598,2.235 1.859,0 1.949,-6.357 -1.938,0 -0.541,2.524 z"
           id="path3454"
           inkscape:connector-curvature="0"
           style="fill:#4d4d4d" />
      </g>
    </g>
    <text
       xml:space="preserve"
       style="font-style:normal;font-weight:normal;font-size:40px;line-height:120.00000477%;font-family:sans-serif;letter-spacing:2.25px;word-spacing:0px;fill:#000000;fill-opacity:1;stroke:none;stroke-width:1px;stroke-linecap:butt;stroke-linejoin:miter;stroke-opacity:1"
       x="-0.53920621"
       y="1046.1611"
       id="text3525"
       sodipodi:linespacing="0%"><tspan
         sodipodi:role="line"
         id="tspan3527"
         x="-0.53920621"
         y="1046.1611"
         style="font-style:normal;font-variant:normal;font-weight:normal;font-stretch:normal;font-size:20px;line-height:0%;font-family:'Kelson Sans';-inkscape-font-specification:'Kelson Sans';text-align:start;letter-spacing:0px;writing-mode:lr-tb;text-anchor:start;fill:#4d4d4d"
         dx="0">DOMENA</tspan></text>
  </g>
</svg>
