<svg version="1.1" id="domyslna_x5F_piosenka" xmlns="http://www.w3.org/2000/svg" xmlns:xlink="http://www.w3.org/1999/xlink"
	 x="0px" y="0px" width="291.971px" height="291.971px" viewBox="0 0 291.971 291.971" enable-background="new 0 0 291.971 291.971"
	 xml:space="preserve">
<path id="L2" d="M190.626,184.647c0,9.135-6.815,16.434-17.469,19.112c-11.679,2.906-22.948-1.998-25.203-10.939
	c-2.223-8.993,5.416-18.592,17.094-21.521c5.27-1.313,10.461-1.067,14.82,0.504v-66.565l-59.715,10.931l-0.277,82.809h-0.021
	c-0.063,7.831-7.139,15.514-17.298,18.044c-11.539,2.93-23.654-2.596-24.927-10.813c-2.231-8.868,5.342-18.39,16.894-21.307
	c5.245-1.261,10.3-1.015,14.583,0.461V87.32l81.52-13.205V184.647z M0.003,0v291.969H291.97V0H0.003z M286.018,286.016H5.955V5.952
	h280.063V286.016L286.018,286.016z"/>
</svg>
