<svg version="1.1" id="domyslna_x5F_piosenka" xmlns="http://www.w3.org/2000/svg" xmlns:xlink="http://www.w3.org/1999/xlink"
	 x="0px" y="0px" width="291.971px" height="291.971px" viewBox="0 0 291.971 291.971" enable-background="new 0 0 291.971 291.971"
	 xml:space="preserve">
<path id="l2" fill="#FFFFFF" d="M-1-1v291.971h291.968V-1H-1z M188.623,182.647c0,9.136-6.815,16.435-17.471,19.112
	c-11.678,2.906-22.946-1.998-25.201-10.939c-2.225-8.992,5.416-18.592,17.094-21.521c5.27-1.313,10.461-1.067,14.82,0.504v-66.565
	l-59.717,10.932l-0.275,82.809h-0.021c-0.063,7.831-7.138,15.515-17.297,18.044c-11.539,2.931-23.654-2.596-24.928-10.813
	c-2.231-8.868,5.344-18.391,16.894-21.308c5.245-1.261,10.299-1.015,14.583,0.461V85.32l81.521-13.203L188.623,182.647z"/>
<linearGradient id="l3_2_" gradientUnits="userSpaceOnUse" x1="144.9861" y1="472.0725" x2="144.9861" y2="-159.5156">
	<stop  offset="0" style="stop-color:#231F20"/>
	<stop  offset="1.587944e-006" style="stop-color:#231F20;stop-opacity:0.9104"/>
	<stop  offset="0.7752" style="stop-color:#231F20;stop-opacity:0"/>
</linearGradient>
<path id="l3_1_" fill="url(#l3_2_)" d="M-0.999-1v291.97h291.97V-1H-0.999z M189.956,183.814c0,9.136-6.814,16.435-17.471,19.112
	c-11.678,2.906-22.945-1.998-25.201-10.939c-2.224-8.992,5.416-18.592,17.094-21.521c5.27-1.313,10.461-1.067,14.82,0.504v-66.565
	l-59.716,10.932l-0.275,82.809h-0.021c-0.063,7.831-7.138,15.515-17.297,18.044c-11.539,2.931-23.654-2.596-24.928-10.813
	c-2.231-8.868,5.344-18.391,16.894-21.308c5.245-1.261,10.299-1.015,14.583,0.461V86.487l81.521-13.203L189.956,183.814z"/>
</svg>
