<?xml version="1.0" encoding="utf-8"?>
<!-- Generator: Adobe Illustrator 15.0.0, SVG Export Plug-In . SVG Version: 6.00 Build 0)  -->
<!DOCTYPE svg PUBLIC "-//W3C//DTD SVG 1.1//EN" "http://www.w3.org/Graphics/SVG/1.1/DTD/svg11.dtd">
<svg version="1.1" id="DRUKUJ" xmlns="http://www.w3.org/2000/svg" xmlns:xlink="http://www.w3.org/1999/xlink" x="0px" y="0px"
	 width="113.391px" height="113.391px" viewBox="0 0 113.391 113.391" enable-background="new 0 0 113.391 113.391"
	 xml:space="preserve">
<path id="_x31_" d="M20.919,38.154h69.603v27.5H20.919V38.154z M112.502,36.512c-1.588-1.573-4.923-1.395-4.923-1.395H92.563V67.75
	H18.476V35.117L5.045,35.104c0,0-2.94-0.187-4.235,0.971c-1.309,1.167-1.05,5.146-1.05,5.146v36.101v3.041v11.626h21.16V78.03H92.11
	v13.958h21.271V80.362h0.002l0.013-39.142C113.396,41.22,113.624,37.62,112.502,36.512z M101.827,57.937
	c1.801,0,3.262,1.456,3.262,3.253c0,1.792-1.461,3.248-3.262,3.248c-1.804,0-3.264-1.455-3.264-3.248
	C98.564,59.393,100.024,57.937,101.827,57.937z M89.806,79.648c-21.811,0-43.619,0-65.43,0c-0.593,0-2.042,0.308-2.041,1.104
	c0.004,5.743,0.008,11.485,0.013,17.229c0.002,4.047-1.701,12.399,1.697,15.513c1.752,1.604,7.451,0.65,9.419,0.65
	c7.341,0,14.681,0,22.02,0c7.444,0,14.889,0,22.333,0c3.212,0,7.086,0.597,10.161-0.616c4.176-1.646,2.686-9.15,2.686-12.519
	c0-6.792,0-13.584,0-20.376c0-0.22,0-0.438,0-0.659c0-0.713-2.897-0.222-2.897,0.776c0,9.889,0.533,19.921-0.012,29.792
	c-0.205,3.708-7.817,2.173-10.183,2.173c-6.968,0-13.935,0-20.901,0c-6.879,0-13.758,0-20.638,0c-3.16,0-9.763,1.487-10.766-2.859
	c-1.013-4.39-0.02-10.134-0.021-14.61c-0.004-5.091-0.008-10.181-0.012-15.271c-0.68,0.367-1.36,0.734-2.041,1.104
	c21.81,0,43.618,0,65.429,0C89.562,81.076,91.753,79.648,89.806,79.648z M28.29,102.146 M88.609,21.318
	C83.7,16.393,78.791,11.467,73.88,6.544c-2.384-2.392-5.427-7.309-9.173-7.309c-13.901,0-27.806,0-41.708,0
	c-0.167,0-0.305,0.098-0.305,0.271c-0.007,12.069-0.013,24.14-0.021,36.208c0,0.719,1.346,1.257,1.912,1.258
	c21.355,0.027,42.71,0.055,64.063,0.083c0.168,0,0.306-0.098,0.306-0.271c0-4.973,0-9.944,0-14.917c0-0.73-2.218-1.711-2.218-0.986
	c0,3.284,0,6.568,0,9.853c0,1.582,0,3.164,0,4.746c0,0.159,0.373,0.048-0.646,0.047c-6.634-0.009-13.267-0.019-19.898-0.025
	c-14.402-0.02-28.807-0.038-43.209-0.057c0.638,0.42,1.273,0.839,1.912,1.258c0.005-10.123,0.01-20.244,0.017-30.366
	c0.001-1.767,0.002-3.53,0.003-5.297c0-0.634-0.272-0.274,1.076-0.274c5.191,0,10.385,0,15.576,0c6.18,0,12.356,0,18.536,0
	c1.953,0,3.905,0,5.859,0c2.75,0-0.904-1.429,0.514-0.006c6.869,6.892,13.737,13.781,20.606,20.673
	C87.624,21.975,89.754,22.466,88.609,21.318z M87.846,21.524L66.538,0v21.523H87.846 M84.389,86.321H28.764v1.75h55.625V86.321z
	 M84.389,95.446H28.764v1.75h55.625V95.446z M84.389,105.321H28.764v1.75h55.625V105.321z"/>
</svg>
