<?xml version="1.0" encoding="iso-8859-1"?>
<!-- Generator: Adobe Illustrator 17.0.2, SVG Export Plug-In . SVG Version: 6.00 Build 0)  -->
<!DOCTYPE svg PUBLIC "-//W3C//DTD SVG 1.1//EN" "http://www.w3.org/Graphics/SVG/1.1/DTD/svg11.dtd">
<svg version="1.1" id="Capa_1" xmlns="http://www.w3.org/2000/svg" xmlns:xlink="http://www.w3.org/1999/xlink" x="0px" y="0px"
	 width="64px" height="64px" viewBox="0 0 64 64" style="enable-background:new 0 0 64 64;" xml:space="preserve">
<g>
	<path style="fill:#010202;" d="M60.242,41.488c-1.966-2.36-3.931-4.72-5.896-7.081c-5.187-6.228-10.373-12.455-15.56-18.683
		c-2.094-2.514-4.722-7.84-8.497-5.681c-0.058,0.024-0.112,0.052-0.162,0.084c-0.006,0.003-0.011,0.005-0.017,0.008
		c-0.009,0.006-0.015,0.011-0.023,0.017c-0.018,0.012-0.036,0.024-0.052,0.038c-0.157,0.112-0.252,0.22-0.285,0.319
		C21.874,19.968,13.997,29.427,6.12,38.886c-1.107,1.33-7.251,6.706-4.132,8.644c2.423,1.506,7.903,0.377,10.514,0.377
		c14.495,0,28.989,0,43.484,0c2.294,0,7.71,0.718,6.838-3.214C62.634,43.831,60.843,42.209,60.242,41.488z M49.003,30.947
		c0.214,0.256,0.427,0.512,0.64,0.768c-0.091,0.068-0.173,0.163-0.238,0.291c-0.94,1.837-1.901,3.664-2.891,5.475
		c-0.265,0.485-0.328,0.457-0.133-0.06c0.765-2.022,1.59-4.017,2.424-6.004C48.877,31.245,48.942,31.089,49.003,30.947z
		 M41.719,22.61c0.046-0.09,0.069-0.196,0.088-0.304c0.074,0.089,0.148,0.179,0.224,0.268c-0.104,0.116-0.209,0.233-0.31,0.352
		C41.499,23.187,41.498,23.044,41.719,22.61z M38.926,18.543c0.107,0.14,0.212,0.277,0.314,0.413
		c-0.167,0.05-0.328,0.156-0.45,0.352c-0.295,0.473-0.59,0.946-0.884,1.419c-0.291,0.469-0.293,0.468-0.01-0.006
		c0.291-0.487,0.58-0.975,0.865-1.465C38.882,19.05,38.927,18.796,38.926,18.543z M35.03,13.727c0.48,0.543,0.976,1.131,1.47,1.734
		c-0.228,0.006-0.464,0.122-0.646,0.361c-1.334,1.75-2.654,3.512-3.954,5.288c-0.326,0.446-0.385,0.411-0.134-0.081
		c1.086-2.13,2.141-4.276,3.153-6.441C35.035,14.34,35.069,14.029,35.03,13.727z M4.048,46.602c-2.846,0,1.009-4.038,1.157-4.215
		c2.09-2.51,4.18-5.02,6.271-7.529c1.666-2,3.331-4.001,4.997-6.001c-3.373,5.909-6.76,11.81-10.086,17.745
		C5.606,46.602,4.827,46.602,4.048,46.602z M10.005,46.602c7.167-11.639,13.187-24.067,21.06-35.174
		c0.083-0.116,0.144-0.223,0.187-0.317c0.06-0.073,0.121-0.145,0.182-0.218c0.468-0.18,1.392,0.522,2.502,1.654
		c-0.154,0.053-0.297,0.168-0.392,0.38c-3.971,8.778-8.657,17.214-13.466,25.593c-1.674,2.664-3.291,5.363-4.873,8.081
		C13.471,46.602,11.738,46.602,10.005,46.602z M17.526,46.602c1.559-2.713,3.123-5.424,4.682-8.138
		c4.599-7.32,9.538-14.427,14.747-21.322c0.175-0.232,0.259-0.52,0.262-0.794c0.274,0.345,0.546,0.69,0.812,1.03
		c-0.19,0.032-0.371,0.159-0.499,0.389c-4.111,7.384-9.044,14.335-13.372,21.589c-1.433,2.401-2.842,4.819-4.239,7.246
		C19.121,46.602,18.324,46.602,17.526,46.602z M22.01,46.602c2.073-3.604,4.178-7.187,6.348-10.721
		c2.476-4.034,5.091-7.984,7.597-11.994c0.292-0.468,0.294-0.469,0.005,0.002c-4.646,7.565-9.262,15.149-13.912,22.713
		C22.034,46.602,22.022,46.602,22.01,46.602z M26.621,46.602c-0.825,0-1.649,0-2.474,0c5.294-8.61,10.54-17.25,15.842-25.856
		c0.102-0.167,0.15-0.365,0.174-0.566c0.175,0.233,0.336,0.449,0.482,0.644c-0.112,0.067-0.216,0.162-0.293,0.314
		c-3.24,6.358-6.527,12.692-9.979,18.928c-1.025,1.83-2.049,3.651-3.105,5.426C27.049,45.86,26.835,46.231,26.621,46.602z
		 M29.122,46.602c3.071-4.657,6.138-9.316,9.223-13.965c0.305-0.46,0.376-0.422,0.151,0.082c-0.471,1.052-0.965,2.092-1.483,3.119
		c-2.145,3.629-4.345,7.224-6.629,10.764C29.963,46.602,29.542,46.602,29.122,46.602z M32.726,46.602
		c2.432-3.618,4.7-7.328,6.645-11.202c1.776-3.012,3.528-6.041,5.284-9.068c0.074-0.129,0.12-0.277,0.146-0.432
		c0.95,1.141,1.9,2.281,2.85,3.422c-0.093,0.067-0.178,0.161-0.245,0.29c-0.598,1.137-1.202,2.27-1.814,3.399
		c-2.698,4.504-5.347,9.038-7.961,13.591C35.995,46.602,34.36,46.602,32.726,46.602z M42.017,43.602c-0.352,1.002-0.707,2-1.064,3
		c-0.26,0-0.52,0-0.78,0c0.134-0.248,0.267-0.497,0.402-0.744c0.427-0.775,0.855-1.551,1.285-2.326
		C42.128,43.05,42.199,43.081,42.017,43.602z M43.298,46.602c0.042-0.067,0.083-0.135,0.125-0.201
		c2.637-4.137,5.057-8.414,7.33-12.772c0.066-0.128,0.108-0.273,0.13-0.426c0.135,0.163,0.271,0.325,0.405,0.487
		c-0.09,0.068-0.172,0.164-0.236,0.292c-2.108,4.184-4.165,8.396-6.199,12.62C44.334,46.602,43.816,46.602,43.298,46.602z
		 M46.981,46.602c1.776-3.689,3.568-7.369,5.398-11.029c0.063-0.128,0.103-0.273,0.124-0.424c0.702,0.844,1.405,1.687,2.108,2.53
		c-0.026,0.032-0.061,0.051-0.081,0.094c-0.106,0.223-0.211,0.446-0.316,0.669c-1.267,2.694-2.462,5.421-3.632,8.16
		C49.381,46.602,48.182,46.602,46.981,46.602z M59.184,43.711c-0.422,0.964-0.848,1.928-1.274,2.891c-1.478,0-2.956,0-4.435,0
		c1.046-1.964,2.105-3.921,3.181-5.87c0.071-0.129,0.114-0.276,0.139-0.43c0.864,1.037,1.728,2.074,2.592,3.111
		C59.308,43.487,59.238,43.586,59.184,43.711z M60.115,46.482c0.161-0.362,0.321-0.723,0.482-1.085
		c0.026-0.061,0.047-0.117,0.071-0.175C60.975,45.917,60.771,46.308,60.115,46.482z"/>
</g>
</svg>
