<?xml version="1.0" encoding="utf-8"?>
<!-- Generator: Adobe Illustrator 15.0.0, SVG Export Plug-In . SVG Version: 6.00 Build 0)  -->
<!DOCTYPE svg PUBLIC "-//W3C//DTD SVG 1.1//EN" "http://www.w3.org/Graphics/SVG/1.1/DTD/svg11.dtd">
<svg version="1.1" id="EDYTUJ" xmlns="http://www.w3.org/2000/svg" xmlns:xlink="http://www.w3.org/1999/xlink" x="0px" y="0px"
	 width="113.39px" height="113.39px" viewBox="0 0 113.39 113.39" enable-background="new 0 0 113.39 113.39" xml:space="preserve">
<g id="RACZKA">
	<g>
		<g>
			<path fill="#010101" d="M72.506,42.28c-2.255-1.84-5.246-2.871-8.14-2.89c-0.176-0.001-0.313,0.202-0.364,0.343
				c-0.822,2.258-3.525,7.559,0.657,8.086c1.679,0.212,3.07,0.927,4.444,1.845c0.809,0.54,1.657-0.536,1.998-1.117
				c0.756-1.296,1.121-2.903,1.632-4.31c0.218-0.595-0.305-2.821-0.729-1.657c-0.479,1.313-0.867,2.712-1.455,3.979
				c-0.753,1.623-2.05,0.157-3.136-0.315c-0.389-0.17-4.032-0.998-4.018-1.165c0.035-0.378-0.066,0.158,0.038-0.13
				c0.165-0.451,0.329-0.902,0.493-1.353c0.197-0.542,0.395-1.084,0.591-1.626c0.287-0.79,0.203-0.25,1.038-0.195
				c2.349,0.154,4.852,1.275,6.676,2.763C72.745,44.957,73.084,42.75,72.506,42.28z"/>
		</g>
	</g>
	<g>
		<path fill="#010101" d="M83.362,0.485c-2.479-0.902-3.955-0.322-3.955-0.322L65.38,38.913c5.237,0.83,7.271,2.532,7.271,2.532
			l14.03-38.546C86.68,2.898,85.926,1.417,83.362,0.485z M67.193,37.478L80.138,1.171c1.015-0.33,1.91,0.113,1.91,0.113
			S67.523,38.189,67.193,37.478z"/>
	</g>
</g>
<g id="KIJ">
	<g>
		<g>
			<path fill="#010101" d="M62.698,48.666c-1.103,2.663-2.203,5.324-3.306,7.987c-0.925,2.236-1.649,4.132,0.083,6.289
				c0.979,1.219,3.161,2.176,4.444,3.021c2.61,1.722,5.214,3.458,7.817,5.192c6.286,4.188,12.563,8.389,18.84,12.592
				c1.942,1.302,3.885,2.604,5.826,3.905c0.966,0.647,0.382,0.531,0.655-0.211c-0.416,1.127-0.83,2.255-1.247,3.381
				c-0.885,2.397-1.769,4.795-2.652,7.195c0.419-0.234,0.838-0.467,1.259-0.699c-0.618-0.239-1.237-0.477-1.856-0.716
				c-0.61-0.232-1.208,0.347-1.313,0.912c-0.287,1.547-0.901,3.159-1.472,4.625c-0.115,0.3-0.067,0.728,0.272,0.862
				c2.484,0.989,6.212,3.213,7.845-0.197c1.41-2.945,2.264-6.239,3.315-9.325c0.714-2.089,1.805-4.316,2.128-6.517
				c0.362-2.454-2.293-3.493-3.983-4.578c-11.187-7.17-22.011-14.949-32.92-22.532c-0.503-0.351-1.008-0.702-1.512-1.052
				c-0.46-0.319,0.162,0.033-0.078,0.587c0.161-0.371,0.321-0.744,0.483-1.115c1.101-2.549,2.204-5.099,3.306-7.648
				c0.106-0.248,0.075-0.557-0.114-0.755c-1.24-1.289-3.011-1.844-4.749-1.952c-0.877-0.055-1.69,1.591-0.615,1.658
				c1.029,0.063,1.923,0.279,2.844,0.733c0.309,0.165,0.597,0.359,0.863,0.583c0.6,0.469-0.052,0.244,0.228-0.403
				c-0.361,0.836-0.722,1.672-1.083,2.508c-0.903,2.086-1.805,4.171-2.704,6.256c-0.09,0.21-0.104,0.605,0.113,0.755
				c9.719,6.77,19.449,13.524,29.262,20.157c2.003,1.354,4.005,2.71,6.044,4.009c0.741,0.472,1.564,0.878,2.253,1.42
				c1.079,0.854,0.687,1.885,0.342,2.901c-1.109,3.276-2.224,6.552-3.351,9.822c-0.415,1.201-0.823,2.409-1.269,3.6
				c-0.801,2.151-4.333,0.055-5.662-0.475c0.091,0.287,0.183,0.574,0.272,0.861c0.624-1.608,1.262-3.353,1.576-5.051
				c-0.438,0.304-0.874,0.607-1.312,0.911c0.619,0.239,1.238,0.477,1.857,0.715c0.518,0.2,1.083-0.222,1.259-0.699
				c1.303-3.531,2.605-7.064,3.909-10.598c0.078-0.212,0.11-0.604-0.114-0.755c-8.579-5.755-17.163-11.503-25.76-17.233
				c-3.634-2.422-7.23-4.937-10.949-7.227c-2.835-1.747-1.493-3.998-0.547-6.287c1.002-2.417,2.002-4.835,3.001-7.252
				C64.698,47.693,63.063,47.779,62.698,48.666z"/>
		</g>
	</g>
	<g>
		<path fill="#010101" d="M64.126,50.042l-3.665,9.202c0,0-0.194,0.888,0.132,1.585l4.39-10.561
			C64.982,50.269,65.038,49.864,64.126,50.042z"/>
		<g>
			<path fill="#010101" d="M64.054,49.876c-0.841,2.112-1.683,4.225-2.524,6.337c-0.636,1.599-1.531,2.997-1.026,4.734
				c0.025,0.088,0.109,0.175,0.163,0.047c1.05-2.527,2.102-5.056,3.152-7.584c0.362-0.869,2.347-3.759,0.308-3.602
				c-0.15,0.012-0.139,0.479,0,0.469c0.851-0.066,0.87-0.381,0.661,0.123c-0.147,0.355-0.296,0.711-0.443,1.067
				c-0.433,1.042-0.867,2.085-1.301,3.127c-0.816,1.967-1.636,3.934-2.452,5.9c-0.241,0.575,0.102-1.479,0.229-1.802
				c0.439-1.098,0.875-2.195,1.312-3.292c0.689-1.731,1.378-3.46,2.067-5.192C64.247,50.089,64.146,49.645,64.054,49.876z"/>
		</g>
	</g>
	<g>
		<path fill="#010101" d="M95.28,97.369c0,0-0.677,2.974,0.499,0.225c1.388-3.249,2.792-7.286,3.252-8.585
			c0.348-0.981-0.233-1.225-0.639-0.148C97.144,92.188,95.28,97.369,95.28,97.369z"/>
		<g>
			<path fill="#010101" d="M95.235,97.357c-0.069,0.312-0.369,1.137-0.149,1.425c0.016,0.018,0.03,0.024,0.054,0.021
				c0.398-0.061,0.711-1.257,0.828-1.535c0.559-1.318,1.071-2.655,1.574-3.994c0.44-1.175,0.863-2.354,1.281-3.537
				c0.146-0.413,0.622-1.235,0.204-1.606c-0.393-0.347-1.906,4.036-2.042,4.403C96.396,94.14,95.813,95.747,95.235,97.357
				c-0.021,0.057,0.069,0.081,0.09,0.024c0.395-1.1,0.793-2.198,1.193-3.295c0.377-1.039,0.757-2.076,1.139-3.114
				c0.188-0.511,0.377-1.021,0.567-1.529c0.109-0.305,0.233-0.606,0.366-0.902c0.131,0.152,0.264,0.305,0.395,0.456
				c-0.037,0.106-0.075,0.213-0.112,0.319c-0.722,2.046-1.463,4.085-2.254,6.104c-0.283,0.721-0.579,1.438-0.883,2.151
				c-0.042,0.103-0.602,1.055-0.604,0.995c-0.01-0.388,0.107-0.807,0.192-1.184C95.338,97.322,95.247,97.298,95.235,97.357z"/>
		</g>
	</g>
</g>
<g id="WALEK">
	<g id="W1">
		<g>
			<path fill="#010101" d="M18.527,65.962c-3.308,6.404-7.596,14.976-4.664,22.196c1.636,4.026,5.859,5.198,9.551,6.587
				c13.29,4.997,26.689,9.711,40.065,14.473c3.395,1.208,6.788,2.415,10.184,3.617c2.49,0.882,5.343,0.71,7.777-0.233
				c4.938-1.917,6.702-7.772,8.419-12.268c1.428-3.742,2.77-7.394,2.254-11.438c-0.474-3.701-2.912-6.257-6.277-7.577
				c-5.124-2.008-10.313-3.852-15.479-5.74c-10.772-3.937-21.559-7.841-32.346-11.735c-2.306-0.834-4.611-1.665-6.917-2.497
				C26.204,59.584,20.936,61.152,18.527,65.962c-1.368,2.729,2.545,3.429,3.645,1.236c2.157-4.307,6.185-2.264,9.602-1.031
				c6.022,2.173,12.042,4.35,18.062,6.531c7.41,2.687,14.82,5.377,22.219,8.091c2.769,1.017,5.538,2.034,8.3,3.069
				c1.87,0.699,3.946,1.269,5.507,2.553c3.14,2.579,2.03,7.374,0.958,10.606c-0.848,2.552-1.842,5.06-2.911,7.524
				c-0.947,2.186-1.896,4.383-4.441,4.877c-2.751,0.534-6.032-1.226-8.526-2.11c-13.36-4.747-26.72-9.497-40.03-14.385
				c-2.514-0.922-5.027-1.849-7.525-2.812c-0.706-0.273-1.412-0.549-2.108-0.843c-0.173-0.072-0.345-0.147-0.514-0.229
				c0.866,0.42-0.495-0.384-0.669-0.499c-6.702-4.443-0.367-16.607,2.078-21.342C23.575,64.482,19.652,63.782,18.527,65.962z"/>
		</g>
	</g>
	<g id="W2">
		<path fill="#010101" d="M21.684,85.052c0,0-2.689-0.813-3.243-2.867c-0.161-0.598,0.384,4.773,3.238,5.747
			c2.854,0.976,55.244,20.082,55.244,20.082s3.393,0.104,5.258-2.373c0,0-0.968,1.429-6.454-0.604"/>
	</g>
</g>
</svg>
