<?xml version="1.0" encoding="utf-8"?>
<?xml-stylesheet type="text/css" href="edytuj.css" ?>
<!-- Generator: Adobe Illustrator 15.0.0, SVG Export Plug-In . SVG Version: 6.00 Build 0)  -->
<!DOCTYPE svg PUBLIC "-//W3C//DTD SVG 1.1//EN" "http://www.w3.org/Graphics/SVG/1.1/DTD/svg11.dtd">
<svg version="1.1" xmlns="http://www.w3.org/2000/svg" xmlns:xlink="http://www.w3.org/1999/xlink" x="0px" y="0px"
	 width="500px" height="500px" viewBox="0 0 255.12 255.12" enable-background="new 0 0 255.12 255.12" xml:space="preserve">

<g id="RACZKA">
	<g>
		<path fill="#FFFFFF" d="M110.183,100.572l-0.166-94.54c0,0,2.713-2.398,8.747-2.4c6.225-0.002,9.004,2.589,9.004,2.589v94.589
			C127.769,100.811,122.072,98.262,110.183,100.572z"/>
		<g>
			<path d="M111.683,100.572c-0.043-24.874-0.087-49.747-0.131-74.62c-0.009-5.393-0.019-10.786-0.028-16.179
				c-0.002-1.133-0.004-2.265-0.006-3.397c0-0.354-0.04-0.279,0.276-0.511c3.868-2.837,9.894-2.476,13.895-0.035
				c1.441,0.879,0.58,5.547,0.58,7.032c0,6.159,0,12.318,0,18.477c0,23.158,0,46.315,0,69.472c0.932-0.052,1.863-0.103,2.795-0.155
				c-5.985-2.539-13.819-1.393-19.941-0.301c-1.266,0.226,1.652,0.518,2.121,0.434c4.725-0.842,10.596-1.789,15.23,0.177
				c0.31,0.131,2.795,0.363,2.795-0.155c0-24.887,0-49.773,0-74.66c0-5.396,0-10.792,0-16.187c0-3.301,0.519-3.917-2.793-5.369
				c-3.016-1.322-6.946-1.55-10.179-1.16c-1.064,0.128-7.782,0.95-7.779,2.598c0.004,2.586,0.009,5.173,0.014,7.759
				c0.051,28.927,0.101,57.854,0.152,86.78C108.684,101.029,111.684,101.026,111.683,100.572z"/>
		</g>
	</g>
	<g>
		<path fill="#FFFFFF" d="M128.7,104.376c0,0-9.926-3.565-19.407,0.14v9.044c0,0,0,5.179,4.74,3.939
			c2.03-0.53,7.863-1.187,11.051,0.102c3.308,1.337,3.616-3.683,3.616-3.683V104.376z"/>
		<g>
			<path d="M128.846,103.171c-6.329-2.2-13.42-2.086-19.699,0.14c-0.362,0.128-0.404,0.918-0.404,1.206
				c0,3.181-0.295,6.494,0.033,9.66c0.137,1.317,0.511,3.067,1.63,3.929c2.126,1.639,5.244,0.27,7.679,0.066
				c1.745-0.146,3.485-0.057,5.214,0.189c1.483,0.21,2.43,0.98,3.891,0.436c1.404-0.523,1.809-2.935,2.001-4.179
				c0.51-3.289,0.058-6.916,0.058-10.241c0-1.486-1.1-1.486-1.1,0c0,2.817,0,5.635,0,8.452c0,1.175,0.086,2.512-1.252,3.557
				c-0.866,0.676-2.622-0.307-3.599-0.525c-1.354-0.302-2.799-0.26-4.175-0.241c-2.952,0.04-9.282,2.611-9.282-2.369
				c0-2.912,0-5.823,0-8.734c-0.134,0.402-0.269,0.804-0.404,1.206c6.026-2.138,13.031-2.255,19.115-0.14
				C129.392,105.873,129.53,103.409,128.846,103.171z"/>
		</g>
	</g>
	<g>
		<g>
			<path d="M112.155,7.625c0.193,29.354,0.385,58.708,0.578,88.063c0.001,0.129,0.017,0.415,0.162,0.482
				c0.456,0.213,1.129-9.073,1.168-9.787c0.566-10.297,0.906-20.608,1.257-30.914c0.559-16.362,1.039-32.728,1.463-49.094
				c0.003-0.132-0.028-0.489-0.22-0.5c-1.626-0.09-2.87,0.438-4.246,1.268c-0.267,0.161-0.154,1.127,0.117,0.964
				c1.009-0.608,3.894-1.138,3.906-1.602c-0.009,0.335-0.018,0.671-0.027,1.007c-0.045,1.734-0.092,3.468-0.14,5.202
				c-0.168,6.195-0.345,12.391-0.528,18.586c-0.465,15.709-0.951,31.42-1.637,47.122c-0.221,5.045-0.397,10.109-0.877,15.139
				c-0.042,0.445,0.045,2.557,0.04,1.763c-0.009-1.346-0.018-2.692-0.027-4.038c-0.09-13.706-0.18-27.412-0.27-41.119
				c-0.093-14.18-0.186-28.361-0.279-42.542C112.591,7.031,112.151,7.03,112.155,7.625z"/>
		</g>
	</g>
</g>
<g id="KIJ">
	<g>
		<path fill="#FFFFFF" d="M114.503,120.611v27.136c0,0-0.575,7.41,6.762,8.701c4.792,0.843,91.282,22.313,91.282,22.313
			l-0.111,25.808l-4.545-0.083c0,0,0.102,0.417,0.328,5.376c0.225,4.959,0.18,6.202,0.18,6.202s8.189,0.252,10.955,0
			c1.672-0.152,3.631-1.728,3.727-5.585c0.096-3.856-0.615-34.85-0.615-34.85s0.357-5.292-6.764-6.109
			c-6.998-0.803-90.717-23.666-90.717-23.666l-0.499-25.104C124.485,120.75,120.477,118.471,114.503,120.611z"/>
		<g>
			<path d="M113.194,120.822c0,5.669,0,11.339,0,17.008c0,4.315-0.672,9.32,0.381,13.576c1.229,4.968,5.635,5.979,9.937,6.97
				c5.194,1.197,10.372,2.469,15.552,3.728c24.349,5.919,48.672,11.947,72.991,17.984c-0.272-0.372-0.545-0.744-0.817-1.116
				c-0.037,8.603-0.074,17.205-0.111,25.808c0.6-0.512,1.2-1.023,1.8-1.536c-1.515-0.027-3.03-0.056-4.545-0.083
				c-0.922-0.017-1.975,0.859-1.8,1.863c0.627,3.597,0.594,7.605,0.508,11.251c-0.013,0.513,0.202,1.098,0.817,1.116
				c5.957,0.177,14.265,2.053,16.249-5.265c0.578-2.135,0.236-4.79,0.209-6.977c-0.052-4.166-0.136-8.332-0.217-12.498
				c-0.108-5.475-0.532-12.556-0.372-17.31c0.183-5.418-5.115-6.603-9.339-7.458c-27.533-5.58-54.691-14.045-81.79-21.406
				c-1.991-0.541-3.983-1.083-5.974-1.626c-0.295-0.08-0.591-0.161-0.886-0.241c0.672,0.184,0.512,1.095,0.489-0.069
				c-0.014-0.697-0.028-1.396-0.042-2.094c-0.147-7.411-0.294-14.823-0.442-22.234c-0.006-0.316-0.259-0.576-0.519-0.711
				c-3.417-1.784-7.429-1.159-10.944-0.11c-1.504,0.448-1.529,2.998,0.346,2.438c2.893-0.863,5.711-1.137,8.554-0.052
				c0.223,0.085-0.061-0.833-0.03,0.699c0.056,2.805,0.112,5.609,0.167,8.414c0.103,5.167,0.206,10.333,0.308,15.5
				c0.005,0.267,0.252,0.639,0.519,0.711c24.789,6.77,49.594,13.505,74.492,19.861c4.904,1.252,9.813,2.538,14.769,3.572
				c2.886,0.602,5.91,0.771,7.37,3.779c0.578,1.191,0.356,2.931,0.386,4.259c0.174,7.77,0.339,15.539,0.472,23.31
				c0.049,2.84,0.117,5.683,0.094,8.523c-0.053,6.3-7.976,4.46-12.354,4.347c-0.178-0.005-0.354-0.01-0.532-0.016
				c0.272,0.372,0.545,0.744,0.817,1.116c0.092-3.871,0.156-8.092-0.508-11.905c-0.601,0.621-1.2,1.242-1.8,1.863
				c1.515,0.027,3.03,0.056,4.545,0.083c0.789,0.015,1.797-0.656,1.8-1.536c0.037-8.603,0.074-17.205,0.111-25.808
				c0.003-0.613-0.208-0.965-0.817-1.116c-22.909-5.687-45.824-11.356-68.756-16.952c-5.523-1.349-11.048-2.692-16.58-4.007
				c-4.172-0.991-9.408-1.297-11.349-5.695c-1.622-3.677-0.541-9.578-0.541-13.371c0-5.67,0-11.34,0-17.009
				C115.813,118.527,113.194,119.36,113.194,120.822z"/>
		</g>
	</g>
	<g>
		<g>
			<path d="M116.667,123.25c0,5.308,0,10.616,0,15.924c0,3.861-0.755,8.042,1.704,11.319c0.214,0.286,0.329-0.318,0.331-0.432
				c0.093-6.155,0.186-12.312,0.279-18.467c0.042-2.828,0.085-5.656,0.128-8.484c0.023-1.561-1.195-0.874-2.28-0.342
				c-0.273,0.133-0.183,1.111,0.117,0.964c2.445-1.198,1.726-0.776,1.69,1.578c-0.041,2.722-0.082,5.444-0.124,8.166
				c-0.08,5.297-0.16,10.593-0.24,15.889c-0.037,2.436-1.165-3.197-1.165-4.271c0-2.606,0-5.214,0-7.82c0-4.675,0-9.349,0-14.023
				C117.108,122.656,116.667,122.656,116.667,123.25z"/>
		</g>
	</g>
	<g>
		<g>
			<path d="M214.742,201.027c0.044,0.789-0.145,2.563,0.419,3.186c0.039,0.043,0.102,0.034,0.142,0
				c0.806-0.689,0.429-3.79,0.473-4.703c0.155-3.301,0.208-6.607,0.237-9.912c0.022-2.606,0.012-5.212-0.009-7.818
				c-0.005-0.596,0.312-3.248-0.509-3.474c-0.992-0.273-0.764,10.192-0.766,11.239C214.723,193.372,214.727,197.2,214.742,201.027
				c0,0.129,0.2,0.129,0.199,0c-0.011-2.883-0.014-5.767-0.015-8.649c0-2.646,0.006-5.292,0.019-7.938
				c0.006-1.154,0.015-2.309,0.024-3.463c0.002-0.217,0.004-0.434,0.006-0.65c-0.335-1.039-0.106-1.491,0.686-1.357
				c0.188,0.513,0.13,1.342,0.135,1.934c0.046,5.089,0.04,10.178-0.099,15.266c-0.038,1.389-0.096,2.775-0.161,4.162
				c-0.041,0.865-0.574,2.796-0.3,3.602c-0.297-0.871-0.243-1.988-0.295-2.905C214.935,200.899,214.734,200.898,214.742,201.027z"/>
		</g>
	</g>
</g>
<g id="WALEK">
	<g id="W1">
		<path fill="#FFFFFF" d="M35.125,194.77c0,0-3.759,28.86,1.876,40.355c5.635,11.494,11.167,11.263,14.999,12.39
			s134.875-0.021,134.875-0.021s16.625,0.021,18.422-16.479c1.212-11.133,1.164-28.587,0.15-33.433s-5.297-16.793-17.355-17.355
			c-12.057-0.563-135.177-0.168-135.177-0.168S36.375,179.125,35.125,194.77z"/>
		<g>
			<path d="M33.266,195.086c-1.878,14.63-3.67,32.594,4.587,45.563c5.468,8.588,14.284,8.768,23.237,8.897
				c29.95,0.433,59.922,0.067,89.873-0.126c10.851-0.07,21.701-0.149,32.552-0.24c7.911-0.065,15.357-2.169,20.288-8.904
				c2.575-3.52,3.218-7.933,3.602-12.148c0.563-6.174,0.684-12.396,0.655-18.592c-0.035-7.703-0.381-14.821-4.325-21.617
				c-6.441-11.101-19.105-9.499-30.058-9.569c-30.937-0.198-61.877-0.093-92.814-0.025c-8.944,0.02-17.889,0.042-26.833,0.069
				C43.415,178.427,34.51,183.837,33.266,195.086c-0.253,2.292,3.511,1.233,3.718-0.633c1.287-11.639,10.87-12.719,20.162-12.746
				c12.438-0.035,24.875-0.063,37.312-0.085c29.637-0.051,59.295-0.31,88.93,0.163c7.169,0.114,12.893,1.883,17.005,8.332
				c4.808,7.539,4.045,17.211,3.919,25.74c-0.147,10.073,0.884,23.567-9.978,28.408c-2.466,1.099-5.158,1.551-7.84,1.573
				c-25.543,0.218-51.088,0.385-76.632,0.47c-18.182,0.06-36.438,0.446-54.612-0.25c-9.515-0.365-16.351-8.069-18.416-18.111
				c-2.21-10.75-1.241-22.665,0.15-33.494C37.276,192.173,33.505,193.228,33.266,195.086z"/>
		</g>
	</g>
	<g id="W2">
		<path fill="#000000" d="M50.136,188.129c0,0-6.447-0.386-9.24,3.606c-0.813,1.162,4.184-7.759,11.114-7.59
			s135.859,0.627,135.859,0.627s7,0.25,9.107,7.076c0,0-0.982-3.853-14.426-3.832"/>
	</g>
	<g id="W3">
		<g>
			<path d="M199.946,227.982c3.785-0.706,2.84-5.071-0.74-5.102c-4.036-0.033-8.073-0.047-12.109-0.065
				c-16.325-0.072-32.649-0.119-48.975-0.154c-19.89-0.044-39.781-0.066-59.671-0.041c-8.493,0.011-16.987,0.032-25.479,0.077
				c-2.537,0.014-13.899-1.549-14.481,1.613c-0.667,3.625,1.455,4.696,4.617,4.662c4.079-0.044,8.158-0.075,12.237-0.107
				c15.19-0.123,30.381-0.229,45.571-0.334C133.926,228.306,166.936,228.055,199.946,227.982c0.313-0.001,0.312-1.001,0-1
				c-35.29,0.077-70.581,0.351-105.871,0.596c-14.821,0.104-29.643,0.208-44.463,0.334c-1.845,0.016-3.69,0.032-5.536,0.05
				c-0.587,0.006-1.174,0.013-1.761,0.02c-1.756,0.02-3.956-4.164-1.996-4.187c7.05-0.079,14.1-0.109,21.15-0.135
				c28.255-0.104,56.51-0.05,84.765,0.02c12.145,0.029,24.29,0.067,36.436,0.117c3.871,0.016,7.742,0.033,11.613,0.054
				c1.251,0.007,2.501,0.014,3.752,0.022c0.471,0.003,0.941,0.006,1.412,0.01c0.141,0.002,0.281,0.003,0.422,0.004
				c0.611,0.006,8.02,1.613,0.076,3.096C199.614,227.044,199.676,228.033,199.946,227.982z"/>
		</g>
	</g>
	<g id="W4">
		<path d="M201.875,237.438c0,0,2.604-4.082-7.104-4.124c-15.308-0.066-113.267-0.047-145.021-0.146
			c-13.083-0.041-9.549,3.534-9.229,4.25c0.465,1.039,3.229,5.959,10.604,5.708c6.929-0.235,138.062,0.561,138.062,0.561
			S197.783,244.113,201.875,237.438z"/>
	</g>
</g>
</svg>
