<?xml version="1.0" encoding="iso-8859-1"?>
<!-- Generator: Adobe Illustrator 16.0.0, SVG Export Plug-In . SVG Version: 6.00 Build 0)  -->
<!DOCTYPE svg PUBLIC "-//W3C//DTD SVG 1.1//EN" "http://www.w3.org/Graphics/SVG/1.1/DTD/svg11.dtd">
<svg version="1.1" xmlns="http://www.w3.org/2000/svg" xmlns:xlink="http://www.w3.org/1999/xlink" x="0px" y="0px"
	 width="300.265px" height="300.756px" viewBox="0 0 24.265 24.756" style="enable-background:new 0 0 24.265 24.756;"
	 xml:space="preserve">
<g id="c187_arrow">
	<path id="_x3C_Group_x3E__5_" style="fill:#000000;" d="M11.983,0.003c-0.01,0-0.014,0-0.018,0c-0.008,0-0.008,0-0.01,0
		c0,0,0,0-0.003,0l0,0c-0.003,0-0.007,0-0.011,0c-0.002,0-0.002,0-0.002,0s0,0-0.004,0c-0.027-0.006-0.035-0.002-0.055-0.002
		c-3.203,0-6.319,1.27-8.622,3.503L0.726,0.933c-0.123-0.12-0.309-0.158-0.461-0.094C0.106,0.907,0,1.059,0,1.233v8.348
		c0,0.235,0.191,0.425,0.423,0.425h8.246c0.005,0,0.014,0,0.02,0c0.234,0,0.424-0.189,0.424-0.425c0-0.156-0.085-0.294-0.212-0.367
		L6.4,6.683c1.483-1.432,3.418-2.216,5.54-2.216c4.33,0.028,7.857,3.573,7.857,7.975c-0.033,4.326-3.58,7.847-7.98,7.847l0.01,4.468
		h0.061c6.779,0,12.333-5.518,12.377-12.376C24.265,5.606,18.761,0.06,11.983,0.003z"/>
</g>
</svg>
