<svg version="1.1" id="FILTR" xmlns="http://www.w3.org/2000/svg" xmlns:xlink="http://www.w3.org/1999/xlink" x="0px" y="0px"
	 width="113.391px" height="113.391px" viewBox="0 0 113.391 113.391" enable-background="new 0 0 113.391 113.391"
	 xml:space="preserve">
<path id="L1" fill="#010101" d="M41.426,90.469h-1.319v-1.132h1.319V90.469z M43.079,93.723h1.317V92.59h-1.317V93.723z
	 M42.732,100.324h1.319V99.19h-1.319V100.324z M51.973,68.306h-1.32v1.132h1.32V68.306z M42.919,85.8H41.6v1.133h1.319V85.8z
	 M40.2,95.89v1.132h1.32l-0.003-1.132H40.2z M38.173,86.665h-1.319v1.132h1.319V86.665z M38.078,80.11h-1.32v1.134h1.32V80.11z
	 M37.088,93.771h1.32v-1.132h-1.32V93.771z M40.467,76.464h-1.319v1.133h1.319V76.464z M40.374,69.91h-1.319v1.132h1.319V69.91z
	 M49.16,79.275h-1.32v1.135h1.32V79.275z M49.458,85.517h-1.319v1.132h1.319V85.517z M37.355,73.211h-1.317v1.132h1.317V73.211z
	 M46.063,69.203h-1.317v1.131h1.317V69.203z M49.553,92.073h-1.32v1.132h1.32V92.073z M48.72,99.144v1.132h1.32l-0.001-1.132H48.72z
	 M48.956,71.606h-1.321v1.135h1.321V71.606z M46.284,82.578h-1.32v1.132h1.32V82.578z M46.188,76.023H44.87v1.132h1.317V76.023z
	 M45.844,103.578h1.32v-1.135h-1.32V103.578z M47.068,95.89H45.75v1.132h1.317V95.89z M46.441,88.816h-1.317v1.135h1.317V88.816z
	 M41.049,83.365H39.73v1.132h1.319V83.365z M33.004,90.658h1.317v-1.135h-1.317V90.658z M30.566,80.615h1.32v-1.135h-1.32V80.615z
	 M43.172,79.324h-1.319v1.132h1.319V79.324z M30.034,87.404h1.317v-1.132h-1.317V87.404z M33.743,84.544h1.317v-1.132h-1.317V84.544
	z M43.344,73.163h-1.319v1.132h1.319V73.163z M31.792,72.927h-1.319v1.133h1.319V72.927z M34.762,76.181h-1.32v1.132h1.32V76.181z
	 M52.067,74.86h-1.317v1.134h1.317V74.86z M72.737,92.67h1.321v-1.132h-1.321V92.67z M73.475,78.255h-1.316v1.133h1.316V78.255z
	 M76.305,74.86h-1.32v1.134h1.32V74.86z M73.025,72.606h-1.317v1.135h1.317V72.606z M83.565,74.012h-1.316v1.132h1.316V74.012z
	 M83.188,80.456H81.87v1.132h1.319L83.188,80.456z M71.086,88.285h-1.318v1.132h1.318V88.285z M69.861,95.971h1.32v-1.133h-1.32
	V95.971z M67.438,78.302H66.12v1.133h1.317V78.302z M66.387,100.088h1.319v-1.131h-1.319V100.088z M67.534,84.857h-1.321v1.134
	h1.321V84.857z M66.75,92.718h1.316v-1.132H66.75V92.718z M75.127,82.642h1.318V81.51h-1.318V82.642z M70.41,81.556h-1.32v1.132
	h1.32V81.556z M76.495,89.447h1.317v-1.132h-1.317V89.447z M63.51,103.389h1.32v-1.133h-1.32V103.389z M88.71,68.34
	c0.823,2.906,1.274,5.969,1.275,9.135c0,8.938-3.514,17.064-9.219,23.087l-2.187,2.11c-5.928,5.225-13.696,8.407-22.202,8.407
	c-8.504,0-16.276-3.179-22.202-8.407l-2.138-2.11h-0.045c-5.707-6.023-9.223-14.148-9.223-23.087c0-3.19,0.457-6.273,1.291-9.2
	C10.069,64.214-0.192,51.29-0.192,36.005c0-18.528,15.074-33.604,33.604-33.604c8.937,0,17.063,3.514,23.088,9.222
	c6.024-5.706,14.149-9.222,23.088-9.222c18.529,0,33.604,15.076,33.604,33.604C113.192,51.372,102.82,64.354,88.71,68.34z
	 M48.999,36.006c0,2.93,0.42,5.762,1.197,8.444c2.004-0.374,4.067-0.579,6.179-0.579c2.194,0,4.338,0.218,6.415,0.622
	c0.785-2.695,1.211-5.542,1.211-8.487c0-7.649-2.843-14.634-7.501-20.003C51.842,21.372,48.999,28.359,48.999,36.006z
	 M58.609,58.207c5.482,5.185,12.857,8.387,20.979,8.387c0.98,0,1.948-0.051,2.905-0.142c-3.354-7.917-10.21-13.998-18.61-16.308
	C62.511,53.086,60.733,55.801,58.609,58.207z M60.845,49.484c-1.455-0.231-2.945-0.355-4.465-0.355c-1.442,0-2.859,0.11-4.244,0.318
	c1.173,2.375,2.644,4.58,4.364,6.562C58.211,54.038,59.675,51.846,60.845,49.484z M30.383,66.225
	c9.075-0.042,16.536-1.418,23.813-8.695c0,0-2.158-2.651-2.75-3.5c-0.859-1.233-1.9-3.532-2.107-3.995
	c-0.285,0.073-0.571,0.144-0.853,0.226c-0.174,0.051-0.35,0.099-0.522,0.153c-0.567,0.177-1.128,0.367-1.679,0.578
	c-0.097,0.037-0.191,0.08-0.288,0.118c-0.457,0.181-0.908,0.373-1.353,0.577c-0.2,0.091-0.398,0.187-0.596,0.283
	c-0.348,0.169-0.692,0.346-1.032,0.529c-0.196,0.105-0.394,0.208-0.587,0.318c-0.477,0.271-0.945,0.552-1.404,0.849
	c-0.191,0.124-0.375,0.257-0.562,0.385c-0.29,0.198-0.579,0.398-0.861,0.607c-0.226,0.167-0.449,0.338-0.67,0.511
	c-0.236,0.185-0.468,0.376-0.698,0.568c-0.222,0.186-0.446,0.37-0.663,0.562c-0.3,0.267-0.591,0.544-0.879,0.824
	c-0.303,0.293-0.597,0.594-0.886,0.9c-0.171,0.181-0.342,0.361-0.508,0.546c-0.223,0.248-0.441,0.5-0.654,0.756
	c-0.149,0.179-0.294,0.361-0.439,0.544c-0.514,0.646-1.006,1.31-1.463,1.999c0.001-0.001,0.002-0.003,0.002-0.004
	c-0.001,0.002-0.002,0.003-0.004,0.005c0,0,0.001,0,0.001-0.001c-0.87,1.313-1.629,2.704-2.274,4.157
	C30.438,66.09,30.412,66.157,30.383,66.225z M80.249,92.701h0.149v-0.115h-0.031v-0.078C80.327,92.572,80.29,92.638,80.249,92.701
	h-0.643v-1.135h1.318v0.028c-0.001,0.002-0.003,0.005-0.004,0.007h0.004v-0.007c0.555-0.957,1.048-1.952,1.489-2.976v-0.377h0.167
	c1.376-3.319,2.143-6.953,2.143-10.768c0-1.862-0.186-3.681-0.53-5.443h-0.187v-0.867c-0.139-0.605-0.294-1.205-0.471-1.796
	c-1.296,0.153-2.611,0.24-3.948,0.24c-8.938,0-17.065-3.513-23.088-9.22c-6.025,5.707-14.151,9.22-23.088,9.22
	c-1.418,0-2.813-0.099-4.187-0.271c-0.654,2.179-1.051,4.465-1.16,6.826h0.754v1.344h-0.79c0.002,1.928,0.206,3.807,0.578,5.625
	h0.337v1.344h-0.031c1.076,4.191,3.094,8.005,5.806,11.219h0.569v0.654c0.169,0.19,0.337,0.382,0.513,0.567l1.841,1.767l0.213,0.168
	h0.464v0.365l2.031,1.598v-0.213h1.406v0.108h0.03v1.001c-0.01-0.006-0.02-0.013-0.03-0.02v0.15h0.03v-0.131
	c2.181,1.325,4.554,2.355,7.063,3.058v-0.823h1.563v1.222c1.326,0.289,2.685,0.489,4.074,0.583v-0.506h1.32v0.558
	c0.189,0.004,0.375,0.022,0.565,0.022c1.352,0,2.678-0.108,3.978-0.296v-0.458h1.531v0.183c2.748-0.553,5.349-1.505,7.75-2.795
	v-0.419h0.764c0.664-0.382,1.319-0.777,1.949-1.211l0.966-0.771h-0.386h-0.074v-1.175h1.394v0.042v0.388l1.123-0.896l0.018,0.003
	l1.565-1.503c0.045-0.046,0.086-0.096,0.13-0.144h-0.011v-0.017h-1.127v-1.132h1.32v0.898h0.04
	C78.387,95.334,79.377,94.06,80.249,92.701z M110.176,36.003c0-16.864-13.722-30.587-30.588-30.587
	c-8.123,0-15.497,3.204-20.979,8.388c5.229,5.925,8.409,13.696,8.409,22.201c0,3.19-0.447,6.277-1.283,9.203
	c10.119,2.94,18.28,10.515,22.024,20.269C100.669,61.891,110.176,50.038,110.176,36.003z M80.548,77.312h-1.319v1.133h1.319V77.312z
	 M80.831,85.015h-1.319v1.131h1.319V85.015z M77.86,71.56v1.132h1.322l-0.001-1.132H77.86z M98.633,18.259
	c-8.593-9.49-20.489-7.729-20.489-7.729s8.902,0.786,16.739,8.165c12.054,11.356,10.283,21.249,10.283,21.249
	S108.96,29.664,98.633,18.259z M73.568,84.81H72.25v1.132h1.317V84.81z M54.473,100.088h1.319v-1.131h-1.319V100.088z M55.698,92.4
	h-1.32v1.135h1.32V92.4z M69.871,69.776H68.55v1.135h1.321V69.776z M64.799,68.825H63.48v1.132h1.319V68.825z M57.324,62.467h-1.321
	V63.6h1.321V62.467z M54.459,86.101h1.317v-1.133h-1.317V86.101z M69.245,74.746h-1.32v1.132h1.32V74.746z M54.803,64.675h-1.32
	v1.133h1.32V64.675z M52.429,88.771h-1.32v1.132h1.32V88.771z M51.346,82.847h1.319v-1.133h-1.319V82.847z M52.681,95.703h-1.32
	v1.132h1.32V95.703z M54.944,71.56h-1.317v1.132h1.317V71.56z M55.683,78.413h-1.32v1.132h1.32V78.413z M57.915,67.93h-1.319v1.132
	h1.319V67.93z M51.519,103.122h1.319v-1.132h-1.319V103.122z M64.704,88.816h-1.319v1.135h1.319V88.816z M60.399,100.135h1.319
	v-1.131h-1.319V100.135z M60.416,86.696h1.317v-1.132h-1.317V86.696z M60.508,93.251h1.32v-1.132h-1.32V93.251z M61.498,77.69
	h-1.319v1.132h1.319V77.69z M64.735,95.703h-1.317v1.132h1.317V95.703z M64.422,81.604h-1.32v1.132h1.32V81.604z M64.375,74.39
	h-1.32v1.131h1.32V74.39z M58.669,95.656H57.35v1.132h1.319V95.656z M58.386,74.437h-1.32v1.131h1.32V74.437z M57.397,89.998h1.32
	v-1.132h-1.32V89.998z M58.654,81.667h-1.317v1.132h1.317V81.667z M61.404,71.135h-1.318v1.133h1.318V71.135z M60.707,65.378h-1.319
	v1.132h1.319V65.378z M57.506,103.075h1.321v-1.135h-1.321V103.075z"/>
</svg>
