<?xml version="1.0" encoding="iso-8859-1"?>
<!-- Generator: Adobe Illustrator 18.0.0, SVG Export Plug-In . SVG Version: 6.00 Build 0)  -->
<!DOCTYPE svg PUBLIC "-//W3C//DTD SVG 1.1//EN" "http://www.w3.org/Graphics/SVG/1.1/DTD/svg11.dtd">
<svg version="1.1" id="Capa_1" xmlns="http://www.w3.org/2000/svg" xmlns:xlink="http://www.w3.org/1999/xlink" x="0px" y="0px"
	 viewBox="0 0 472.396 472.396" style="enable-background:new 0 0 472.396 472.396;" xml:space="preserve">
<g>
	<path d="M466.105,221.012L346.041,100.946c-6.168-6.136-15.389-7.959-23.394-4.648c-8.021,3.341-13.247,11.135-13.247,19.823
		v52.452H153.713c-15.783,0.016-28.604,12.822-28.604,28.589v78.049c0,15.769,12.82,28.56,28.619,28.56H309.4v52.483
		c0,8.703,5.227,16.512,13.247,19.853c8.005,3.298,17.226,1.475,23.394-4.677l120.065-120.067
		C474.492,242.979,474.492,229.397,466.105,221.012z"/>
	<path d="M79.872,168.605h-8.021c-13.292,0-24.061,10.77-24.061,24.063v87.071c0,13.291,10.769,24.063,24.061,24.063h8.021
		c13.292,0,24.062-10.771,24.062-24.063v-87.071C103.934,179.376,93.164,168.605,79.872,168.605z"/>
	<path d="M15.555,167.496C6.958,167.496,0,174.454,0,183.052v106.319c0,8.597,6.958,15.555,15.555,15.555
		c8.598,0,15.556-6.958,15.556-15.555V183.052C31.11,174.454,24.152,167.496,15.555,167.496z"/>
</g>
</svg>
