<svg version="1.1" id="JASNOSC" xmlns="http://www.w3.org/2000/svg" xmlns:xlink="http://www.w3.org/1999/xlink" x="0px" y="0px"
	 width="113.391px" height="113.391px" viewBox="0 0 113.391 113.391" enable-background="new 0 0 113.391 113.391"
	 xml:space="preserve">
<path id="L1" d="M77.212,56.074c-0.322,11.207-8.366,20.527-19.733,21.517c-11.825,1.028-20.904-9.114-21.229-20.366
	c-0.324-11.184,8.851-20.57,19.73-21.517C67.805,34.68,76.887,44.822,77.212,56.074c0.084,2.9,5.892,4.34,5.8,1.148
	C82.594,42.79,71.649,32.137,57.479,30.905c-14.564-1.266-26.623,11.107-27.027,25.17c-0.417,14.399,11.984,25.141,25.528,26.318
	c14.564,1.269,26.626-11.105,27.032-25.169C83.095,54.315,77.306,52.851,77.212,56.074z M60.229,23.92c0-6.843,0-13.688,0-20.529
	c0-4.515-7-4.515-7,0c0,6.843,0,13.688,0,20.529C53.228,28.434,60.229,28.434,60.229,23.92L60.229,23.92z M60.229,110.32
	c0-6.844,0-13.688,0-20.528c0-4.516-7-4.516-7,0c0,6.844,0,13.688,0,20.528C53.229,114.834,60.229,114.834,60.229,110.32
	L60.229,110.32z M23.794,53.149c-6.844,0-13.688,0-20.529,0c-4.515,0-4.515,7,0,7c6.843,0,13.688,0,20.529,0
	C28.309,60.148,28.309,53.149,23.794,53.149L23.794,53.149z M110.193,53.149c-6.844,0-13.688,0-20.528,0c-4.516,0-4.516,7,0,7
	c6.844,0,13.688,0,20.528,0C114.708,60.148,114.708,53.149,110.193,53.149L110.193,53.149z M34.562,30.958
	c-4.839-4.839-9.679-9.68-14.518-14.519c-3.194-3.192-8.146,1.755-4.949,4.95c4.839,4.839,9.678,9.678,14.517,14.518
	C32.807,39.103,37.756,34.153,34.562,30.958L34.562,30.958z M95.655,92.053c-4.84-4.841-9.68-9.681-14.52-14.521
	c-3.194-3.194-8.146,1.756-4.949,4.948c4.839,4.841,9.681,9.682,14.521,14.521C93.9,100.197,98.852,95.247,95.655,92.053
	L95.655,92.053z M29.467,77.39c-4.839,4.839-9.679,9.678-14.519,14.519c-3.193,3.193,1.756,8.145,4.949,4.948
	c4.839-4.839,9.681-9.678,14.52-14.519C37.61,79.145,32.662,74.195,29.467,77.39L29.467,77.39z M90.562,16.295
	c-4.84,4.839-9.681,9.679-14.52,14.518c-3.194,3.194,1.755,8.146,4.949,4.95c4.84-4.84,9.68-9.679,14.519-14.518
	C98.706,18.05,93.756,13.101,90.562,16.295L90.562,16.295z M64.785,42.375c-9.856-6.695-29.228,7.291-20.285,24.75
	c2.682,3.671,5,3.875,5,3.875c-1.813,0-6.073-1.69-8.842-7.765c-1.668-7.232-1.491-16.568,10.403-23.175
	C60.875,36.583,64.785,42.375,64.785,42.375"/>
</svg>
