<?xml version="1.0" encoding="utf-8"?>
<!-- Generator: Adobe Illustrator 15.0.0, SVG Export Plug-In . SVG Version: 6.00 Build 0)  -->
<!DOCTYPE svg PUBLIC "-//W3C//DTD SVG 1.1//EN" "http://www.w3.org/Graphics/SVG/1.1/DTD/svg11.dtd">
<svg version="1.1" id="KLAWIATURA" xmlns="http://www.w3.org/2000/svg" xmlns:xlink="http://www.w3.org/1999/xlink" x="0px" y="0px"
	 width="300px" height="300px" viewBox="0 0 113.391 113.391" enable-background="new 0 0 113.391 113.391"
	 xml:space="preserve">
<path id="_x31_" d="M17.134,15.3c0.935,1.05,1.404,2.638,1.404,4.762c0,1.027-0.119,1.939-0.357,2.731
	c-0.238,0.796-0.595,1.471-1.072,2.032c-1.112-0.834-2.278-1.463-3.498-1.88l-1.041,2.118c0.777,0.275,1.542,0.66,2.294,1.153
	c-0.476,0.177-0.982,0.265-1.517,0.265c-1.438,0-2.627-0.535-3.567-1.604c-0.94-1.063-1.411-2.668-1.411-4.816
	c0-2.115,0.47-3.7,1.411-4.753s2.167-1.582,3.68-1.582S16.197,14.251,17.134,15.3z M48.99,13.415v35.99
	c0,3.582-2.916,6.499-6.499,6.499H6.501c-3.583,0-6.499-2.917-6.499-6.499v-35.99c0-3.583,2.916-6.499,6.499-6.499h35.99
	C46.074,6.916,48.99,9.832,48.99,13.415z M23.065,28.474c-1.07-0.384-2.061-0.902-2.972-1.554c0.736-0.862,1.27-1.752,1.605-2.672
	c0.444-1.202,0.664-2.6,0.664-4.187c0-3.002-0.798-5.338-2.395-7.007c-1.596-1.666-3.757-2.499-6.483-2.499
	c-2.75,0-4.928,0.833-6.533,2.499c-1.604,1.669-2.407,4.005-2.407,7.007c0,3.009,0.8,5.345,2.401,7.009
	c1.601,1.663,3.814,2.495,6.64,2.495c1.462,0,2.796-0.264,4-0.789c1.529,1.027,2.353,1.57,2.47,1.628
	c0.535,0.294,1.083,0.524,1.643,0.691L23.065,28.474z M99.938,13.1v35.991c0,3.582-2.916,6.498-6.498,6.498H57.448
	c-3.582,0-6.498-2.916-6.498-6.498V13.1c0-3.583,2.916-6.498,6.498-6.498H93.44C97.022,6.602,99.938,9.517,99.938,13.1z
	 M80.044,11.635h-3.736l-2.821,12.842l-3.222-12.842H65.85l-3.36,12.628l-2.771-12.628h-3.8l4.389,18.382h4.023l3.65-13.743
	l3.662,13.743h3.937L80.044,11.635z M25.49,73.631h5.016l-2.533-6.822L25.49,73.631z M62.441,64.3v35.991
	c0,3.582-2.916,6.498-6.498,6.498H19.952c-3.583,0-6.499-2.916-6.499-6.498V64.3c0-3.582,2.916-6.498,6.499-6.498h35.991
	C59.525,57.802,62.441,60.718,62.441,64.3z M37.34,80.903l-7.36-18.382h-3.925l-7.16,18.382h3.937l1.517-4.175h7.35l1.604,4.175
	H37.34z M113.389,63.986v35.99c0,3.583-2.917,6.499-6.499,6.499H70.899c-3.582,0-6.498-2.916-6.498-6.499v-35.99
	c0-3.583,2.916-6.499,6.498-6.499h35.991C110.472,57.487,113.389,60.403,113.389,63.986z M84.316,75.222
	c0-1.161-0.245-2.136-0.736-2.926c-0.487-0.789-1.166-1.413-2.031-1.868s-2.197-0.899-4.004-1.324
	c-1.806-0.427-2.941-0.837-3.412-1.23c-0.365-0.309-0.55-0.68-0.55-1.114c0-0.479,0.196-0.857,0.588-1.143
	c0.611-0.442,1.456-0.666,2.533-0.666c1.047,0,1.828,0.211,2.351,0.625c0.521,0.412,0.865,1.09,1.022,2.036l3.712-0.163
	c-0.057-1.689-0.673-3.04-1.838-4.051c-1.167-1.012-2.901-1.518-5.21-1.518c-1.411,0-2.619,0.214-3.618,0.64
	c-0.998,0.427-1.763,1.051-2.294,1.862c-0.534,0.817-0.796,1.689-0.796,2.626c0,1.455,0.566,2.688,1.694,3.701
	c0.802,0.717,2.198,1.323,4.187,1.817c1.548,0.385,2.538,0.651,2.973,0.802c0.636,0.225,1.08,0.494,1.333,0.8
	c0.254,0.304,0.386,0.672,0.386,1.106c0,0.676-0.304,1.271-0.912,1.775c-0.605,0.507-1.504,0.757-2.698,0.757
	c-1.13,0-2.028-0.283-2.694-0.853c-0.662-0.566-1.102-1.458-1.32-2.67l-3.609,0.351c0.24,2.056,0.986,3.624,2.231,4.698
	c1.245,1.073,3.03,1.609,5.354,1.609c1.597,0,2.93-0.222,4-0.669c1.069-0.447,1.898-1.133,2.483-2.054
	C84.023,77.262,84.316,76.275,84.316,75.222z"/>
</svg>
