<svg version="1.1" id="KOLOR_TEKSTU" xmlns="http://www.w3.org/2000/svg" xmlns:xlink="http://www.w3.org/1999/xlink" x="0px"
	 y="0px" width="113.39px" height="113.39px" viewBox="0 0 113.39 113.39" enable-background="new 0 0 113.39 113.39"
	 xml:space="preserve">
<path id="L1" d="M75.681,37.426l0.316,1.159l-14.479,11.56l-0.269-1.197L75.681,37.426z M60.488,45.562l0.269,1.196l14.345-11.452
	l-0.316-1.158L60.488,45.562z M59.72,42.14l0.269,1.196l14.209-11.344l-0.316-1.158L59.72,42.14z M63.559,59.23l0.269,1.195
	l14.889-11.887l-0.316-1.156L63.559,59.23z M62.006,52.32l0.27,1.197L76.889,41.85l-0.316-1.16L62.006,52.32z M52.647,53.231
	l0.386-1.718L30.567,69.448l-0.501,1.811L52.647,53.231z M54.865,43.352l0.386-1.719l-21.8,17.404l-0.502,1.811L54.865,43.352z
	 M53.75,48.316l0.386-1.719l-22.135,17.67L31.5,66.079L53.75,48.316z M55.98,38.388l0.386-1.72L34.9,53.806l-0.502,1.812
	L55.98,38.388z M58.943,38.685l0.269,1.197l14.071-11.234l-0.316-1.159L58.943,38.685z M58.167,35.23l0.269,1.197L72.37,25.303
	l-0.317-1.159L58.167,35.23z M57.068,33.541l0.36-1.602l0.25,1.115l13.799-11.017l-0.315-1.157L36.314,48.7l-0.501,1.81
	L57.068,33.541z M58.719,4.097h-1.767l-10.635,8.49l-0.501,1.811L58.719,4.097z M63.772,4.097h-1.769L44.882,17.766l-0.502,1.812
	L63.772,4.097z M53.615,4.097H51.85l-4.084,3.261l-0.501,1.809L53.615,4.097z M85.598,73.739L69.183,86.845h1.187l0.108,0.377
	l15.437-12.324L85.598,73.739z M66.972,5.538L66.655,4.38L43.461,22.897l-0.501,1.811L66.972,5.538z M80.2,53.975L65.088,66.04
	l0.269,1.194l15.16-12.103L80.2,53.975z M67.851,8.755l-0.316-1.158L42.068,27.928l-0.502,1.812L67.851,8.755z M70.582,18.757
	l-0.316-1.16l-32.53,25.971l-0.502,1.813L70.582,18.757z M64.326,62.65l0.27,1.197l15.025-11.995l-0.317-1.16L64.326,62.65z
	 M68.764,12.099l-0.316-1.157L40.619,33.16l-0.501,1.81L68.764,12.099z M69.677,15.444l-0.315-1.157L39.17,38.39l-0.501,1.809
	L69.677,15.444z M62.782,55.776l0.269,1.196l14.752-11.777l-0.316-1.158L62.782,55.776z M87.741,81.586l-0.315-1.156L72.051,92.705
	l0.328,1.146L87.741,81.586z M39.602,103.898l0.542-1.843l-3.214,2.565h1.767L39.602,103.898z M89.542,88.18l-0.316-1.158
	L73.925,99.238l0.329,1.147L89.542,88.18z M86.828,78.244l-0.316-1.159L71.1,89.39l0.329,1.148L86.828,78.244z M85.023,71.633
	l-0.317-1.159L64.201,86.845h1.768L85.023,71.633z M88.646,84.899l-0.315-1.156L72.992,95.988l0.329,1.146L88.646,84.899z
	 M90.434,91.444l-0.316-1.157l-15.265,12.187l0.329,1.147L90.434,91.444z M93.745,103.569l-1.317,1.052h1.604L93.745,103.569z
	 M93.165,101.446l-0.315-1.156l-5.425,4.331h1.764L93.165,101.446z M92.261,98.136l-0.316-1.159l-9.575,7.645h1.768L92.261,98.136z
	 M91.348,94.79l-0.316-1.157l-13.765,10.988h1.767L91.348,94.79z M41.152,98.627l0.542-1.842l-9.815,7.836h1.766L41.152,98.627z
	 M57.897,69.195h-1.769L23.4,95.326l-0.501,1.811L57.897,69.195z M62.9,69.195h-1.766l-39.155,31.259l-0.502,1.812L62.9,69.195z
	 M52.843,69.195h-1.766L24.834,90.146l-0.501,1.812L52.843,69.195z M50.466,62.944l0.386-1.72l-23.12,18.458l-0.501,1.812
	L50.466,62.944z M49.351,67.909l0.386-1.719L26.284,84.915l-0.502,1.811L49.351,67.909z M44.284,87.977l0.333-1.132h1.084
	l35.693-28.496l-0.315-1.156l-59.408,47.429h1.765L44.284,87.977z M42.718,93.302l0.542-1.844l-16.489,13.163h1.769L42.718,93.302z
	 M49.04,86.845h1.768l31.501-25.149l-0.315-1.157L49.04,86.845z M54.145,86.845h1.765l27.312-21.806l-0.315-1.156L54.145,86.845z
	 M84.127,68.352l-0.316-1.157l-24.614,19.65h1.767L84.127,68.352z M51.554,58.1l0.386-1.72L29.147,74.577l-0.502,1.813L51.554,58.1z
	"/>
</svg>
