<svg version="1.1" id="KOLOR_TEKSTU" xmlns="http://www.w3.org/2000/svg" xmlns:xlink="http://www.w3.org/1999/xlink" x="0px"
	 y="0px" width="113.39px" height="113.39px" viewBox="0 0 113.39 113.39" enable-background="new 0 0 113.39 113.39"
	 xml:space="preserve">
<g>
	<polygon points="59.988,43.336 60.488,45.562 74.785,34.147 74.197,31.993 	"/>
	<polygon points="60.757,46.757 61.249,48.948 75.681,37.426 75.102,35.305 	"/>
	<polygon points="61.518,50.145 62.006,52.32 76.572,40.69 75.997,38.584 	"/>
	<polygon points="62.275,53.517 62.782,55.776 77.486,44.038 76.889,41.85 	"/>
	<polygon points="63.051,56.972 63.559,59.23 78.399,47.382 77.803,45.195 	"/>
	<polygon points="80.2,53.975 79.621,51.853 64.596,63.848 65.088,66.04 	"/>
	<polygon points="55.251,41.633 55.98,38.388 34.398,55.617 33.451,59.037 	"/>
	<polygon points="59.212,39.882 59.72,42.14 73.881,30.835 73.283,28.648 	"/>
	<polygon points="56.366,36.668 57.068,33.541 35.813,50.51 34.9,53.806 	"/>
	<polygon points="57.678,33.054 58.167,35.23 72.053,24.144 71.478,22.037 	"/>
	<polygon points="58.436,36.427 58.943,38.685 72.967,27.489 72.37,25.303 	"/>
	<polygon points="71.162,20.88 70.582,18.757 37.234,45.38 36.314,48.7 	"/>
	<polygon points="47.765,7.357 51.85,4.097 48.668,4.097 	"/>
	<polygon points="54.137,46.597 54.865,43.352 32.949,60.848 32.002,64.268 	"/>
	<polygon points="62.004,4.097 58.719,4.097 45.815,14.398 44.882,17.766 	"/>
	<polygon points="56.952,4.097 53.615,4.097 47.264,9.167 46.317,12.587 	"/>
	<polygon points="80.517,55.132 65.356,67.234 65.797,69.195 62.9,69.195 21.478,102.266 20.825,104.621 21.671,104.621 
		81.079,57.192 	"/>
	<polygon points="67.534,7.597 66.972,5.538 42.959,24.708 42.068,27.928 	"/>
	<polygon points="70.266,17.597 69.677,15.444 38.669,40.199 37.736,43.568 	"/>
	<polygon points="90.434,91.444 75.182,103.621 75.469,104.621 77.267,104.621 91.031,93.633 	"/>
	<polygon points="69.361,14.287 68.764,12.099 40.117,34.969 39.17,38.39 	"/>
	<polygon points="63.827,60.426 64.326,62.65 79.304,50.693 78.716,48.539 	"/>
	<polygon points="68.447,10.942 67.851,8.755 41.566,29.739 40.619,33.16 	"/>
	<polygon points="66.655,4.38 66.578,4.097 63.772,4.097 44.38,19.578 43.461,22.897 	"/>
	<polygon points="85.598,73.739 85.023,71.633 65.969,86.845 69.183,86.845 	"/>
	<polygon points="86.512,77.085 85.914,74.897 70.478,87.222 71.1,89.39 	"/>
	<polygon points="88.33,83.743 87.741,81.586 72.379,93.851 72.992,95.988 	"/>
	<polygon points="87.426,80.43 86.828,78.244 71.429,90.538 72.051,92.705 	"/>
	<polygon points="39.602,103.898 38.697,104.621 39.39,104.621 	"/>
	<polygon points="84.127,68.352 60.963,86.845 64.201,86.845 84.706,70.474 	"/>
	<polygon points="92.85,100.29 92.261,98.136 84.137,104.621 87.425,104.621 	"/>
	<polygon points="40.144,102.056 41.152,98.627 33.645,104.621 36.93,104.621 	"/>
	<polygon points="89.226,87.021 88.646,84.899 73.321,97.135 73.925,99.238 	"/>
	<polygon points="93.745,103.569 93.165,101.446 89.188,104.621 92.428,104.621 	"/>
	<polygon points="91.944,96.977 91.348,94.79 79.033,104.621 82.369,104.621 	"/>
	<polygon points="90.117,90.287 89.542,88.18 74.254,100.386 74.853,102.474 	"/>
	<polygon points="45.702,86.845 49.04,86.845 81.993,60.538 81.395,58.349 	"/>
	<polygon points="51.077,69.195 49.063,69.195 49.351,67.909 25.782,86.726 24.834,90.146 	"/>
	<polygon points="49.737,66.19 50.466,62.944 27.231,81.494 26.284,84.915 	"/>
	<polygon points="51.94,56.379 52.647,53.231 30.066,71.259 29.147,74.577 	"/>
	<polygon points="56.129,69.195 52.843,69.195 24.333,91.958 23.4,95.326 	"/>
	<polygon points="50.852,61.225 51.554,58.1 28.645,76.39 27.732,79.683 	"/>
	<polygon points="50.807,86.845 54.145,86.845 82.906,63.883 82.309,61.695 	"/>
	<polygon points="43.261,91.458 44.284,87.977 23.436,104.621 26.771,104.621 	"/>
	<polygon points="53.033,51.513 53.75,48.316 31.5,66.079 30.567,69.448 	"/>
	<polygon points="83.811,67.194 83.222,65.039 55.91,86.845 59.196,86.845 	"/>
	<polygon points="61.135,69.195 57.897,69.195 22.898,97.137 21.979,100.454 	"/>
	<polygon points="41.694,96.785 42.718,93.302 28.54,104.621 31.879,104.621 	"/>
</g>
</svg>
