<svg version="1.1" id="KOLOR_TLA" xmlns="http://www.w3.org/2000/svg" xmlns:xlink="http://www.w3.org/1999/xlink" x="0px" y="0px"
	 width="113.39px" height="113.39px" viewBox="0 0 113.39 113.39" enable-background="new 0 0 113.39 113.39" xml:space="preserve">
<path id="L1" d="M38.525,40.704l-1.147,4.141L0.004,74.683v-3.225L38.525,40.704z M0.004,62.14v3.229l40.687-32.483l1.147-4.144
	L0.004,62.14z M54.131,46.604l-0.882,3.93l7.083-5.654l-0.614-2.735L54.131,46.604z M56.63,35.475l-0.882,3.927l2.843-2.269
	L57.977,34.4L56.63,35.475z M0.004,52.821v3.229l44-35.128l1.148-4.145L0.004,52.821z M54.052,86.845h-4.041l-7.054,5.631
	l-1.239,4.216L54.052,86.845z M0.004,43.864v3.225L47.191,9.417l1.146-4.14L0.004,43.864z M61.448,49.856l-9.805,7.828l-0.882,3.927
	l11.301-9.022L61.448,49.856z M65.612,68.391l-0.614-2.735l-4.435,3.54h4.041L65.612,68.391z M25.449,87.914L0.004,108.229v3.225
	l24.298-19.398L25.449,87.914z M63.224,57.757l-14.129,11.28l-0.036,0.158h3.876l10.903-8.705L63.224,57.757z M84.212,68.678
	l0.723,2.647l28.451-22.714v-3.226L84.212,68.678z M88.34,83.794l0.723,2.646l24.323-19.419v-3.223L88.34,83.794z M86.25,76.142
	l0.724,2.648l26.412-21.086v-3.226L86.25,76.142z M90.429,91.44l0.723,2.646l22.234-17.751v-3.224L90.429,91.44z M74.602,33.488
	l38.784-30.964V0h-0.878l-38.63,30.84L74.602,33.488z M113.386,82.336L92.497,99.013l0.723,2.648l20.166-16.099V82.336z
	 M80.095,53.603l0.724,2.649l32.567-26v-3.227L80.095,53.603z M0.004,80.683v3.223l34.094-27.219l1.146-4.138L0.004,80.683z
	 M0.004,102.134L27.616,80.09l1.146-4.138L0.004,98.911V102.134z M0.004,93.042l30.845-24.625l1.147-4.142L0.004,89.816V93.042z
	 M82.163,61.176l0.724,2.648l30.499-24.35v-3.226L82.163,61.176z M22.136,99.874L5.212,113.386h4.04l11.737-9.37L22.136,99.874z
	 M70.827,88.454l-31.229,24.932h4.042l27.94-22.307L70.827,88.454z M73.003,96.039l-21.728,17.347h4.037l18.443-14.725
	L73.003,96.039z M61.456,86.845l-22.01,17.572l-0.06,0.204H39.19l-10.979,8.765h4.041l33.244-26.541H61.456z M27.745,104.621
	l-10.979,8.765h4.041l10.979-8.765H27.745z M1.261,0H0.004v1.003L1.261,0z M75.465,104.621l-0.288-1.004l-12.235,9.769h4.036
	l10.979-8.765H75.465z M113.386,109.75l-4.554,3.636h4.036l0.518-0.414V109.75z M113.386,100.432l-16.227,12.954h4.042l12.185-9.729
	V100.432z M113.386,91.475L85.94,113.386h4.037l23.408-18.688V91.475z M85.473,104.621l-10.979,8.765h4.04l10.979-8.765H85.473z
	 M70.484,18.414L93.55,0h-4.041L69.761,15.766L70.484,18.414z M78.006,45.955l0.723,2.647l34.657-27.669v-3.224L78.006,45.955z
	 M68.396,10.766L81.881,0H77.84L67.672,8.117L68.396,10.766z M72.553,25.987L105.104,0h-4.038L71.83,23.34L72.553,25.987z
	 M75.917,38.305l0.723,2.646l36.746-29.336V8.392L75.917,38.305z M65.079,4.097L70.211,0h-4.043l-5.132,4.097H65.079z M0.004,28.728
	L35.988,0H31.95L0.004,25.504V28.728z M53.855,4.097L58.986,0h-4.038l-5.131,4.097H53.855z M0.004,10.097L12.65,0H8.61L0.004,6.871
	V10.097z M0.004,19.414L24.322,0h-4.042L0.004,16.187V19.414z M0.004,37.954L47.544,0h-4.04l-43.5,34.729V37.954z"/>
<path id="L1_1_" fill="none" stroke="#000000" stroke-width="3" stroke-miterlimit="10" d="M57.424,31.943l8.369,37.256H49.059
	L57.424,31.943z M113.386,0.004V113.39H0V0.004H113.386z M94.028,104.625L66.574,4.101h-17.91L20.821,104.625h18.564l5.228-17.776
	h25.752l5.1,17.776H94.028z"/>
</svg>
