<svg version="1.1" id="KOLOR_TEKSTU" xmlns="http://www.w3.org/2000/svg" xmlns:xlink="http://www.w3.org/1999/xlink" x="0px"
	 y="0px" width="113.39px" height="113.39px" viewBox="0 0 113.39 113.39" enable-background="new 0 0 113.39 113.39"
	 xml:space="preserve">
<path id="L1" d="M113.387,6.07v2.584L84.634,31.61l0.009,0.011l-8.659,6.913l-0.579-2.121l9.041-7.218l-0.01-0.012L113.387,6.07z
	 M86.384,31.625l0.008,0.01L76.3,39.692l0.575,2.106l9.705-7.748l-0.009-0.011l26.815-21.409v-2.565L86.384,31.625z M63.039,56.921
	l-0.507-2.259L50.097,64.59l-0.729,3.245L63.039,56.921z M82.564,26.643l0.01,0.012L74.5,33.101l0.588,2.154l7.605-6.072
	l-0.009-0.011l30.702-24.511V2.036L82.564,26.643z M78.495,21.743l0.01,0.012l-5.832,4.656l0.597,2.187l5.565-4.443l-0.009-0.011
	l30.237-24.14h-3.338L78.495,21.743z M59.2,39.83l-0.507-2.259l-3.083,2.461l-0.729,3.245L59.2,39.83z M59.977,43.285l-0.508-2.259
	l-4.973,3.97l-0.729,3.246L59.977,43.285z M76.556,19.314l0.009,0.012l-4.784,3.819l0.575,2.107l4.398-3.511l-0.009-0.01
	l27.214-21.727h-3.216L76.556,19.314z M18.33,0.003h-3.287L0,12.013v2.624L18.33,0.003z M57.084,33.468l0.583-0.465l-0.239-1.064
	L57.084,33.468z M60.745,46.706l-0.5-2.225l-6.864,5.479l-0.718,3.197L60.745,46.706z M61.506,50.093l-0.492-2.191l-8.736,6.974
	l-0.707,3.148L61.506,50.093z M62.264,53.465l-0.489-2.176l-10.59,8.455l-0.702,3.126L62.264,53.465z M62.937,2.059l0.01,0.012
	l-2.537,2.025h3.263l5.127-4.093h-3.287L62.937,2.059z M3.068,0.003H0v2.449L3.068,0.003z M55.305,4.097h3.336l2.554-2.039
	l-0.009-0.011l2.56-2.043h-3.313L55.305,4.097z M53.54,4.097l5.127-4.093h-3.338l-5.127,4.093H53.54z M8.172,0.003H4.836L0,3.864
	v2.664L8.172,0.003z M13.276,0.003H9.939L0,7.938v2.664L13.276,0.003z M70.749,11.845l0.01,0.012l-1.692,1.351l0.598,2.187
	l1.33-1.062l-0.009-0.011L88.92,0.003h-3.339L70.749,11.845z M74.607,16.875l0.009,0.011l-3.731,2.979l0.579,2.123l3.351-2.675
	l-0.009-0.011L98.979,0.003h-3.239L74.607,16.875z M72.734,14.333l0.01,0.012l-2.765,2.207l0.588,2.153l2.299-1.835l-0.008-0.01
	L93.973,0.003h-3.289L72.734,14.333z M68.667,9.433l0.01,0.012l-0.523,0.418l0.597,2.188l0.259-0.206l-0.01-0.012l14.817-11.83
	h-3.338L68.667,9.433z M65.438,4.097h1.14l0.376,1.376l6.851-5.469h-3.239L65.438,4.097z M67.271,6.631l0.562,2.058l10.879-8.685
	h-3.14L67.271,6.631z M58.424,36.375l-0.488-2.176l-1.237,0.987l-0.702,3.127L58.424,36.375z M110.031,61.05l0.01,0.013
	l-22.91,18.29l0.597,2.185l22.548-18.002l-0.007-0.009l3.118-2.489v-2.666L110.031,61.05z M107.948,58.638l0.01,0.012L86.217,76.006
	l0.598,2.188l21.475-17.145l-0.009-0.012l5.106-4.077v-2.665L107.948,58.638z M113.387,62.442l-1.37,1.094l0.01,0.012L88.044,82.694
	l0.589,2.156l23.515-18.773l-0.008-0.01l1.247-0.995V62.442z M104.062,53.769l0.009,0.01L84.43,69.46l0.579,2.122l19.26-15.376
	l-0.008-0.01l9.126-7.286v-2.585L104.062,53.769z M113.387,85.244v-2.625L92.563,99.244l0.589,2.154L113.387,85.244z M106.01,56.207
	l0.011,0.014L85.326,72.742l0.574,2.105l20.308-16.212l-0.01-0.013l7.188-5.739v-2.566L106.01,56.207z M113.387,73.061v-2.567
	L89.845,89.288l0.575,2.107L113.387,73.061z M89.528,88.13l23.858-19.048v-2.586L88.948,86.007L89.528,88.13z M113.387,81.208
	v-2.663L91.65,95.898l0.597,2.187L113.387,81.208z M80.587,24.167l-7.001,5.589l0.598,2.187l6.64-5.301l-0.01-0.012l32.573-26.004
	V0.003h-2.558L80.577,24.155L80.587,24.167z M113.387,77.134v-2.663l-22.65,18.082l0.598,2.188L113.387,77.134z M102.19,51.229
	l0.008,0.01L83.524,66.147l0.589,2.155l18.209-14.537l-0.01-0.012l11.074-8.841V42.29L102.19,51.229z M94.263,41.493l0.01,0.012
	L79.924,52.961l0.579,2.123l13.969-11.151l-0.011-0.013l18.926-15.109v-2.584L94.263,41.493z M96.211,43.934l0.009,0.011
	l-15.4,12.295l0.563,2.061l14.997-11.974l-0.009-0.011l17.017-13.585v-2.51L96.211,43.934z M98.122,46.327l0.008,0.01l-16.433,13.12
	l0.599,2.189l16.17-12.908l-0.012-0.015l14.933-11.921V34.14L98.122,46.327z M88.322,34.053l0.009,0.012l-11.14,8.893l0.598,2.188
	l10.876-8.683l-0.01-0.013l24.731-19.744v-2.663L88.322,34.053z M92.392,38.954l0.008,0.009L79.019,49.647l0.588,2.154l12.914-10.31
	l-0.008-0.009l20.874-16.666v-2.624L92.392,38.954z M90.405,36.464l0.01,0.013l-12.31,9.827l0.597,2.187l11.948-9.539l-0.01-0.012
	l22.746-18.159v-2.664L90.405,36.464z M45.628,86.845h-1.011l-0.31,1.055L45.628,86.845z M100.204,48.739l0.01,0.013L82.611,62.804
	l0.598,2.188l17.239-13.764l-0.009-0.011l12.947-10.336v-2.666L100.204,48.739z M50.731,86.845h-3.338l-3.627,2.896l-1.024,3.482
	L50.731,86.845z M65.797,69.195l-0.184-0.815l-1.021,0.815H65.797z M60.888,86.845h-3.287l-16.967,13.546l-1.008,3.429
	L60.888,86.845z M55.835,86.845h-3.337l-10.299,8.222l-1.024,3.482L55.835,86.845z M38.621,104.621h-3.286l-10.983,8.769h3.285
	L38.621,104.621z M72.365,93.803l-0.621-2.166L44.496,113.39h3.337L72.365,93.803z M71.414,90.488l-0.622-2.168L39.391,113.39h3.338
	L71.414,90.488z M65.892,86.845h-3.238L29.405,113.39h3.238L65.892,86.845z M70.463,87.172l-0.094-0.327H67.66L34.409,113.39h3.214
	L70.463,87.172z M74.239,100.336l-0.604-2.104L54.652,113.39h3.237L74.239,100.336z M64.584,63.795l-0.5-2.225l-9.551,7.625h3.287
	L64.584,63.795z M28.463,104.621h-3.336l-10.983,8.769h3.335L28.463,104.621z M65.345,67.185l-0.492-2.192l-5.265,4.203h3.238
	L65.345,67.185z M33.569,104.621h-3.338l-10.983,8.769h3.339L33.569,104.621z M7.467,113.39l14.032-11.202l0.919-3.317L4.231,113.39
	H7.467z M75.168,103.572l-0.6-2.088L59.656,113.39h3.214L75.168,103.572z M23.362,104.621h-2.537l0.172-0.622L9.235,113.39h3.144
	L23.362,104.621z M73.308,97.087l-0.613-2.138l-23.099,18.44h3.292L73.308,97.087z M113.387,105.342v-2.626l-13.37,10.674h3.289
	L113.387,105.342z M113.387,109.335v-2.584l-8.315,6.639h3.236L113.387,109.335z M110.075,113.39h3.312v-2.644L110.075,113.39z
	 M22.92,97.06l0.933-3.369L0,112.734v0.655h2.465L22.92,97.06z M113.387,101.304v-2.66L94.916,113.39h3.333L113.387,101.304z
	 M113.387,89.239v-2.588l-19.919,15.903l0.564,2.066h-3.153l-10.982,8.769h3.239L113.387,89.239z M89.116,104.621h-3.288
	l-10.983,8.769h3.288L89.116,104.621z M84.061,104.621h-3.336l-10.983,8.769h3.336L84.061,104.621z M113.387,93.158V90.65
	L84.903,113.39h3.142L113.387,93.158z M113.387,97.232v-2.664L89.812,113.39h3.336L113.387,97.232z M78.957,104.621H75.62
	l-10.983,8.769h3.338L78.957,104.621z M44.402,19.499l0.933-3.368L0,52.324v2.624L44.402,19.499z M23.334,0.003h-3.238L0,16.047
	v2.585L23.334,0.003z M45.837,14.32l0.947-3.42L0,48.25v2.664L45.837,14.32z M47.285,9.09l0.948-3.422L0,44.175v2.666L47.285,9.09z
	 M41.588,29.661l0.892-3.22L0,60.354v2.507L41.588,29.661z M42.981,24.631l0.919-3.319L0,56.358v2.586L42.981,24.631z M53.563,0.003
	h-3.215L0,40.199v2.565L53.563,0.003z M33.419,0.003h-3.338L0,24.019v2.665L33.419,0.003z M40.139,34.893l0.947-3.421L0,64.272
	v2.665L40.139,34.893z M28.315,0.003h-3.214L0,20.042v2.566L28.315,0.003z M38.522,0.003h-3.336L0,28.094v2.664L38.522,0.003z
	 M43.576,0.003h-3.285L0,32.168v2.624L43.576,0.003z M48.581,0.003h-3.238L0,36.203v2.585L48.581,0.003z M34.42,55.539l0.913-3.295
	L0,80.451v2.566L34.42,55.539z M28.667,76.31l0.919-3.317L0,96.611v2.585L28.667,76.31z M27.252,81.416l0.913-3.294L0,100.608v2.564
	L27.252,81.416z M30.087,71.182l0.933-3.369L0,92.576v2.625L30.087,71.182z M24.354,91.879l0.947-3.42L0,108.658v2.664
	L24.354,91.879z M25.804,86.647l0.947-3.42L0,104.584v2.663L25.804,86.647z M31.522,66.001l0.947-3.42L0,88.502v2.664L31.522,66.001
	z M38.69,40.123l0.947-3.421L0,68.347v2.664L38.69,40.123z M35.834,50.433l0.92-3.32L0,76.456v2.585L35.834,50.433z M37.256,45.301
	l0.933-3.368L0,72.42v2.625L37.256,45.301z M63.309,58.117L49.432,69.195h3.336l11.047-8.819L63.309,58.117z M32.971,60.771
	l0.948-3.42L0,84.429v2.664L32.971,60.771z"/>
</svg>
