<svg version="1.1" id="KOLOR_TEKSTU" xmlns="http://www.w3.org/2000/svg" xmlns:xlink="http://www.w3.org/1999/xlink" x="0px"
	 y="0px" width="113.39px" height="113.39px" viewBox="0 0 113.39 113.39" enable-background="new 0 0 113.39 113.39"
	 xml:space="preserve">
<path id="L1_1_" fill="none" stroke="#000000" stroke-width="3" stroke-miterlimit="10" d="M94.032,104.621H75.469l-5.1-17.776
	H44.617l-5.228,17.776H20.825L48.668,4.097h17.91L94.032,104.621z M65.797,69.195l-8.369-37.256l-8.365,37.256H65.797z"/>
<path id="L1" d="M49.935,86.97l32.423-25.885l0.724,2.648L53.976,86.97H49.935z M63.427,57.658l0.614,2.734l14.883-11.882
	l-0.723-2.647L63.427,57.658z M58.181,34.301l0.614,2.734l13.952-11.14l-0.723-2.646L58.181,34.301z M65.201,65.557l0.615,2.735
	L81.013,56.16l-0.724-2.649L65.201,65.557z M61.652,49.758l0.614,2.733l14.567-11.63l-0.723-2.646L61.652,49.758z M59.92,42.047
	l0.615,2.735l14.261-11.385l-0.723-2.648L59.92,42.047z M90.623,91.35l-15.254,12.179l0.35,1.218h2.161l13.466-10.75L90.623,91.35z
	 M53.779,4.222h-4.038l-1.056,0.843l-1.146,4.139L53.779,4.222z M68.591,10.675l-0.724-2.649L42.186,28.528l-1.147,4.144
	L68.591,10.675z M70.68,18.323l-0.724-2.648L38.872,40.491l-1.147,4.141L70.68,18.323z M65.004,4.222H60.96L45.5,16.564
	l-1.148,4.146L65.004,4.222z M64.528,69.32h-4.041L22.483,99.661l-1.146,4.141L64.528,69.32z M84.406,68.586L61.38,86.97h4.04
	l19.71-15.735L84.406,68.586z M56.074,39.207l0.882-3.928L35.592,52.335l-1.146,4.139L56.074,39.207z M93.415,101.57l-0.724-2.648
	l-7.295,5.824h4.04L93.415,101.57z M39.801,104.197l-0.687,0.549h0.526L39.801,104.197z M89.258,86.349l-0.723-2.646l-15.34,12.246
	l0.752,2.623L89.258,86.349z M87.168,78.698l-0.723-2.648L71.02,88.365l0.753,2.625L87.168,78.698z M42.073,96.473l1.24-4.216
	l-15.644,12.489h4.041L42.073,96.473z M53.575,50.338l0.882-3.93L32.344,64.063l-1.147,4.142L53.575,50.338z M51.087,61.416
	l0.882-3.927l-22.86,18.25l-1.146,4.139L51.087,61.416z M52.859,69.32h-3.546l0.107-0.479l-23.624,18.86l-1.146,4.141L52.859,69.32z
	"/>
</svg>
