<svg version="1.1" id="KOLOR_TLA" xmlns="http://www.w3.org/2000/svg" xmlns:xlink="http://www.w3.org/1999/xlink" x="0px" y="0px"
	 width="113.39px" height="113.39px" viewBox="0 0 113.39 113.39" enable-background="new 0 0 113.39 113.39" xml:space="preserve">
<path id="L1" d="M113.387,0.625v1.411L82.564,26.643l0.01,0.012L74.5,33.101l-0.316-1.158l6.64-5.301l-0.01-0.012L113.387,0.625z
	 M86.571,34.04l0.009,0.011l-9.705,7.748l0.316,1.159l11.14-8.893l-0.009-0.012l25.064-20.01v-1.412L86.571,34.04z M90.641,38.94
	l0.01,0.012l-11.948,9.539l0.316,1.156l13.381-10.684l-0.008-0.009l20.995-16.762v-1.411L90.641,38.94z M88.655,36.45l0.01,0.013
	l-10.876,8.683l0.316,1.158l12.31-9.827l-0.01-0.013l22.981-18.347v-1.411L88.655,36.45z M82.685,29.172l0.009,0.011l-7.605,6.072
	l0.316,1.158l9.041-7.218l-0.01-0.012L113.387,6.07v-1.41L82.685,29.172z M84.634,31.61l0.009,0.011l-8.659,6.913l0.316,1.158
	l10.092-8.057l-0.008-0.01l27.003-21.559V8.655L84.634,31.61z M57.601,86.845h-1.765l-14.66,11.704l-0.542,1.842L57.601,86.845z
	 M98.454,48.724l0.012,0.015l-16.17,12.908l0.315,1.157l17.603-14.052l-0.01-0.013l13.183-10.524v-1.412L98.454,48.724z
	 M78.826,24.144l0.009,0.011l-5.565,4.443l0.316,1.159l7.001-5.589l-0.01-0.012l30.252-24.151h-1.766L78.826,24.144z M92.513,41.481
	l0.008,0.009l-12.914,10.31l0.317,1.16l14.349-11.456l-0.01-0.012l19.124-15.268v-1.41L92.513,41.481z M94.461,43.919l0.011,0.013
	L80.503,55.083l0.316,1.157l15.4-12.295l-0.009-0.011l17.176-13.712V28.81L94.461,43.919z M96.37,46.316l0.009,0.011L81.382,58.301
	l0.315,1.156l16.433-13.12l-0.008-0.01l15.265-12.187v-1.409L96.37,46.316z M68.999,11.833l0.01,0.012l-0.259,0.206l0.316,1.157
	l1.692-1.351l-0.01-0.012L85.581,0.003h-1.765L68.999,11.833z M66.954,5.473l0.316,1.158l8.301-6.627h-1.767L66.954,5.473z
	 M63.672,4.097h1.767l5.127-4.093h-1.767L63.672,4.097z M63.746,0.003l-2.56,2.043l0.009,0.011l-2.554,2.039h1.768l2.537-2.025
	l-0.01-0.012l2.575-2.056H63.746z M4.836,0.003H3.068L0,2.452v1.412L4.836,0.003z M53.54,4.097h1.765l5.127-4.093h-1.766
	L53.54,4.097z M67.832,8.688l0.321,1.175l0.523-0.418l-0.01-0.012l11.812-9.43h-1.768L67.832,8.688z M72.858,16.86l0.008,0.01
	l-2.299,1.835l0.317,1.16l3.731-2.979l-0.009-0.011L95.739,0.003h-1.767L72.858,16.86z M74.806,19.302l0.009,0.011l-3.351,2.675
	l0.316,1.157l4.784-3.819l-0.009-0.012l24.188-19.311h-1.765L74.806,19.302z M76.745,21.73l0.009,0.01l-4.398,3.511l0.317,1.159
	l5.832-4.656l-0.01-0.012l27.23-21.739h-1.767L76.745,21.73z M52.498,86.845h-1.767l-7.989,6.378l-0.542,1.844L52.498,86.845z
	 M70.985,14.321l0.009,0.011l-1.33,1.062l0.315,1.158l2.765-2.207l-0.01-0.012l17.949-14.33H88.92L70.985,14.321z M89.845,89.288
	l23.542-18.795v-1.411L89.528,88.13L89.845,89.288z M108.28,61.037l0.009,0.012L86.814,78.193l0.316,1.159l22.91-18.29l-0.01-0.013
	l3.355-2.679V56.96L108.28,61.037z M47.393,86.845h-1.765l-1.321,1.055l-0.542,1.841L47.393,86.845z M102.313,53.754l0.01,0.012
	L84.113,68.303l0.316,1.157l19.641-15.681l-0.009-0.01l9.325-7.445v-1.411L102.313,53.754z M100.439,51.217l0.009,0.011
	L83.209,64.991l0.315,1.156l18.674-14.909l-0.008-0.01l11.196-8.939v-1.41L100.439,51.217z M110.269,63.526l0.007,0.009
	L87.728,81.537l0.316,1.157l23.982-19.146l-0.01-0.012l1.37-1.094v-1.405L110.269,63.526z M104.261,56.195l0.008,0.01l-19.26,15.376
	l0.317,1.16l20.694-16.521l-0.011-0.014l7.377-5.889v-1.409L104.261,56.195z M113.387,85.244l-20.234,16.154l0.315,1.156
	l19.919-15.903V85.244z M9.939,0.003H8.172L0,6.527v1.411L9.939,0.003z M113.387,74.471v-1.41L90.42,91.396l0.316,1.157
	L113.387,74.471z M113.387,82.619v-1.411l-21.14,16.877l0.316,1.159L113.387,82.619z M113.387,78.545v-1.411L91.334,94.74
	l0.316,1.158L113.387,78.545z M106.198,58.623l0.01,0.013L85.9,74.848l0.316,1.158l21.741-17.356l-0.01-0.012l5.438-4.342v-1.412
	L106.198,58.623z M62.532,54.662l-0.269-1.197L50.483,62.87l-0.386,1.72L62.532,54.662z M64.084,61.57l-0.269-1.194l-11.047,8.819
	h1.765L64.084,61.57z M61.774,51.289l-0.269-1.196l-9.935,7.932l-0.386,1.72L61.774,51.289z M64.853,64.992l-0.269-1.197l-6.764,5.4
	h1.768L64.853,64.992z M65.613,68.38l-0.269-1.195l-2.519,2.011h1.766L65.613,68.38z M57.936,34.198l-0.269-1.195l-0.583,0.465
	l-0.386,1.718L57.936,34.198z M58.693,37.571l-0.27-1.197l-2.427,1.938l-0.386,1.72L58.693,37.571z M61.014,47.902l-0.269-1.196
	l-8.082,6.452l-0.386,1.718L61.014,47.902z M63.039,56.921L49.368,67.835l-0.305,1.36h0.369l13.877-11.078L63.039,56.921z
	 M59.469,41.026L59.2,39.83l-4.318,3.447l-0.386,1.719L59.469,41.026z M60.245,44.481l-0.269-1.196l-6.209,4.957l-0.386,1.718
	L60.245,44.481z M112.147,66.077L88.633,84.851l0.315,1.156l24.438-19.511v-1.424l-1.247,0.995L112.147,66.077z M67.66,86.845
	h-1.769L32.643,113.39h1.766L67.66,86.845z M62.653,86.845h-1.766l-21.262,16.975l-0.236,0.802h-0.769l-10.983,8.769h1.767
	L62.653,86.845z M35.335,104.621h-1.766l-10.983,8.769h1.766L35.335,104.621z M70.792,88.32l-0.329-1.148l-32.84,26.218h1.768
	L70.792,88.32z M71.744,91.637l-0.33-1.148L42.729,113.39h1.768L71.744,91.637z M72.694,94.949l-0.329-1.146L47.833,113.39h1.762
	L72.694,94.949z M23.853,93.69l0.502-1.812L0,111.322v1.412L23.853,93.69z M25.302,88.459l0.502-1.812L0,107.247v1.411
	L25.302,88.459z M30.231,104.621h-1.768l-10.984,8.769h1.769L30.231,104.621z M73.636,98.232l-0.328-1.146l-20.42,16.303h1.765
	L73.636,98.232z M20.998,103.999l0.501-1.812L7.467,113.39h1.768L20.998,103.999z M25.127,104.621h-1.765l-10.983,8.769h1.765
	L25.127,104.621z M4.231,113.39l18.187-14.52l0.502-1.811L2.465,113.39H4.231z M113.387,98.644v-1.411L93.147,113.39h1.769
	L113.387,98.644z M113.387,102.716v-1.412L98.249,113.39h1.768L113.387,102.716z M113.387,94.568v-1.41L88.045,113.39h1.767
	L113.387,94.568z M74.568,101.484l-0.329-1.148l-16.35,13.054h1.767L74.568,101.484z M113.387,106.751v-1.409l-10.081,8.048h1.766
	L113.387,106.751z M113.387,110.746v-1.411l-5.079,4.055h1.768L113.387,110.746z M80.725,104.621h-1.768l-10.982,8.769h1.767
	L80.725,104.621z M75.62,104.621h-0.151l-0.301-1.049L62.87,113.39h1.767L75.62,104.621z M113.387,90.65v-1.411l-30.251,24.15h1.768
	L113.387,90.65z M85.828,104.621h-1.768l-10.983,8.769h1.768L85.828,104.621z M90.879,104.621h-1.763l-10.983,8.769h1.764
	L90.879,104.621z M48.233,5.668l0.435-1.571h1.533l5.127-4.093h-1.766L0,42.764v1.411L48.233,5.668z M50.348,0.003h-1.767L0,38.788
	v1.411L50.348,0.003z M15.043,0.003h-1.767L0,10.602v1.411L15.043,0.003z M46.784,10.9l0.501-1.81L0,46.841v1.41L46.784,10.9z
	 M26.751,83.228l0.501-1.812L0,103.173v1.411L26.751,83.228z M43.9,21.312l0.502-1.813L0,54.948v1.411L43.9,21.312z M45.335,16.131
	l0.502-1.811L0,50.914v1.41L45.335,16.131z M25.101,0.003h-1.767L0,18.632v1.411L25.101,0.003z M20.097,0.003H18.33L0,14.637v1.41
	L20.097,0.003z M35.186,0.003h-1.766L0,26.684v1.41L35.186,0.003z M30.082,0.003h-1.766L0,22.608v1.41L30.082,0.003z M40.291,0.003
	h-1.769L0,30.757v1.411L40.291,0.003z M45.343,0.003h-1.767L0,34.792v1.411L45.343,0.003z M32.469,62.581l0.501-1.811L0,87.093
	v1.409L32.469,62.581z M31.021,67.813l0.501-1.812L0,91.166v1.41L31.021,67.813z M28.165,78.122l0.502-1.813L0,99.196v1.412
	L28.165,78.122z M42.479,26.441l0.501-1.81L0,58.944v1.41L42.479,26.441z M29.586,72.992l0.501-1.811L0,95.201v1.41L29.586,72.992z
	 M33.918,57.351l0.501-1.812L0,83.018v1.411L33.918,57.351z M35.333,52.243l0.501-1.81L0,79.041v1.41L35.333,52.243z M39.637,36.702
	l0.501-1.809L0,66.938v1.409L39.637,36.702z M41.086,31.472l0.502-1.811L0,62.861v1.411L41.086,31.472z M38.188,41.933l0.501-1.81
	L0,71.011v1.409L38.188,41.933z M36.754,47.113l0.502-1.813L0,75.045v1.411L36.754,47.113z"/>
</svg>
