<svg version="1.1" id="KONTRAST" xmlns="http://www.w3.org/2000/svg" xmlns:xlink="http://www.w3.org/1999/xlink" x="0px" y="0px"
	 width="113.391px" height="113.391px" viewBox="0 0 113.391 113.391" enable-background="new 0 0 113.391 113.391"
	 xml:space="preserve">
<path id="L4" fill="#888A8C" d="M56.523,27.865H28.688V84.56h27.835h0.2V27.865H56.523z"/>
<path id="L3" fill="#DADBDC" d="M28.563,27.823H56.71V0H0v113.391h56.708V84.518H28.563V27.823z"/>
<path id="L2" fill="#FFFFFF" d="M56.699,1.114v81.198c0.063,0,0.126,0-0.017,0V27.85h28.55v56.693H56.887l0,0
	c-0.062,0-0.125-0.016-0.188-0.016v27.335h55.44V1.114H56.699z"/>
<path id="L1" d="M113.391,0.005v113.386H56.699v-1.526h55.44V1.114h-55.44V0.005H113.391z M56.887,27.85v56.693h28.347V27.85H56.887
	z M56.912,27.829H56.71v56.691h0.202V27.829z"/>
</svg>
