<svg version="1.1" xmlns="http://www.w3.org/2000/svg" xmlns:xlink="http://www.w3.org/1999/xlink" x="0px"
	 y="0px" width="142.39px" height="113.391px" viewBox="0 0 142.39 113.391" enable-background="new 0 0 113.391 113.391"
	 xml:space="preserve">
<path id="L1" d="M85.821,23.275h23.245V0h9.582v23.274h23.242v9.582h-23.242v23.212h-9.582V32.857H85.821 M33.258,44.304
	c5.372-0.981,8.935-6.133,7.954-11.508c-0.979-5.375-6.134-8.934-11.507-7.954c-5.376,0.981-8.937,6.133-7.956,11.508
	C22.731,41.725,27.883,45.287,33.258,44.304z M102.602,34.727c-11.063,0.188-11.063,0.188-11.063,0.188l7.471,42.429L21.779,90.96
	L9.962,23.946l77.231-13.618l1.972,11.184c11.093-0.003,0,0,11.093-0.003l-3.869-21.96L0,16.544l16.996,96.39l96.391-16.997
	L102.602,34.727z M67.637,67.157L54.703,56.785l-8.96,14.583L34.479,60.543l-5.162,23.938l65.043-11.47L75.289,41.02L67.637,67.157z
	"/>
</svg>
