<?xml version="1.0" encoding="iso-8859-1"?>
<!-- Generator: Adobe Illustrator 16.0.4, SVG Export Plug-In . SVG Version: 6.00 Build 0)  -->
<!DOCTYPE svg PUBLIC "-//W3C//DTD SVG 1.1//EN" "http://www.w3.org/Graphics/SVG/1.1/DTD/svg11.dtd">
<svg version="1.1" id="Capa_1" xmlns="http://www.w3.org/2000/svg" xmlns:xlink="http://www.w3.org/1999/xlink" x="0px" y="0px"
	 width="87.859px" height="87.859px" viewBox="0 0 87.859 87.859" style="enable-background:new 0 0 87.859 87.859;"
	 xml:space="preserve">
<g id="Marker">
	<g>
		<path d="M80.937,40.483C79.294,22.713,65.093,8.528,47.312,6.917V0h-6.757v6.918C22.773,8.528,8.572,22.714,6.93,40.483H0v6.757
			h6.919c1.582,17.838,15.81,32.087,33.636,33.702v6.917h6.757v-6.917c17.826-1.614,32.054-15.863,33.636-33.702h6.912v-6.757
			H80.937z M47.312,74.146v-6.557h-6.757v6.557C26.457,72.58,15.242,61.345,13.708,47.24h6.566v-6.757h-6.549
			c1.591-14.041,12.777-25.21,26.829-26.771v6.564h6.757v-6.564c14.053,1.56,25.239,12.729,26.83,26.771h-6.556v6.757h6.573
			C72.625,61.345,61.409,72.58,47.312,74.146z M43.934,33.727c-5.595,0-10.135,4.533-10.135,10.131
			c0,5.599,4.54,10.139,10.135,10.139s10.135-4.54,10.135-10.139C54.068,38.26,49.528,33.727,43.934,33.727z"/>
	</g>
</g>
</svg>
