<svg version="1.1" id="mieszaj" xmlns="http://www.w3.org/2000/svg" xmlns:xlink="http://www.w3.org/1999/xlink" x="0px" y="0px"
	 width="113.39px" height="113.39px" viewBox="0 0 113.39 113.39" enable-background="new 0 0 113.39 113.39" xml:space="preserve">
<path id="L1" d="M24.875,73.375c-9.688,0-10.375,0-10.375,0V65.25h10.75c0,0,8.5,0.406,8.5-6.5c0-2.672,0-5.732,0-8.625h0.006
	c0-4.057,0-7.5,0-7.5s-0.833-13.5,17-13.5c4.089,0,6.563,0,8.07,0l-0.013-11.104l13.685,15.552l-13.65,15.521L58.835,37.25h-8.454
	c0,0-8.5-0.406-8.5,6.5c0,2.672,0,5.732,0,8.625h-0.006c0,4.057,0,7.5,0,7.5S42.708,73.375,24.875,73.375z M34.306,32.604
	c1.853-2.232,4.255-3.458,4.255-3.458L14.349,29.13v8.141l17.958-0.001C32.306,37.27,32.473,34.812,34.306,32.604z M58.826,65.25
	l-14.493,0.001c0,0-0.167,2.458-2,4.666c-1.853,2.232-4.255,3.458-4.255,3.458l20.757,0.015l0.013,11.329l13.65-15.521
	L58.813,53.646L58.826,65.25z"/>
</svg>
