<?xml version="1.0" encoding="utf-8"?>
<!-- Generator: Adobe Illustrator 16.0.4, SVG Export Plug-In . SVG Version: 6.00 Build 0)  -->
<!DOCTYPE svg PUBLIC "-//W3C//DTD SVG 1.1//EN" "http://www.w3.org/Graphics/SVG/1.1/DTD/svg11.dtd">
<svg version="1.1" id="Layer_1" xmlns="http://www.w3.org/2000/svg" xmlns:xlink="http://www.w3.org/1999/xlink" x="0px" y="0px"
	 width="43.395px" height="106.898px" viewBox="0 0 43.395 106.898" enable-background="new 0 0 43.395 106.898"
	 xml:space="preserve">
<path d="M42.813,92.821c-0.332,0.302-0.752,0.449-1.169,0.449c-0.479,0-0.957-0.192-1.302-0.578l-7.481-8.312l-7.779,8.337
	c-0.346,0.368-0.812,0.555-1.278,0.555c-0.427,0-0.857-0.154-1.193-0.471c-0.707-0.659-0.746-1.769-0.086-2.476l9.082-9.731
	c0.02-0.021,0.045-0.027,0.063-0.046c0.02-0.021,0.024-0.045,0.045-0.062c0.057-0.049,0.125-0.065,0.183-0.104v-5.647l-17.5,17.5
	v-4.947l16.981-16.983l-11.246,7.065l-5.736-22.046v-3.476v-3.474l6.829,26.243l10.671-6.707l3.5-2.201l3.562-2.238l-3.562-13.374
	l-3.5-13.143L22.726,2.52L2.285,1.83l10.86,41.739c-0.314-0.266-0.672-0.478-1.065-0.62c-0.304-0.11-0.621-0.176-0.955-0.198L0,0
	l24.083,0.813l8.476,31.825c0.302-0.245,0.669-0.411,1.087-0.411c0.966,0,1.75,0.784,1.75,1.75v9.317l5.584,20.972l-5.584,3.509
	v13.452c0,0.212-0.051,0.41-0.121,0.601l7.669,8.522C43.591,91.067,43.535,92.176,42.813,92.821z M14.316,95.957l-0.027-0.029
	l-1.516-1.684c-0.018-0.021-0.042-0.026-0.062-0.048c-0.02-0.019-0.026-0.045-0.045-0.062c-0.005-0.009-0.015-0.009-0.021-0.017
	V93.96v-4.928V48.595v-2.368c0-0.707-0.423-1.311-1.028-1.585c-0.222-0.102-0.463-0.165-0.722-0.165c-0.968,0-1.75,0.784-1.75,1.75
	v49c0,0.033,0.019,0.062,0.02,0.097l-0.008,0.008l-1.371,1.469l-6.675,7.15c-0.659,0.707-0.62,1.813,0.085,2.475
	c0.337,0.314,0.768,0.472,1.194,0.472c0.467,0,0.936-0.187,1.279-0.556l7.115-7.623l0.667-0.715l0.491,0.549l6.989,7.767
	c0.345,0.387,0.823,0.579,1.302,0.579c0.417,0,0.836-0.147,1.169-0.448c0.72-0.646,0.777-1.755,0.13-2.473L14.316,95.957z
	 M26.475,36.999c0.17-0.384-1.844-1.648-4.497-2.823s-4.942-1.816-5.113-1.431c-0.171,0.384,1.843,1.647,4.497,2.822
	C24.017,36.743,26.305,37.383,26.475,36.999z M16.188,36.344c-0.17,0.384,2.812,2.077,6.661,3.781
	c3.85,1.704,7.106,2.772,7.276,2.389s-2.812-2.077-6.661-3.781C19.617,37.028,16.358,35.959,16.188,36.344z"/>
</svg>
