<?xml version="1.0" encoding="utf-8"?>
<!-- Generator: Adobe Illustrator 16.0.4, SVG Export Plug-In . SVG Version: 6.00 Build 0)  -->
<!DOCTYPE svg PUBLIC "-//W3C//DTD SVG 1.1//EN" "http://www.w3.org/Graphics/SVG/1.1/DTD/svg11.dtd">
<svg version="1.1" id="Capa_1" xmlns="http://www.w3.org/2000/svg" xmlns:xlink="http://www.w3.org/1999/xlink" x="0px" y="0px"
	 width="52px" height="52px" viewBox="0 0 52 52" enable-background="new 0 0 52 52" xml:space="preserve">
<path d="M44.014,9.9c-0.82,0.036-1.266-0.158-1.393-0.308c-0.104-0.123-0.064-0.36-0.057-0.4c0.343-1.755,0.147-3.164-0.582-4.189
	c-0.782-1.1-1.857-1.304-2-1.321l-5.637-1.084c-1.563-0.434-2.83-0.307-3.769,0.377c-1.188,0.867-1.267,2.239-1.272,2.437
	c0,0.215-0.062,0.414-0.151,0.583c-0.156,0.298-1.25,0.26-2.321-0.006c-2.688-0.67-7.257-1.827-10.604-2.678
	c-0.039-0.011-0.079-0.02-0.119-0.026c-1.959-0.313-3.22,0.888-3.939,2.213c-0.527,0.971-1.556,1.658-2.629,1.397
	C7.474,6.392,5.838,6.002,5.838,6.002C2.864,5.097,3.307,7.01,3.307,7.01l4.806,26.628c0.196,1.087,1.164,2.353,2.161,2.828
	l27.649,13.173c0.997,0.476,2.147,0.032,2.516-1.009c0.882-2.488,2.496-7.804,4.337-17.953c0.886-4.887,1.804-9.941,2.791-14.664
	c0.441-2.116,0.189-3.748-0.75-4.852C45.711,9.862,44.148,9.901,44.014,9.9z M16.669,29.594l-0.6-5.851
	c-0.112-1.099,0.556-1.515,1.493-0.93l5.172,3.231c0.937,0.585,0.926,1.517-0.024,2.079l-4.117,2.44
	C17.644,31.127,16.782,30.692,16.669,29.594z M42.09,30.188c-0.836,4.614-1.74,9.595-2.526,13.083
	c-0.243,1.077-0.575,1.056-0.708-0.041c-1.115-9.18-2.854-23.3-3.076-24.91c-0.786-5.739-1.609-5.111-3.939-5.6
	c-2.525-0.528-2.24,1.558-2.24,1.558c0.056,0.637-0.016,1.109-0.146,1.458c-0.284,0.765-1.877,0.711-2.932,0.383
	c-2.04-0.634-5.073-1.578-5.758-1.792c-1.054-0.328-1.646-3.612-1.646-3.612s-0.104-1.303-1.364-1.726
	c-0.304-0.102-0.958-0.281-1.811-0.503c-1.004-0.262-1.815-0.481-1.805-0.5c0.006-0.011,0.012-0.023,0.014-0.036
	c0.002-0.012,0.151-0.682,0.466-1.24c0.361-0.639,1.879-0.519,2.952-0.254c8.303,2.046,12.391,2.577,12.998,2.064
	c0.918-0.777,1.467-1.94,1.465-3.026c0-0.002,0.025-0.229,0.162-0.319c0.178-0.121,0.656-0.168,1.464,0.063
	c0.039,0.011,0.077,0.021,0.116,0.027l5.695,1.095c0.411,0.109,0.699,0.864,0.434,2.235c-0.039,0.152-0.35,1.517,0.572,2.682
	c0.728,0.92,1.953,1.348,3.621,1.351c0.008,0,0.4,0.018,0.643,0.302c0.348,0.41,0.404,1.33,0.154,2.523
	C43.898,20.212,42.979,25.283,42.09,30.188z"/>
</svg>
