<svg version="1.1" id="NIEULUBIONE" xmlns="http://www.w3.org/2000/svg" xmlns:xlink="http://www.w3.org/1999/xlink" x="0px"
	 y="0px" width="113.391px" height="113.391px" viewBox="0 0 113.391 113.391" enable-background="new 0 0 113.391 113.391"
	 xml:space="preserve">
<g id="L1">
	<path d="M82.033,11.524c-7.279,0.545-14.125,3.893-20.019,8.03c-2.183,1.532-10.46,7.406-12.445,9.184
		c1.611,3.612,4.343,9.564,6.549,14.419c-8.366,4.655-16.731,9.308-25.097,13.963c-3.602,2.003-2.828,6.479,0,8.635
		c7.714,5.883,14.522,10.995,22.236,16.878l-11.438,6.25c-4.237-3.278-10.634-8.535-14.427-12.327
		C21.37,70.535,16.29,63.582,12.748,55.821c-4.61-10.104-3.361-20.726,4.257-28.899c8.394-9.006,19.169-5.892,26.107-0.892l9-5.917
		C41.279,11.862,28.61,8.865,17.074,14.44C4.098,20.712-1.38,36.113,0.516,49.539C2.12,60.904,9.354,71.298,16.708,79.754
		c2.804,3.223,5.889,6.124,9.107,8.924c3.364,2.924,6.905,5.642,10.446,8.344l4.996,3.861c10.688-5.187,15.271-7.771,21.125-11.938
		c4.983-3.548,2.717-9.571,0.188-11.5c-7.484-5.707-12.473-9.624-19.957-15.332c7.484-4.163,14.969-8.326,22.453-12.49
		c2.57-1.432,2.887-4.396,1.794-6.842c-1.56-3.498-3.121-6.995-4.683-10.492c0.681-0.631,1.361-1.29,2.106-1.928
		c4.063-3.478,8.814-6.354,13.919-7.979c15.454-4.918,27.397,11.355,24.863,25.661c-4.229,23.885-35.371,46.318-56.543,56.448
		c0,0,0,0,6.703,4.469c3.774,2.517,5.727,0.842,7.047,0c23.304-14.877,51.322-36.021,53.187-64.271
		C114.593,27.53,99.653,10.207,82.033,11.524z"/>
	<path d="M79.063,75.062c13.039-14.457,13.539-15.445,16.721-20.59c2.906-4.701,7.375-23-8.625-27.377
		c-13.549-3.706-20.25,6.502-20.25,6.502c13.25-9,36.93-2.199,24.911,21.268C86.815,64.64,82.219,71.151,79.063,75.062z"/>
	<path d="M79.063,75.062c-1.299,1.439-2.717,3.008-4.279,4.732C74.783,79.794,76.416,78.341,79.063,75.062z"/>
</g>
</svg>
