<?xml version="1.0" encoding="iso-8859-1"?>
<!-- Generator: Adobe Illustrator 19.0.0, SVG Export Plug-In . SVG Version: 6.00 Build 0)  -->
<svg version="1.1" id="Capa_1" xmlns="http://www.w3.org/2000/svg" xmlns:xlink="http://www.w3.org/1999/xlink" x="0px" y="0px"
	 viewBox="0 0 502.698 502.698" style="enable-background:new 0 0 502.698 502.698;" xml:space="preserve">
<g>
	<g>
		<path style="fill:red;" d="M478.612,71.398c-0.496-1.812-12.942-43.961-64.346-51.533
			c-39.992-5.867-133.394-4.81-154.663,6.709L237.581,40.25c0,0-29.293,17.062-29.358,17.062
			c-3.322,1.079-18.055,1.877-43.875,0.604v-13.46H0v243.922h164.305v-2.847c22.218,11.131,48.815,29.207,63.634,52.137
			c20.363,31.148,34.384,69.911,44.479,98.169c12.295,34.19,17.408,48.319,32.27,49.958c37.447,4.185,63.785-16.372,70.342-55.005
			c1.683-9.621,2.438-19.047,2.438-28.15c0-33.241-9.383-60.786-17.796-79.79c22.52,0,49.785,0,49.785,0
			c41.459,0,70.213-18.788,85.377-55.739C518.087,210.853,482.776,85.376,478.612,71.398z M465.044,254.857
			c-10.117,24.72-27.33,35.764-55.545,35.764H303.63l16.437,24.979c0.259,0.453,25.152,38.935,25.152,87.297
			c0,7.291-0.582,14.841-1.855,22.541c-3.387,19.457-12.403,28.473-28.775,28.603c-2.222-5.565-11.734-29.121-11.734-29.121
			c-10.678-29.811-25.41-70.601-47.758-104.899c-23.318-35.721-64.389-58.716-90.748-69.436V89.927
			c26.187,1.23,45.471,0.82,54.078-2.028l37.015-20.73c0,0,19.522-12.274,19.392-12.209c11.842-5.673,91.697-9.491,134.817-3.149
			c30.178,4.4,37.77,27.503,38.051,28.452C457.883,115.639,481.093,215.965,465.044,254.857z"/>
	</g>
</g>
</svg>
