<?xml version="1.0" encoding="utf-8"?>
<!-- Generator: Adobe Illustrator 15.0.0, SVG Export Plug-In . SVG Version: 6.00 Build 0)  -->
<!DOCTYPE svg PUBLIC "-//W3C//DTD SVG 1.1//EN" "http://www.w3.org/Graphics/SVG/1.1/DTD/svg11.dtd">
<svg version="1.1" id="OBROC" xmlns="http://www.w3.org/2000/svg" xmlns:xlink="http://www.w3.org/1999/xlink" x="0px" y="0px"
	 width="113.391px" height="113.391px" viewBox="0 0 113.391 113.391" enable-background="new 0 0 113.391 113.391"
	 xml:space="preserve">
<path id="obroc" d="M55.837,48.813l21.941-24.401L56.415-0.411l-0.178,16.78c-0.018,0-0.036-0.002-0.053-0.002
	C29.279,16.08,7.236,37.659,6.949,64.561C6.664,91.467,28.24,113.51,55.147,113.796c26.907,0.287,49.232-22.399,49.232-51.266
	H91.096c0,21.973-16.242,38.191-35.808,37.981c-19.567-0.208-35.259-16.241-35.051-35.808c0.208-19.565,16.238-35.258,35.806-35.051
	c0.017,0.002,0.035,0.001,0.052,0.004"/>
</svg>
