<?xml version="1.0" encoding="UTF-8" standalone="no"?>
<svg
   xmlns:dc="http://purl.org/dc/elements/1.1/"
   xmlns:cc="http://creativecommons.org/ns#"
   xmlns:rdf="http://www.w3.org/1999/02/22-rdf-syntax-ns#"
   xmlns:svg="http://www.w3.org/2000/svg"
   xmlns="http://www.w3.org/2000/svg"
   xmlns:sodipodi="http://sodipodi.sourceforge.net/DTD/sodipodi-0.dtd"
   xmlns:inkscape="http://www.inkscape.org/namespaces/inkscape"
   version="1.1"
   id="odtwarzacz"
   x="0px"
   y="0px"
   width="113.02605"
   height="28.343254"
   viewBox="0 0 113.02605 28.343254"
   enable-background="new 0 0 113.391 113.391"
   xml:space="preserve"
   inkscape:version="0.48.5 r10040"
   sodipodi:docname="odtwarzacznapis.svg"><metadata
     id="metadata8"><rdf:RDF><cc:Work
         rdf:about=""><dc:format>image/svg+xml</dc:format><dc:type
           rdf:resource="http://purl.org/dc/dcmitype/StillImage" /><dc:title></dc:title></cc:Work></rdf:RDF></metadata><defs
     id="defs6" /><sodipodi:namedview
     pagecolor="#ffffff"
     bordercolor="#666666"
     borderopacity="1"
     objecttolerance="10"
     gridtolerance="10"
     guidetolerance="10"
     inkscape:pageopacity="0"
     inkscape:pageshadow="2"
     inkscape:window-width="1920"
     inkscape:window-height="1056"
     id="namedview4"
     showgrid="false"
     fit-margin-top="0"
     fit-margin-left="0"
     fit-margin-right="0"
     fit-margin-bottom="0"
     inkscape:zoom="4.1625879"
     inkscape:cx="125.07312"
     inkscape:cy="71.816826"
     inkscape:window-x="0"
     inkscape:window-y="24"
     inkscape:window-maximized="1"
     inkscape:current-layer="odtwarzacz" /><path
     id="L1"
     d="M 100.92297,0.16947252 C 100.24683,0.06999252 99.559185,-4.7911208e-7 98.855547,-4.7911208e-7 91.042786,-4.7911208e-7 84.684295,6.3572415 84.684295,14.171752 c 0,7.814263 6.357491,14.171503 14.171002,14.171503 0.703638,0 1.391283,-0.0692 2.067423,-0.16797 6.83491,-1.00734 12.10333,-6.89241 12.10333,-14.003533 C 113.0263,7.0623795 107.75888,1.1748135 100.92297,0.16947252 z M 93.686117,21.250625 V 7.0926245 L 107.85687,14.171002 93.686117,21.250625 z M 105.50324,4.3463105 c -3.1255,-2.349128 -6.557207,-2.162657 -6.557207,-2.162657 0,0 4.329067,-0.81837 7.799267,2.255142 4.17158,3.694664 3.10075,7.2598485 3.10075,7.2598485 0,0 0.46518,-3.7361575 -4.34281,-7.3523335 z"
     inkscape:connector-curvature="0"
     style="fill:#77787c;fill-opacity:1" /><text
     xml:space="preserve"
     style="font-size:11.09609509px;font-style:normal;font-weight:normal;line-height:125%;letter-spacing:0px;word-spacing:0px;fill:#77787c;fill-opacity:1;stroke:none;font-family:Sans"
     x="-0.62307173"
     y="17.943958"
     id="text4351"
     sodipodi:linespacing="125%"><tspan
       sodipodi:role="line"
       id="tspan4353"
       x="-0.62307173"
       y="17.943958">ODTWARZACZ</tspan></text>
</svg>