<?xml version="1.0" encoding="utf-8"?>
<!-- Generator: Adobe Illustrator 15.0.0, SVG Export Plug-In . SVG Version: 6.00 Build 0)  -->
<!DOCTYPE svg PUBLIC "-//W3C//DTD SVG 1.1//EN" "http://www.w3.org/Graphics/SVG/1.1/DTD/svg11.dtd">
<svg version="1.1" id="EDYTUJ" xmlns="http://www.w3.org/2000/svg" xmlns:xlink="http://www.w3.org/1999/xlink" x="0px" y="0px"
	 width="300px" height="300px" viewBox="0 0 113.39 113.39" enable-background="new 0 0 113.39 113.39" xml:space="preserve">
<g id="WLOS">
	<g id="w1">
		<g>
			<path d="M25.521,95.742c3.85-10.438,7.7-20.878,11.55-31.317c-0.966,0.259-1.932,0.519-2.897,0.777
				c14.084,5.125,28.168,10.251,42.252,15.377c0.894,0.325,3.031,0.486,2.638,1.581c-1.216,3.386-2.432,6.771-3.647,10.155
				c-2.479,6.904-4.959,13.808-7.439,20.712c0.966-0.259,1.933-0.519,2.898-0.777C55.756,106.748,40.638,101.245,25.521,95.742
				c-0.781-0.284-2.141,1.053-2.897,0.777c15.118,5.502,30.235,11.005,45.353,16.508c0.244,0.088,2.832-0.592,2.898-0.777
				c2.373-6.607,4.746-13.215,7.12-19.822c1.244-3.464,2.488-6.928,3.732-10.392c0.634-1.765-0.21-1.436-1.937-2.063
				C65.551,74.79,51.311,69.607,37.07,64.425c-0.245-0.089-2.829,0.589-2.897,0.777c-3.85,10.438-7.7,20.878-11.55,31.317
				C22.816,95.995,25.314,96.301,25.521,95.742z"/>
		</g>
	</g>
	<g id="w2">
		<polygon points="27.76,97.474 39.191,66.112 41.625,66.998 30.222,98.369 		"/>
	</g>
	<g id="w3">
		<polygon points="33.916,99.715 45.348,68.353 47.869,69.271 36.465,100.641 		"/>
	</g>
	<g id="w4">
		<polygon points="38.511,101.387 49.957,70.03 54.85,71.812 43.458,103.188 		"/>
	</g>
	<g id="w5">
		<polygon points="65.737,111.296 77.14,79.922 74.705,79.038 63.276,110.4 		"/>
	</g>
	<g id="w6">
		<polygon points="54.785,107.311 66.185,75.938 63.229,74.859 51.798,106.223 		"/>
	</g>
	<g id="w7">
		<polygon points="59.583,109.057 70.985,77.684 68.461,76.766 57.033,108.128 		"/>
	</g>
	<g id="w8">
		<polygon points="50.04,105.582 61.442,74.21 58.98,73.315 47.553,104.678 		"/>
	</g>
</g>
<g id="RACZKA">
	<path d="M88.18,67.057c0,0,0.672-1.918,0.945-2.553c0.273-0.634,0.151-1.431-1.438-2.349c-1.587-0.918-22.901-11.05-5.436-32.411
		c4.915-6.012,11.662-25.895,2.292-29.201c-9.3-3.488-16.912,16.078-17.012,23.845c-0.349,27.589-23.19,21.651-24.998,21.332
		c-1.807-0.317-2.412,0.215-2.608,0.875c-0.2,0.664-0.92,2.565-0.92,2.565s-1.556-0.624-2.02,0.65
		c-0.542,1.5,1.052,1.853,1.052,1.853l-1.778,5.029c0,0-1.43-0.778-1.921,0.498c-0.508,1.322,1.058,1.714,1.058,1.714
		c-0.004,0.012-0.066,0.17-0.693,1.804c-1.306,3.407,0.918,4.105,0.918,4.105l45.087,16.409c0,0,2.153,0.896,3.343-2.554
		c0.571-1.655,0.626-1.815,0.629-1.827c0.001,0,1.453,0.704,1.914-0.633c0.443-1.294-1.152-1.616-1.152-1.616l1.87-4.994
		c0,0,1.449,0.753,1.996-0.745C89.772,67.581,88.18,67.057,88.18,67.057z M78.807,7.449c0.573-1.572,2.311-2.384,3.884-1.811
		c1.572,0.573,2.383,2.311,1.81,3.884c-0.571,1.572-2.311,2.382-3.881,1.81C79.045,10.76,78.235,9.021,78.807,7.449z M59.843,65.406
		l-23.193-8.442l0.259-0.709L60.1,64.696L59.843,65.406z M62.622,57.771l-23.193-8.443l0.258-0.709L62.88,57.06L62.622,57.771z"/>
</g>
</svg>
