<?xml version="1.0" encoding="utf-8"?>
<!-- Generator: Adobe Illustrator 16.0.4, SVG Export Plug-In . SVG Version: 6.00 Build 0)  -->
<!DOCTYPE svg PUBLIC "-//W3C//DTD SVG 1.1//EN" "http://www.w3.org/Graphics/SVG/1.1/DTD/svg11.dtd">
<svg version="1.1" id="Capa_1" xmlns="http://www.w3.org/2000/svg" xmlns:xlink="http://www.w3.org/1999/xlink" x="0px" y="0px"
	 width="300.438px" height="300.17px" viewBox="0 0 19.438 29.17" enable-background="new 0 0 19.438 29.17" xml:space="preserve">
<path d="M19.251,10.624c-0.913-3.811-4.858-5.015-9.944-4.235c-5.383,0.824-8.928,4.356-9.218,5.51
	c-0.119,0.476-0.246,1.079,0.532,1.888c0.776,0.806,2.074-0.218,3.046,0.789s0.105,1.97-1.126,2.438
	c-1.232,0.47-2.904,1.359-1.984,3.494c1.686,3.597,6.892,2.839,12.006,0.672C17.677,19.011,20.164,14.435,19.251,10.624z
	 M16.133,8.514c0.195-0.093,0.62-0.118,0.944-0.056c0.321,0.063,0.567,0.45,0.545,0.861c-0.022,0.411-0.262,0.936-0.525,1.166
	c-0.268,0.23-0.716,0.162-0.996-0.151s-0.47-0.813-0.417-1.109C15.733,8.927,15.937,8.606,16.133,8.514z M3.837,13.228
	c-0.351-0.907,0.481-2.071,1.856-2.6c1.375-0.53,2.773-0.225,3.123,0.683c0.351,0.906-0.481,2.07-1.856,2.6
	C5.585,14.441,4.187,14.133,3.837,13.228z M8.34,21.046c-0.691,0.201-1.357,0.055-1.48-0.324c-0.124-0.381-0.241-0.912-0.267-1.182
	c-0.023-0.271,0.261-0.688,0.631-0.932c0.371-0.24,1.076-0.173,1.566,0.152c0.488,0.324,0.872,0.889,0.849,1.254
	C9.615,20.382,9.03,20.847,8.34,21.046z M9.552,9.256C9.103,9.424,7.407,9.345,7.685,8.62c0.021-0.053,0,0,0.105-0.197
	c0.104-0.197,0.104-0.197,0.104-0.197C8.044,7.878,8.36,7.577,8.601,7.548C8.841,7.521,9.213,7.581,9.43,7.68
	c0.215,0.099,0.515,0.426,0.665,0.726C10.245,8.706,10.001,9.088,9.552,9.256z M12.957,18.843c-0.319,0.246-0.921,0.285-1.335,0.087
	c-0.414-0.2-0.756-0.605-0.763-0.906c-0.004-0.298,0.258-0.628,0.58-0.732c0.324-0.104,0.734-0.18,0.914-0.166
	c0.181,0.016,0.521,0.307,0.755,0.646C13.346,18.112,13.276,18.597,12.957,18.843z M13.438,9.095
	c-0.15,0.224-0.562,0.349-0.914,0.278c-0.352-0.071-0.682-0.432-0.732-0.801c-0.053-0.37,0.121-0.842,0.384-1.048
	c0.265-0.206,0.642-0.266,0.838-0.133c0.194,0.133,0.434,0.479,0.528,0.769C13.636,8.451,13.59,8.872,13.438,9.095z M16.205,17.437
	c0,0,0,0-0.165-0.021c-0.165-0.021-0.165-0.021-0.165-0.021c-0.592-0.456-1.06-1.027-1.036-1.273
	c0.021-0.246,0.243-0.549,0.491-0.672s0.672-0.104,0.94,0.041c0.271,0.146,0.491,0.559,0.491,0.916
	C16.763,16.766,16.511,17.227,16.205,17.437z M17.954,13.935c-0.211,0.35-0.645,0.534-0.958,0.41
	c-0.314-0.124-0.494-0.765-0.396-1.423c0.099-0.658,0.393-1.159,0.653-1.112c0.263,0.047,0.615,0.401,0.782,0.787
	C18.201,12.983,18.165,13.585,17.954,13.935z"/>
</svg>
