<svg version="1.1" id="PANEL_GŁÓWNY" xmlns="http://www.w3.org/2000/svg" xmlns:xlink="http://www.w3.org/1999/xlink" x="0px"
	 y="0px" width="113.391px" height="113.391px" viewBox="0 0 113.391 113.391" enable-background="new 0 0 113.391 113.391"
	 xml:space="preserve">
<path id="L1" d="M29.883,45.845v21.952c0,2.185-1.778,3.963-3.963,3.963H3.968c-2.185,0-3.964-1.778-3.964-3.963V45.845
	c0-2.185,1.779-3.964,3.964-3.964h21.951C28.104,41.881,29.883,43.66,29.883,45.845z M67.8,41.881H45.85
	c-2.186,0-3.964,1.779-3.964,3.964v21.952c0,2.185,1.778,3.963,3.964,3.963H67.8c2.186,0,3.965-1.778,3.965-3.963V45.845
	C71.765,43.66,69.985,41.881,67.8,41.881z M109.426,41.881h-21.95c-2.186,0-3.964,1.779-3.964,3.964v21.952
	c0,2.185,1.778,3.963,3.964,3.963h21.95c2.186,0,3.965-1.778,3.965-3.963V45.845C113.391,43.66,111.611,41.881,109.426,41.881z"/>
</svg>
