<svg version="1.1" id="PODGLĄD" xmlns="http://www.w3.org/2000/svg" xmlns:xlink="http://www.w3.org/1999/xlink" x="0px" y="0px"
	 width="113.391px" height="113.391px" viewBox="0 0 113.391 113.391" enable-background="new 0 0 113.391 113.391"
	 xml:space="preserve">
<path id="L1" d="M101.683,69.073c-3.649,9.386-13.398,13.789-22.731,9.678c-8.979-3.95-12.975-14.657-9.902-23.703
	c3.243-9.559,13.703-13.652,22.731-9.677C100.756,49.321,104.752,60.029,101.683,69.073c-1.13,3.325,5.213,2.52,6.048,0.055
	c4.187-12.33-2.313-24.736-14.51-28.877c-12.021-4.081-25.75,3.244-30.223,14.743C58.273,67.14,65.717,79.868,77.51,83.872
	c12.021,4.081,25.747-3.244,30.221-14.744C108.994,65.878,102.623,66.651,101.683,69.073z M93.418,50.679
	c0.541,0.311,1.063,0.684,1.558,1.112c0.229,0.195,0.874,0.838,0.659,0.619c-4.969-5.063,5.019,14.906,3.612,7.169
	c-0.057-0.302,0.101,0.607,0.137,0.918c0.486,4.141-0.729,8.909-4.765,13.27c12.354-11.497,3.39-22.352-0.642-24.669
	c-4.012-2.306-10.981-3.29-13.795-1.104C84.021,46.805,90.8,49.174,93.418,50.679z M70.633,59.711c0,0-1.816,5.25,4.015,11.943
	c3.791,4.351,8.805,5.133,8.805,5.133s-6.501-0.146-10.568-5.646C67.994,64.53,70.633,59.711,70.633,59.711z M72.36,83.033
	l-9.52,26.149l-0.249-1.286l9.184-25.229c-0.405-0.268-0.797-0.538-1.169-0.815l-9.024,24.88c0,0-0.814,2.38,0.656,3.667
	c3.597,3.143,8.019,3.159,9.235,2.883c1.215-0.273,2.06-1.721,2.06-1.721l9.25-25.411C78.497,85.985,75.072,84.687,72.36,83.033z
	 M72.186,110.672c0,0-0.246,0.643-0.938,0.687c-0.771,0.046-1.981-0.553-1.598-1.607c1.642-4.511,8.621-23.688,8.623-23.688
	l2.725,0.396L72.186,110.672z M93.89,25.071L68.841,0.022l-2.068-0.003v27.548v0.034h28.044v-0.354v-1.25L93.89,25.071z
	 M69.304,25.071V4.064l21.007,21.007H69.304z M94.648,84.639v16.418l-0.005,2.531H78.548l0.907-2.531h12.663V85.446L94.648,84.639z
	 M94.724,29.489v2.531v7.154l-2.53-0.594V32.02H63.027v-0.003h-0.845V2.538h-41.7v98.529H61.71l-1.011,2.531l-42.748,0.003V0.005
	h2.53v0.002h44.222v0.294h0.01v29.187L94.724,29.489L94.724,29.489z M39.839,23.529h-16.5v-16.5h16.5V23.529z M59.57,23.446h-16.5
	v-16.5h16.5V23.446z M27.756,44.142H23.54v-3.951h4.216V44.142z M27.756,59.892H23.54v-3.951h4.216V59.892z M27.672,75.475h-4.216
	v-3.951h4.216V75.475z M27.589,91.058h-4.216v-3.951h4.216V91.058z M35.708,44.142h-4.216v-3.951h4.216V44.142z M35.708,59.892
	h-4.216v-3.951h4.216V59.892z M35.625,75.475H31.41v-3.951h4.215V75.475z M35.542,91.058h-4.217v-3.951h4.217V91.058z
	 M43.741,44.183h-4.216v-3.951h4.216V44.183z M43.741,59.934h-4.216v-3.952h4.216V59.934z M43.657,75.516h-4.216v-3.951h4.216
	V75.516z M43.574,91.1h-4.216v-3.951h4.216V91.1z M51.808,44.173h-4.216v-3.951h4.216V44.173z M51.808,59.923h-4.216v-3.951h4.216
	V59.923z M51.724,75.506h-4.216v-3.951h4.216V75.506z M51.641,91.089h-4.216v-3.951h4.216V91.089z M59.84,44.184h-4.216v-3.951
	h4.216V44.184z M59.84,59.934h-4.216v-3.951h4.216V59.934z M59.756,75.517H55.54v-3.951h4.216V75.517z M59.672,91.1h-4.215v-3.951
	h4.215V91.1z M67.839,44.183h-4.215v-3.951h4.215V44.183z M66.195,91.1h-2.738v-3.951h4.216L66.195,91.1z"/>
</svg>
