<svg version="1.1" id="PODGLĄD" xmlns="http://www.w3.org/2000/svg" xmlns:xlink="http://www.w3.org/1999/xlink" x="0px" y="0px"
	 width="113.391px" height="113.391px" viewBox="0 0 113.391 113.391" enable-background="new 0 0 113.391 113.391"
	 xml:space="preserve">
<path id="L1" d="M63.749,77.113c-0.136,0.053-0.315,0.082-0.554,0.082c0.015-0.028,0.016-0.054,0.028-0.082H63.749z M66.419,93.385
	h0.005l0.01-0.029L66.419,93.385z M68.785,0.037v25.568h26.076L68.785,0.037z M66.434,93.356l4.173-11.505
	c0.372,0.278,0.765,0.549,1.169,0.816l-9.184,25.229l0.249,1.286l9.52-26.149c2.713,1.653,6.138,2.951,10.424,3.116l-9.25,25.411
	c0,0-0.846,1.447-2.061,1.721c-1.217,0.276-5.639,0.261-9.235-2.883c-1.471-1.287-0.655-3.667-0.655-3.667l4.841-13.346 M81,86.458
	l-2.726-0.396c-0.003,0.002-6.981,19.178-8.624,23.689c-0.384,1.055,0.826,1.652,1.599,1.606c0.69-0.044,0.938-0.687,0.938-0.687
	L81,86.458z M93.979,49.098c-4.012-2.306-10.981-3.291-13.795-1.104c3.838-1.189,10.617,1.18,13.236,2.685
	c0.541,0.31,1.063,0.683,1.558,1.112c0.094,0.08,0.257,0.234,0.403,0.375c-4.189-3.926,4.645,13.799,3.968,8.063
	c0.016,0.104,0.029,0.201,0.037,0.268c0.486,4.141-0.729,8.909-4.765,13.27C106.974,62.27,98.01,51.415,93.979,49.098z
	 M107.73,69.128c-4.474,11.5-18.2,18.825-30.221,14.744C65.718,79.868,58.273,67.14,62.999,54.993
	C67.472,43.494,81.2,36.169,93.222,40.25C105.419,44.391,111.918,56.797,107.73,69.128z M101.683,69.072
	c3.069-9.044-0.927-19.752-9.902-23.701c-9.027-3.977-19.487,0.117-22.73,9.677c-3.072,9.046,0.924,19.753,9.902,23.703
	C88.285,82.861,98.034,78.458,101.683,69.072z M85.069,86.508l-6.125,17.316h15.917v-19.38c-0.994,0.422-3.104,1.063-4.917,1.417
	C88.335,86.177,85.069,86.508,85.069,86.508z M74.647,71.654c-5.831-6.692-4.015-11.942-4.015-11.942s-2.638,4.818,2.252,11.43
	c4.067,5.5,10.568,5.646,10.568,5.646S78.438,76.005,74.647,71.654z M94.861,27.962L94.861,27.962v9.899
	c0,0-12.21-3.188-22.558,2.329h-5.371v4.076h-0.12c-1.243,1.244-2.409,2.671-3.451,4.345c-1.808,2.904-2.982,5.64-3.688,8.2h-1.241
	v3.952h0.497c-0.348,3.565,0.225,6.717,1.241,9.412c0.425,1.123,0.836,2.021,1.379,2.984h-3.242v3.951h4.915
	c-0.013,0.028-0.014,0.055-0.028,0.083c0,0,0,0,0.001,0c-0.001,0-0.001,0.001-0.001,0.001c0.24,0,0.422-0.029,0.559-0.083h-0.004
	c0.001,0,0.003-0.001,0.004-0.001h0.539c2.276,2.719,4.402,4.167,4.402,4.167l-2.966,7.488l-1.494,4.617h0.023l-3.625,10.439H18.512
	L18.535,0H66.35v27.962H94.861z M41.307,44.142h4.388v-3.951h-4.388V44.142z M28.445,89.432h-3.582v3.952h3.582V89.432z
	 M28.445,73.16h-4.216v3.951h4.216V73.16z M28.57,56.812h-4.46v3.952h4.46V56.812z M28.445,44.142v-3.951h-4.216v3.951H28.445z
	 M37.07,89.432h-4.387v3.952h4.387V89.432z M37.07,73.16h-4.387v3.951h4.387V73.16z M37.195,56.812h-4.387v3.952h4.387V56.812z
	 M37.07,44.142v-3.951h-4.387v3.951H37.07z M40.529,7.029h-16.5v16.5h16.5V7.029z M45.695,89.432h-4.388v3.952h4.388V89.432z
	 M45.695,73.16h-4.388v3.951h4.388V73.16z M45.82,56.812h-4.388v3.952h4.388V56.812z M54.07,89.432h-4.138v3.952h4.138V89.432z
	 M54.07,73.16h-4.138v3.951h4.138V73.16z M54.195,56.812h-4.139v3.952h4.139V56.812z M54.07,44.142v-3.951h-4.138v3.951H54.07z
	 M58.308,89.432v3.952h4.388v-3.952H58.308z M61.112,23.446v-16.5h-16.5v16.5H61.112z M62.695,40.191h-4.388v3.951h4.388V40.191z"/>
</svg>
