<svg version="1.1" id="POKAZ_SLAJDOW" xmlns="http://www.w3.org/2000/svg" xmlns:xlink="http://www.w3.org/1999/xlink" x="0px"
	 y="0px" width="113.391px" height="113.391px" viewBox="0 0 113.391 113.391" enable-background="new 0 0 113.391 113.391"
	 xml:space="preserve">
<path id="L1" d="M49.688,6.553l-1.909,3.881l14.901,3.601l1.391-0.404L49.688,6.553z M103.528,33.049l-1.488,6.189l2.892,1.423
	l-5.826,12.401l-6.626,27.534l20.908-42.698L103.528,33.049z M64.268,89.115l-5.527,1.337l23.941,11.453l2.616-7.524L64.268,89.115z
	 M48.448,17.814l13.138-3.356L35.188,8.381l-3.184,13.663l6.997-1.888l0.994-4.285L48.448,17.814z M70.272,16.478l1.892,6.904
	l24.582,5.628L86.272,74.238l2.358,8.336l-22.387,5.894l22.094,5.092l16.015-69.161L70.272,16.478z M55.909,44.68l-3.937,19.431
	l-10.021-6.725l-5.599,11.128l-8.84-7.156l-3.378,18.605l48.728-13.481L55.909,44.68z M0.002,32.112l18.83,68.448l68.45-18.83
	l-18.83-68.45L0.002,32.112z M77.328,69.559L21.16,85.009l-13.368-48.6l56.167-15.451L77.328,69.559z M23.736,35.508
	c3.978,0,7.2,3.224,7.2,7.201c0,3.976-3.223,7.201-7.2,7.201c-3.977,0-7.201-3.226-7.201-7.201
	C16.535,38.732,19.76,35.508,23.736,35.508z"/>
</svg>
