<?xml version="1.0" encoding="utf-8"?>
<!-- Generator: Adobe Illustrator 15.0.0, SVG Export Plug-In . SVG Version: 6.00 Build 0)  -->
<!DOCTYPE svg PUBLIC "-//W3C//DTD SVG 1.1//EN" "http://www.w3.org/Graphics/SVG/1.1/DTD/svg11.dtd">
<svg version="1.1" id="ZNAKI_POLSKIE" xmlns="http://www.w3.org/2000/svg" xmlns:xlink="http://www.w3.org/1999/xlink" x="0px"
	 y="0px" width="113.391px" height="113.391px" viewBox="0 0 113.391 113.391" enable-background="new 0 0 113.391 113.391"
	 xml:space="preserve">
<path id="_x31_" d="M37.924,71.808h-8.521l-2.34-8.16H15.244l-2.4,8.16h-8.52L17.103,25.67h8.221L37.924,71.808z M24.964,55.549
	l-3.84-17.099l-3.84,17.099H24.964z M109.5,71.308H108.9c-3.239,2.101-3.84,4.561-2.819,5.76c0.358,0.42,1.5,1.141,3.72,0.54
	l0.3,5.88c-3.84,0.54-11.639,1.319-11.639-5.579c0-3.061,1.858-4.979,4.02-6.601h-1.5l-2.34-8.16H86.82l-2.398,8.16h-8.521
	L88.68,25.171h8.22L109.5,71.308z M96.541,55.049l-3.84-17.099l-3.841,17.099H96.541z M44.48,49.176v2.494h16.552l-0.02,6.479l0,0
	l7.897-8.974l-7.878-8.958l0,0v6.464H44.48V49.176z"/>
</svg>
