<svg version="1.1" id="poprzednia_x5F_playlista" xmlns="http://www.w3.org/2000/svg" xmlns:xlink="http://www.w3.org/1999/xlink"
	 x="0px" y="0px" width="113.391px" height="113.391px" viewBox="0 0 113.391 113.391" enable-background="new 0 0 113.391 113.391"
	 xml:space="preserve">
<path id="L1" d="M52.996,72.345H24.151v-0.084V60.615v-0.088h34.264C55.853,63.998,53.984,68.006,52.996,72.345z M88.723,22.232
	H24.068V10.5h64.655V22.232z M11.945,35.361L11.945,35.361l0.001,11.733H0V35.361H11.945z M11.945,60.447L11.945,60.447
	l0.001,11.731H0V60.447H11.945z M88.723,47.094H24.068V35.361h64.655V47.094z M0,10.5h11.945v11.732h-0.001H0V10.5z M88.362,50.463
	c-1.398-0.206-2.82-0.351-4.275-0.351c-16.156,0-29.305,13.146-29.305,29.306s13.146,29.306,29.305,29.306
	c1.455,0,2.877-0.144,4.275-0.348c14.134-2.083,25.028-14.253,25.028-28.958C113.39,64.717,102.497,52.542,88.362,50.463z
	 M104.285,89.192L82.529,78.323v10.869l-21.777-10.88l21.777-10.878v10.867l21.757-10.867V89.192z"/>
</svg>
