<?xml version="1.0" encoding="utf-8"?>
<!-- Generator: Adobe Illustrator 18.0.0, SVG Export Plug-In . SVG Version: 6.00 Build 0)  -->
<!DOCTYPE svg PUBLIC "-//W3C//DTD SVG 1.1//EN" "http://www.w3.org/Graphics/SVG/1.1/DTD/svg11.dtd">
<svg version="1.1" id="predykcjanapis" xmlns="http://www.w3.org/2000/svg" xmlns:xlink="http://www.w3.org/1999/xlink" x="0px"
	 y="0px" viewBox="0 8.3 153.1 35" enable-background="new 0 8.3 153.1 35" xml:space="preserve">
<path id="l3" fill="#77787C" d="M3.5,22.2c3.3,0,4.9,1.2,4.9,4.1v1.3c0,2.9-1.6,4.2-4.9,4.2h-1V36H0V22.2H3.5z M3.5,29.4
	c1.8,0,2.4-0.6,2.4-1.9v-1c0-1.3-0.4-2-2.4-2h-1v5C2.5,29.4,3.5,29.4,3.5,29.4z M19.3,36l-2.8-4.9h-0.9V36h-2.5V22.2h3.5
	c3.4,0,4.9,1.2,4.9,4.2V27c0,2.1-0.7,3.2-2.4,3.7l3,5.3H19.3z M16.6,28.9c1.8,0,2.3-0.6,2.3-1.9v-0.5c0-1.3-0.3-2-2.3-2h-1.1v4.4
	H16.6z M34.5,22.2v2.2H29v3.6h4.7v2.2H29v3.7h5.7V36h-8.2V22.2H34.5z M43.9,22.2c3.3,0,4.7,1.2,4.7,4.1V32c0,2.9-1.4,4.1-4.7,4.1
	h-4.6V22.2H43.9z M43.9,33.8c1.8,0,2.3-0.6,2.3-1.9v-5.4c0-1.3-0.3-2-2.2-2h-2.1v9.3L43.9,33.8L43.9,33.8z M60.8,22.2l-3.5,8.1V36
	h-2.5v-5.8l-3.5-8.1H54l1.1,2.6l1,3l1-3l1-2.5L60.8,22.2L60.8,22.2z M71.7,36l-3.9-5.6h-0.7V36h-2.5V22.2h2.5V28h0.7l3.6-5.8h2.9
	l-4.5,6.9l4.9,6.9L71.7,36L71.7,36z M87.1,31.7c0,3-1.4,4.3-4.7,4.3s-4.6-1.3-4.6-4.1v-5.6c0-2.9,1.3-4.1,4.6-4.1s4.7,1.2,4.7,4.3
	h-2.5c0-1.4-0.3-2.1-2.3-2.1c-1.8,0-2.1,0.8-2.1,2.1v5.4c0,1.3,0.3,2.1,2.1,2.1s2.3-0.8,2.3-2.1C84.6,31.7,87.1,31.7,87.1,31.7z
	 M98.8,32c0,2.9-1.3,4.1-4.1,4.1s-4.1-1.4-4.1-4.3H93c0,1.3,0.3,2.1,1.6,2.1s1.6-0.8,1.6-2.1v-9.7h2.5V32z M112.3,36h-2.6l-0.7-2.4
	h-3.5l-0.7,2.4h-2.6l3.8-13.8h2.5L112.3,36z M108.4,31.1l-1.2-5.1l-1.2,5.1H108.4z M142.1,36.7l-0.6,0.5l-0.5-0.6l-1.1-1.3
	c-1.1,0.3-2.2,0.5-3.2,0.5c-6.1,0-11.1-5-11.1-11.1c0-6.1,5-11.1,11.1-11.1c3.4,0,6.4,1.5,8.5,3.9l0-5.8l-20,2l-0.4-0.3l18.9-2.1
	l0-0.2l-19.2,2.1l-0.3-0.2l19.2-2.1l0-0.2L124,12.8l-0.4-0.3l19.4-2.2l0-0.2l-19.7,2.2l-0.4-0.3l19.7-2.2l0-0.2l-19.9,2.2l-0.4-0.3
	l0.6-0.1l20.3-2.2l-0.7-1l-22.2,2.3V11v0.9V40l4,2.8v0l21-2.1v-1.9l-2.4-2.8L142.1,36.7z M153.1,40.5l-6.9-8.3l1.1-0.9l-1.4-1.7
	c0.8-1.5,1.3-3.2,1.3-5c0-2.6-1-5-2.6-6.9c0,0-0.1-0.1-0.1-0.1c-0.2-0.3-0.5-0.5-0.7-0.7c0,0-0.1-0.1-0.1-0.1c-0.6-0.5-1.3-1-2-1.4
	c0,0,0,0-0.1,0c-0.3-0.2-0.6-0.3-1-0.4c-0.1,0-0.2-0.1-0.3-0.1c-0.3-0.1-0.5-0.2-0.8-0.3c-0.1,0-0.2-0.1-0.4-0.1
	c-0.3-0.1-0.5-0.1-0.8-0.2c-0.1,0-0.2,0-0.4-0.1c-0.4,0-0.8-0.1-1.2-0.1c-5.7,0-10.4,4.7-10.4,10.4c0,5.7,4.7,10.4,10.4,10.4
	c1.2,0,2.4-0.2,3.5-0.6l1.4,1.7l1.3-1.1l2.3,2.7l0,0l4.7,5.6L153.1,40.5z M142.7,24.5c0,3.3-2.7,6-6,6c-2.9,0-5.4-2.1-5.9-4.8l0,0
	c-0.1-0.3-0.1-0.7-0.1-1.1c0-3.3,2.7-6,6.1-6c2.7,0,5,1.8,5.8,4.2C142.6,23.4,142.7,23.9,142.7,24.5z M138.7,21.9
	c-0.2-0.2-0.4-0.3-0.7-0.5c-0.3-0.1-0.7-0.2-1.1-0.2c-0.4,0-0.8,0.1-1.1,0.2c-0.3,0.1-0.6,0.3-0.8,0.5c-0.2,0.2-0.3,0.5-0.4,0.7
	c-0.1,0.3-0.2,0.6-0.2,0.8h1.9c0-0.2,0-0.4,0.1-0.5c0.1-0.2,0.2-0.2,0.5-0.2c0.4,0,0.5,0.2,0.5,0.5c0,0.1,0,0.2-0.1,0.3
	c-0.1,0.1-0.1,0.1-0.2,0.2c-0.1,0.1-0.2,0.1-0.3,0.1c-0.1,0-0.2,0.1-0.3,0.1c-0.2,0.1-0.3,0.2-0.4,0.4c-0.1,0.1-0.2,0.3-0.2,0.4
	c0,0.1-0.1,0.3-0.1,0.4c0,0.1,0,0.3,0,0.3h1.7c0-0.1,0-0.2,0-0.3c0-0.1,0-0.1,0.1-0.2c0-0.1,0.1-0.1,0.2-0.2
	c0.1-0.1,0.2-0.1,0.3-0.2c0.2-0.1,0.3-0.2,0.4-0.2c0.1-0.1,0.3-0.2,0.4-0.3c0.1-0.1,0.2-0.3,0.3-0.4c0.1-0.2,0.1-0.4,0.1-0.7
	c0-0.2-0.1-0.4-0.1-0.6C139.1,22.3,138.9,22.1,138.7,21.9z M135.8,26.1h1.9v1.8h-1.9V26.1z"/>
</svg>
