<?xml version="1.0" encoding="utf-8"?>
<!-- Generator: Adobe Illustrator 15.0.0, SVG Export Plug-In . SVG Version: 6.00 Build 0)  -->
<!DOCTYPE svg PUBLIC "-//W3C//DTD SVG 1.1//EN" "http://www.w3.org/Graphics/SVG/1.1/DTD/svg11.dtd">
<svg version="1.1" id="PRZECZYTAJ" xmlns="http://www.w3.org/2000/svg" xmlns:xlink="http://www.w3.org/1999/xlink" x="0px" y="0px"
	 width="113.391px" height="113.391px" viewBox="0 0 113.391 113.391" enable-background="new 0 0 113.391 113.391"
	 xml:space="preserve">
<path id="_x31_" fill="dark"  d="M112.658,51.974c-2.616-1.059-6.457-6.052-10.54-11.333c-7.398-9.599-15.785-20.476-24.823-20.476
	c-11.938,0-18.457,7.252-20.71,10.382c-2.522-2.836-9.424-9.412-19.126-9.412c-7.618,0-16.905,10.903-25.088,20.522
	c-4.728,5.548-9.192,10.789-11.576,11.6c-0.45,0.156-0.759,0.568-0.787,1.038c-0.027,0.473,0.234,0.919,0.666,1.121
	c4.004,1.888,8.107,6.981,12.858,12.877c6.647,8.256,14.184,17.612,24.194,21.453c6.095,2.339,12.646,3.475,20.033,3.475
	c7.066,0,13.917-1.076,19.087-2.015c8.893-1.608,22.19-19.287,30.132-29.848c2.539-3.379,5.162-6.868,5.823-7.294
	c0.384-0.22,0.619-0.646,0.588-1.092C113.361,52.53,113.08,52.14,112.658,51.974z M100.381,55.426
	C95.098,58.919,81.89,66.03,60.727,67.002c-21.865,0.989-38.014-6.741-44.931-10.843c4.709-1.099,8.703-3.313,12.294-5.308
	c4.072-2.258,7.593-4.209,11.265-4.209c4.538,0,9.014,1.471,12.607,2.654c2.884,0.95,5.173,1.694,6.854,1.569
	c1.509-0.1,3.513-0.692,5.831-1.382c3.529-1.045,7.92-2.346,12.148-2.346c3.045,0,6.941,1.812,11.069,3.732
	C91.962,52.782,96.174,54.74,100.381,55.426z"/>
</svg>
