<?xml version="1.0" encoding="utf-8"?>
<!-- Generator: Adobe Illustrator 16.0.0, SVG Export Plug-In . SVG Version: 6.00 Build 0)  -->
<!DOCTYPE svg PUBLIC "-//W3C//DTD SVG 1.1//EN" "http://www.w3.org/Graphics/SVG/1.1/DTD/svg11.dtd">
<svg version="1.1" id="Layer_1" xmlns="http://www.w3.org/2000/svg" xmlns:xlink="http://www.w3.org/1999/xlink" x="0px" y="0px"
	 width="126px" height="126px" viewBox="0 0 126 126" enable-background="new 0 0 126 126" xml:space="preserve">
<path stroke="#6D6E70" stroke-width="0" stroke-linecap="round" stroke-linejoin="round" d="M25.486,25.483
	C4.798,46.17,4.8,79.829,25.488,100.517c20.682,20.685,54.34,20.685,75.026-0.004c20.687-20.684,20.685-54.341,0.002-75.024
	C79.828,4.8,46.17,4.8,25.486,25.483z M94.728,94.728c-17.493,17.494-45.962,17.496-63.455,0.003
	c-17.498-17.497-17.495-45.966,0-63.46c17.493-17.493,45.96-17.495,63.457,0.002C112.225,48.767,112.223,77.235,94.728,94.728z
	 M84.688,87.521c-22.713,20.02-43.377,0-43.377,0c0-11.55,9.711-20.913,21.688-20.913S84.688,75.971,84.688,87.521z M58.87,47.643
	c0-5.773-4.688-10.459-10.459-10.459c-5.773,0-10.459,4.686-10.459,10.459c0,5.772,4.686,10.459,10.459,10.459
	C54.182,58.102,58.87,53.415,58.87,47.643z M40.107,47.643c0-4.579,3.724-8.305,8.304-8.305c4.577,0,8.304,3.726,8.304,8.305
	s-3.727,8.305-8.304,8.305C43.831,55.947,40.107,52.222,40.107,47.643z M54.911,47.643c0-3.588-2.914-6.5-6.5-6.5
	c-3.588,0-6.5,2.912-6.5,6.5c0,3.587,2.912,6.5,6.5,6.5C51.997,54.143,54.911,51.229,54.911,47.643z M43.911,47.643
	c0-2.481,2.018-4.5,4.5-4.5c2.48,0,4.5,2.019,4.5,4.5s-2.02,4.5-4.5,4.5C45.929,52.143,43.911,50.124,43.911,47.643z M48.411,49.643
	c-1.104,0-2-0.896-2-2s0.896-2,2-2s2,0.896,2,2S49.515,49.643,48.411,49.643z M78.529,37.184c-5.773,0-10.459,4.686-10.459,10.459
	c0,5.772,4.686,10.459,10.459,10.459c5.77,0,10.459-4.687,10.459-10.459C88.988,41.869,84.299,37.184,78.529,37.184z M78.529,55.947
	c-4.581,0-8.304-3.726-8.304-8.305s3.723-8.305,8.304-8.305c4.577,0,8.304,3.726,8.304,8.305S83.106,55.947,78.529,55.947z
	 M78.529,41.143c-3.588,0-6.5,2.912-6.5,6.5c0,3.587,2.912,6.5,6.5,6.5c3.586,0,6.5-2.913,6.5-6.5
	C85.029,44.055,82.115,41.143,78.529,41.143z M78.529,52.143c-2.482,0-4.5-2.019-4.5-4.5s2.018-4.5,4.5-4.5
	c2.48,0,4.5,2.019,4.5,4.5S81.01,52.143,78.529,52.143z M80.529,47.643c0,1.104-0.896,2-2,2s-2-0.896-2-2s0.896-2,2-2
	S80.529,46.539,80.529,47.643z"/>
</svg>
