<svg version="1.1" id="SEPIA" xmlns="http://www.w3.org/2000/svg" xmlns:xlink="http://www.w3.org/1999/xlink" x="0px" y="0px"
	 width="113.391px" height="113.391px" viewBox="0 0 113.391 113.391" enable-background="new 0 0 113.391 113.391"
	 xml:space="preserve">
<rect id="L3" x="6.852" y="8.925" fill="#D6C4A5" width="96.581" height="82.785"/>
<path id="L4" fill="#7F6846" d="M113.033,0.007L0.007,0L0,113.028l113.026,0.009L113.033,0.007z M10.149,9.889l92.749,0.007
	l-0.013,80.249l-92.746-0.006L10.149,9.889z M97.333,83.534l-80.497,0.112L29.88,56.516l10.547,14.719l13.298-14.717l12.538,14.557
	l14.255-28.166L97.333,83.534z M28.92,37.348c-6.104-1.678-9.691-7.994-8.012-14.097c1.68-6.105,7.991-9.69,14.097-8.01
	c6.106,1.679,9.688,7.988,8.009,14.095C41.333,35.439,35.026,39.027,28.92,37.348z"/>
</svg>
