<?xml version="1.0" encoding="utf-8"?>
<!-- Generator: Adobe Illustrator 15.0.0, SVG Export Plug-In . SVG Version: 6.00 Build 0)  -->
<!DOCTYPE svg PUBLIC "-//W3C//DTD SVG 1.1//EN" "http://www.w3.org/Graphics/SVG/1.1/DTD/svg11.dtd">
<svg version="1.1" id="ZNAKI_SPECJALNE" xmlns="http://www.w3.org/2000/svg" xmlns:xlink="http://www.w3.org/1999/xlink" x="0px"
	 y="0px" width="113.391px" height="113.391px" viewBox="0 0 113.391 113.391" enable-background="new 0 0 113.391 113.391"
	 xml:space="preserve">
<path id="_x31_" d="M104.343,56.551c-0.313,23.731-16.789,44-39.886,49.281c-23.921,5.47-46.407-10.627-52.889-33.403
	C5.1,49.675,16.323,24.896,37.088,13.998C58.563,2.727,84.273,9.865,97.051,30.269C101.987,38.154,104.221,47.313,104.343,56.551
	c0.044,3.23,9.515,6.076,9.464,2.267C113.503,36.046,99.399,17.238,79.1,7.874C58.783-1.5,33.961,2.24,17.428,17.195
	C0.709,32.319-3.708,56.646,4.529,77.218c8.256,20.613,29.653,33.847,51.313,35.285c31.157,2.072,57.551-22.667,57.963-53.688
	C113.848,55.615,104.395,52.701,104.343,56.551z M38.534,35.681c3.032,0,5.491,2.459,5.491,5.493c0,3.033-2.459,5.493-5.491,5.493
	c-3.034,0-5.493-2.46-5.493-5.493C33.041,38.14,35.5,35.681,38.534,35.681z M74.667,35.681c3.033,0,5.493,2.459,5.493,5.493
	c0,3.033-2.46,5.493-5.493,5.493c-3.034,0-5.493-2.46-5.493-5.493C69.174,38.14,71.633,35.681,74.667,35.681z M18.095,59.539
	c0.474,20.944,18.817,33.845,38.414,34.966c19.506,1.115,39.052-13.209,39.512-33.513c0.099-4.249-9.805-5.452-9.896-1.453
	c-0.354,15.725-12.95,27.901-28.521,28.794C42.016,89.225,28.34,76.525,27.988,60.992C27.892,56.726,18.006,55.612,18.095,59.539
	L18.095,59.539z M68.258,15.039c0,0-13.083-6.78-32.884,5.96c-12.87,8.276-16.841,21.139-16.841,21.139s2.866-17.005,18.86-25.572
	C56.624,6.264,68.258,15.039,68.258,15.039z"/>
</svg>
