<?xml version="1.0" encoding="utf-8"?>
<!-- Generator: Adobe Illustrator 18.0.0, SVG Export Plug-In . SVG Version: 6.00 Build 0)  -->
<!DOCTYPE svg PUBLIC "-//W3C//DTD SVG 1.1//EN" "http://www.w3.org/Graphics/SVG/1.1/DTD/svg11.dtd">
<svg version="1.1" id="szukaj" xmlns="http://www.w3.org/2000/svg" xmlns:xlink="http://www.w3.org/1999/xlink" x="0px" y="0px"
	 viewBox="0 0 113.4 113.4" enable-background="new 0 0 113.4 113.4" xml:space="preserve">
<path id="l1" d="M23.7,45.9c6.8,17.5,27.7,28.7,46,22.4c18-6.1,29.3-25.5,22.1-44C85,6.8,64.1-4.3,45.8,1.9
	C27.2,8.2,17.3,27.1,23.7,45.9c1.3,3.7,10.9,5,9.2-0.1C28.2,32,34.3,15.7,48,9.7c13.7-6.1,29.7,0.2,34.6,14.7
	c4.7,13.8-1.4,30.1-15.1,36.1c-14.2,6.3-29.1-0.4-34.6-14.7C31.5,42.1,21.8,40.9,23.7,45.9z M70.6,17.8c0.8,0.5,1.6,1,2.4,1.7
	c0.3,0.3,1.3,1.3,1,0.9c-7.6-7.7,7.6,22.7,5.5,10.9c-0.1-0.5,0.2,0.9,0.2,1.4c0.7,6.3-1.1,13.6-7.3,20.2c18.8-17.5,5.2-34-1-37.6
	c-6.1-3.5-16.7-5-21-1.7C56.3,11.9,66.6,15.5,70.6,17.8z M35.9,31.5c0,0-2.8,8,6.1,18.2c5.8,6.6,13.4,7.8,13.4,7.8
	s-9.9-0.2-16.1-8.6C31.9,38.9,35.9,31.5,35.9,31.5z M93.9,103L80.2,65.2c-0.6,0.4-1.1,0.9-1.8,1.3l14,38.4l-0.4,2L77.5,67
	c-4.1,2.5-9.3,4.5-15.9,4.7l14.1,38.7c0,0,1.3,2.2,3.1,2.6c1.9,0.4,8.6,0.4,14.1-4.4C95.1,106.6,93.9,103,93.9,103z M79.3,110.1
	c-1.1-0.1-1.4-1-1.4-1L64.4,72.2l4.1-0.6c0,0,10.7,29.2,13.2,36.1C82.3,109.3,80.4,110.2,79.3,110.1z"/>
</svg>
