<?xml version="1.0" encoding="UTF-8" standalone="no"?>
<!-- Created with Inkscape (http://www.inkscape.org/) -->

<svg
   xmlns:dc="http://purl.org/dc/elements/1.1/"
   xmlns:cc="http://creativecommons.org/ns#"
   xmlns:rdf="http://www.w3.org/1999/02/22-rdf-syntax-ns#"
   xmlns:svg="http://www.w3.org/2000/svg"
   xmlns="http://www.w3.org/2000/svg"
   version="1.1"
   width="1112.9778"
   height="964.60114"
   viewBox="0 0 1112.9778 964.60114"
   id="L1"
   xml:space="preserve">
   <path d="m 878.19415,898.13616 c -1.51832,-0.10621 -2.93578,-0.0965 -4.46927,0.0144 l -268.87872,15.85461 c -13.78634,0.7797 -22.28362,-14.85402 -14.08983,-26.05112 4.44501,-5.90122 8.78915,-11.91844 13.13326,-17.93568 11.47091,-15.98125 -0.74792,-39.177 -19.83546,-40.51172 -1.3014,-0.0911 -2.61044,-0.0737 -4.03549,0.0447 l -352.88666,28.07136 -42.19397,3.37051 -115.073052,9.17246 c -13.042317,1.04966 -22.484456,11.39672 -22.317567,24.59531 0.02429,5.88674 2.023468,11.58467 5.531117,15.97124 4.105273,5.19132 10.097447,8.33486 16.821486,8.80505 1.301431,0.0911 2.610433,0.0737 4.035491,-0.0448 l 420.615445,-33.4706 c 14.35884,-1.17554 22.9972,15.55779 13.82735,26.68674 -2.96913,3.49783 -5.94589,7.10406 -8.91502,10.60186 -8.19608,9.67122 -7.65151,26.81949 0.41041,36.21094 4.12804,4.86579 9.60068,7.64609 15.56556,8.0632 0.65067,0.0456 1.40987,0.0986 2.06818,0.0358 l 0.10838,0.008 0.10845,0.008 362.50252,-20.64206 0.10853,0.008 0.1085,0.008 c 6.24993,-0.54374 11.92284,-3.74352 15.88856,-9.02434 4.32893,-5.80026 6.26208,-13.1849 4.99705,-20.03033 -2.0538,-11.15083 -11.09704,-18.97602 -23.13528,-19.81781 z"/>
   <path d="m 85.824645,749.09549 c 1.074355,-1.2534 0.805777,-3.2231 -0.447645,-4.2079 0,0 0,0 0,0 l -38.76639,-31.604 c -0.447646,-0.3581 -0.805769,-0.7163 -1.163891,-0.9849 -1.253414,-1.1638 -3.223067,-0.8953 -4.297424,0.4476 l -40.46745756,50.7635 c -1.70106614,2.0591 0,5.1927 2.68589286,4.9241 l 71.7133467,-7.3414 c 0.805763,-0.09 1.522007,-0.4477 2.059177,-1.0744 l 8.684391,-10.9226 z"/>
   <path d="M 126.20258,502.62002 56.996064,666.36999 c -3.223073,7.61 -1.969653,16.1153 2.954484,22.4719 0.984827,1.343 2.148706,2.5069 3.491656,3.5812 l 38.766396,31.6041 c 0.80577,0.6267 1.70106,1.2534 2.50683,1.7906 3.58119,2.1486 7.61002,3.3126 11.63887,3.3126 4.47648,0 8.95297,-1.343 12.89228,-4.0289 L 273.74765,623.57472 c -1.43249,-0.98485 -2.77543,-2.05915 -4.11838,-3.13352 L 129.33612,505.3059 c -1.07437,-0.8953 -2.05919,-1.79059 -3.13354,-2.68588 z"/>
   <path d="m 141.6017,419.98403 c -9.57969,10.65404 -13.07135,24.53116 -10.83311,37.51297 1.07436,6.26708 3.49166,12.26559 7.16238,17.63737 2.32778,3.40213 5.19273,6.6252 8.59486,9.40063 l 140.29315,115.13532 c 3.5812,2.95448 7.43098,5.19267 11.45982,6.80422 5.46131,2.23826 11.19122,3.31263 16.92113,3.31263 0.6267,0 1.16388,0 1.79059,-0.0896 13.16088,-0.53719 25.96363,-6.71471 34.37943,-18.264 l 11.72839,-15.75726 312.54845,-419.89465 c 14.14569,-19.2489 10.65407,-46.10783 -7.78908,-61.238339 L 563.55551,10.027336 C 555.22924,3.312609 545.29144,0 535.2641,0 522.99852,0 510.82247,5.013668 501.95903,14.772406 L 154.22539,405.74879 141.6017,419.98403 z"/>
   <path d="m 997.01673,747.32429 c -1.49502,0 -2.88321,0.063 -4.37823,0.19 l -262.3678,20.1249 c -13.45477,1.0126 -22.85175,-7.7209 -15.59042,-14.5557 3.95097,-3.6074 7.79518,-7.278 11.63943,-10.9486 10.14445,-9.7461 -3.41709,-22.7197 -22.21099,-22.7197 -1.28147,0 -2.56287,0.063 -3.95109,0.1898 l -343.84389,30.6305 -41.11177,3.6707 -112.12302,9.9992 c -12.70727,1.1392 -21.24997,7.5311 -20.18214,15.1886 0.42714,3.4175 2.77638,6.645 6.51382,9.05 4.37812,2.8478 10.4648,4.43 17.0854,4.43 1.28141,0 2.56282,-0.063 3.951,-0.1899 l 409.83632,-36.5161 c 13.98867,-1.2657 23.59923,8.1007 15.37689,14.9355 -2.66956,2.1517 -5.33925,4.3668 -8.00881,6.5185 -7.36808,5.949 -5.65953,15.8848 2.88321,21.011 4.37811,2.6581 9.93088,4.0503 15.80399,4.0503 0.64073,0 1.38816,0 2.02889,-0.063 l 0.10676,0 0.10682,0 353.7747,-26.7068 0.1069,0 0.1068,0 c 6.0866,-0.5696 11.4258,-2.658 14.9496,-5.8856 3.8443,-3.5441 5.2325,-7.9108 3.5239,-11.8345 -2.7764,-6.3919 -12.1733,-10.5688 -24.02627,-10.5688 z"/>
   <path d="m 1088.8649,634.92619 c -1.4403,0.05 -2.7766,0.1316 -4.2146,0.2511 l -252.40318,19.8364 c -12.94415,1.0066 -22.1648,-3.4547 -15.29931,-7.4378 3.73784,-2.1062 7.37154,-4.2435 11.00523,-6.3807 9.58792,-5.6726 -3.72625,-12.31315 -21.83396,-11.68087 -1.23457,0.0427 -2.46799,0.12088 -3.80309,0.23683 l -330.70353,28.32434 -39.54048,3.3912 -107.8379,9.2422 c -12.22153,1.0507 -20.3302,4.8346 -19.15508,8.9876 0.47683,1.855 2.80195,3.5415 6.44885,4.7313 4.27268,1.4106 10.16732,2.0712 16.54616,1.8484 1.23463,-0.043 2.46805,-0.1208 3.80311,-0.2368 l 394.17389,-33.7642 c 13.4536,-1.1631 22.89217,3.6372 15.10064,7.6527 -2.53108,1.2668 -5.06078,2.5683 -7.59186,3.8352 -6.98536,3.502 -5.14942,8.8797 3.1793,11.3964 4.26908,1.3066 9.64557,1.8815 15.3043,1.6839 0.61721,-0.022 1.33749,-0.046 1.95355,-0.1029 l 0.10292,-0.01 0.10299,-0.01 340.34665,-26.5121 0.103,-0.01 0.1028,-0.01 c 5.8537,-0.5164 10.9581,-1.8385 14.2916,-3.7226 3.6362,-2.068 4.8903,-4.5034 3.169,-6.5923 -2.797,-3.4031 -11.9307,-5.3717 -23.351,-4.973 z"/>
   </svg>
