<?xml version="1.0" encoding="utf-8"?>
<!-- Generator: Adobe Illustrator 15.0.0, SVG Export Plug-In . SVG Version: 6.00 Build 0)  -->
<!DOCTYPE svg PUBLIC "-//W3C//DTD SVG 1.1//EN" "http://www.w3.org/Graphics/SVG/1.1/DTD/svg11.dtd">
<svg version="1.1" id="ULUBIONE" xmlns="http://www.w3.org/2000/svg" xmlns:xlink="http://www.w3.org/1999/xlink" x="0px" y="0px"
	 width="113.39px" height="113.39px" viewBox="0 0 113.39 113.39" enable-background="new 0 0 113.39 113.39" xml:space="preserve">
<g id="ulubione2">
	<g>
		<path d="M58.648,100.661C45.139,91.85,31.4,82.277,21.132,69.689c-5.767-7.069-10.79-15.873-11.4-25.136
			c-0.657-9.959,6.642-21.897,17.161-23.181c7.826-0.955,15.626,3.632,21.463,8.389c3.389,2.762,7.669,8.352,12.219,3.659
			c4.049-4.176,9.068-7.869,14.436-10.132c10.123-4.27,19.142-0.81,24.996,8.378c9.199,14.438-2.438,32.056-12.263,42.728
			c-9.536,10.357-21.699,18.608-33.44,26.267c-5.377,3.508-0.372,12.169,5.047,8.635c22.494-14.672,50.745-34.338,53.791-63.563
			c1.791-17.18-12.653-34.928-30.29-34.425c-11.027,0.315-22.156,7.416-29.56,15.263c1.179-0.488,2.357-0.976,3.536-1.464
			c-0.234,0-0.468,0-0.702,0c1.179,0.488,2.357,0.976,3.536,1.464c-7.458-7.905-17.666-13.891-28.502-15.184
			C13.075,9.229-0.708,28.007-0.269,44.554c0.39,14.706,10.033,28.303,19.899,38.48c9.866,10.178,22.132,18.54,33.97,26.262
			C59.02,112.83,64.025,104.169,58.648,100.661L58.648,100.661z"/>
	</g>
</g>
<path id="ulubione1" d="M67.84,32.645c0,0,6.703-10.208,20.25-6.502c16,4.377,11.533,22.676,8.625,27.377
	c-3.499,5.658-3.75,6.285-21,25.323c0,0,7.836-6.956,17.038-24.929C104.77,30.447,81.09,23.645,67.84,32.645"/>
</svg>
