<?xml version="1.0" encoding="utf-8"?>
<!-- Generator: Adobe Illustrator 18.0.0, SVG Export Plug-In . SVG Version: 6.00 Build 0)  -->
<!DOCTYPE svg PUBLIC "-//W3C//DTD SVG 1.1//EN" "http://www.w3.org/Graphics/SVG/1.1/DTD/svg11.dtd">
<svg version="1.1" id="usun_x5F_komentarz" xmlns="http://www.w3.org/2000/svg" xmlns:xlink="http://www.w3.org/1999/xlink" x="0px"
	 y="0px" viewBox="0 0 113.4 113.4" enable-background="new 0 0 113.4 113.4" xml:space="preserve">
<path id="l1" fill="#030405" d="M96.4,9.2H4.3C2,9.2,0,11.1,0,13.4v64.7c0,2.3,2,4.3,4.3,4.3h51.2l5.8,4.4c-0.4-1.7-0.5-3.5-0.5-5.3
	c0-14.5,11.8-26.3,26.3-26.3c1.3,0,2.6,0.1,3.8,0.3c3.6,0.5,6.9,1.8,9.8,3.6V13.4C100.7,11.1,98.7,9.2,96.4,9.2z M31.7,39.5h-7.4
	v7.4h-4.8v-7.4h-7.4v-4.8h7.4v-7.4h4.8v7.4h7.4V39.5z M39.2,48.3c0-7.4,11.1-7.2,11.1,0C50.3,55.3,39.2,55.5,39.2,48.3z M56.5,48.3
	c0-7.4,11.1-7.2,11.1,0C67.7,55.3,56.5,55.5,56.5,48.3z M73.9,48.3c0-7.4,11.1-7.2,11.1,0C84.9,55.3,73.9,55.5,73.9,48.3z
	 M92.6,59.5c-1.2-0.2-2.3-0.3-3.5-0.3c-13.4,0-24.3,10.9-24.3,24.3c0,13.4,10.9,24.3,24.3,24.3c1.2,0,2.4-0.1,3.5-0.3
	c11.7-1.7,20.8-11.8,20.8-24C113.4,71.3,104.4,61.2,92.6,59.5z M102.8,91.8l-5.4,5.4l-8.3-8.3l-8.3,8.3l-5.4-5.4l8.3-8.3l-8.3-8.3
	l5.4-5.4l8.3,8.3l8.3-8.3l5.4,5.4l-8.3,8.3L102.8,91.8z"/>
</svg>
