<?xml version="1.0" encoding="utf-8"?>
<!-- Generator: Adobe Illustrator 15.0.0, SVG Export Plug-In . SVG Version: 6.00 Build 0)  -->
<!DOCTYPE svg PUBLIC "-//W3C//DTD SVG 1.1//EN" "http://www.w3.org/Graphics/SVG/1.1/DTD/svg11.dtd">
<svg version="1.1" xmlns="http://www.w3.org/2000/svg" xmlns:xlink="http://www.w3.org/1999/xlink" x="0px" y="0px"
	 width="300px" height="300px" viewBox="0 0 113.39 113.39" enable-background="new 0 0 113.39 113.39" xml:space="preserve">
<g id="ZDJ1">
	<polygon id="_x31_3" points="61.514,58.373 51.844,77.632 43.25,67.72 34.204,77.796 26.973,67.768 18.123,86.32 73.081,86.078 	
		"/>
	<path id="_x31_2" d="M6.457,29.243l0.227,77.169l77.169-0.227l-0.226-77.17L6.457,29.243z M76.884,90.579l-63.322,0.187
		l-0.161-54.791l63.323-0.186L76.884,90.579z"/>
	<circle id="_x31_1" cx="28.33" cy="47.129" r="7.827"/>
</g>
<g id="ZDJ2">
	<path d="M86.18,95.21l9.339-0.024l-0.226-77.17l-77.17,0.228l0.025,9.13l0.003,0.395c2.35-0.001,4.598-0.002,6.924-0.021
		l-0.002-0.219l-0.005-2.554l63.323-0.186l0.16,54.791l-2.401,0.006"/>
	<path d="M97.594,84.173l9.339-0.024l-0.226-77.17l-77.17,0.228l0.024,9.13l0.003,0.395c2.35-0.001,4.598-0.002,6.924-0.021
		l-0.002-0.219l-0.006-2.554l63.323-0.186l0.16,54.791l-2.401,0.006"/>
</g>
</svg>
