<?xml version="1.0" encoding="utf-8"?>
<!-- Generator: Adobe Illustrator 15.0.0, SVG Export Plug-In . SVG Version: 6.00 Build 0)  -->
<!DOCTYPE svg PUBLIC "-//W3C//DTD SVG 1.1//EN" "http://www.w3.org/Graphics/SVG/1.1/DTD/svg11.dtd">
<svg version="1.1" id="ZNAKI_POLSKIE" xmlns="http://www.w3.org/2000/svg" xmlns:xlink="http://www.w3.org/1999/xlink" x="0px"
	 y="0px" width="113.391px" height="113.391px" viewBox="0 0 113.391 113.391" enable-background="new 0 0 113.391 113.391"
	 xml:space="preserve">
<path id="_x31_" d="M7.025,48.59c-0.54-8.82,4.2-12.359,12.66-12.359c9.24,0,13.259,4.619,13.259,13.799v21.779h-6.72l-0.78-4.08
	c-1.979,2.762-5.34,4.563-9.3,4.563c-5.818,0-10.199-3.36-10.199-10.021c0-8.339,6.959-11.639,19.141-10.799
	c0-5.28-1.021-7.92-5.34-7.92c-3.602,0-4.92,1.26-4.86,5.04L7.025,48.59L7.025,48.59z M13.744,61.609
	c0,2.342,2.04,3.119,4.858,3.119c4.8,0,6.12-3.479,6.48-7.02C16.684,56.869,13.744,58.789,13.744,61.609z M109.5,71.308h-8.521
	l-2.34-8.16H86.82l-2.397,8.16h-8.521L88.68,25.171h8.22L109.5,71.308z M96.541,55.049l-3.84-17.099L88.86,55.049H96.541z
	 M44.48,49.176v2.494h16.553l-0.021,6.479l0,0l7.897-8.974l-7.878-8.958l0,0v6.464H44.48V49.176z"/>
</svg>
