<svg version="1.1" id="PODGLĄD" xmlns="http://www.w3.org/2000/svg" xmlns:xlink="http://www.w3.org/1999/xlink" x="0px" y="0px"
	 width="113.391px" height="113.391px" viewBox="0 0 113.391 113.391" enable-background="new 0 0 113.391 113.391"
	 xml:space="preserve">
<path id="L1" d="M37.388,22.845h-4.599l2.299-10.241L37.388,22.845z M68.785,0.037v25.569h26.077L68.785,0.037z M94.862,103.825
	v-19.38c-0.995,0.422-3.104,1.063-4.917,1.417c-1.61,0.315-4.875,0.646-4.875,0.646l-6.125,17.317H94.862z M66.533,93.385
	l0.305-0.819l-0.419,0.819H66.533z M63.195,77.196c0.24,0,0.421-0.03,0.558-0.083h-0.529C63.211,77.141,63.21,77.166,63.195,77.196z
	 M94.862,27.963v9.899c0,0-12.21-3.188-22.558,2.329H24.23v3.951h42.703c-1.289,1.271-2.495,2.741-3.571,4.47
	c-1.808,2.904-2.983,5.639-3.688,8.2H24.111v3.952H58.93c-0.348,3.565,0.225,6.717,1.241,9.412c0.425,1.123,0.836,2.021,1.379,2.984
	l0,0H24.23v3.952h38.993c-0.013,0.028-0.014,0.054-0.028,0.083c0.24,0,0.421-0.03,0.558-0.083h0.539
	c2.277,2.718,4.403,4.167,4.403,4.167l-3.229,8.153H24.864v3.952h39.394l-3.625,10.44H18.512L18.535,0h47.815v27.962H94.862z
	 M45.148,32.58L37.604,4.951h-4.921L25.029,32.58h5.101l1.437-4.887h7.078l1.401,4.887H45.148z M107.731,69.128
	c-4.474,11.5-18.2,18.825-30.221,14.744C65.718,79.868,58.274,67.14,62.999,54.993C67.472,43.494,81.2,36.169,93.222,40.25
	C105.419,44.391,111.918,56.797,107.731,69.128c-0.835,2.464-7.178,3.27-6.048-0.056c3.069-9.044-0.927-19.752-9.902-23.702
	c-9.028-3.976-19.488,0.118-22.731,9.677c-3.072,9.046,0.924,19.753,9.902,23.703c9.333,4.111,19.082-0.292,22.731-9.678
	C102.624,66.651,108.995,65.878,107.731,69.128z M80.184,47.994c2.813-2.187,9.783-1.202,13.795,1.104
	c4.031,2.317,12.995,13.172,0.642,24.669c4.036-4.36,5.251-9.129,4.765-13.27c-0.036-0.311-0.193-1.22-0.137-0.918
	c1.406,7.737-8.581-12.232-3.612-7.169c0.215,0.219-0.431-0.424-0.659-0.619c-0.495-0.429-1.017-0.802-1.558-1.112
	C90.801,49.174,84.022,46.805,80.184,47.994z M72.885,71.141c4.067,5.5,10.568,5.646,10.568,5.646s-5.014-0.782-8.805-5.133
	c-5.831-6.693-4.015-11.943-4.015-11.943S67.995,64.53,72.885,71.141z M71.776,82.667l-9.184,25.229l0.249,1.286l9.52-26.149
	c2.712,1.653,6.137,2.951,10.423,3.116l-9.25,25.411c0,0-0.845,1.447-2.06,1.721c-1.217,0.276-5.639,0.26-9.235-2.883
	c-1.471-1.287-0.656-3.667-0.656-3.667l9.024-24.88C70.979,82.129,71.371,82.4,71.776,82.667z M69.651,109.751
	c-0.384,1.055,0.826,1.653,1.598,1.607c0.691-0.044,0.938-0.687,0.938-0.687l8.813-24.213l-2.725-0.396
	C78.272,86.064,71.293,105.24,69.651,109.751z"/>
</svg>
